<svg xmlns="http://www.w3.org/2000/svg" xmlns:xlink="http://www.w3.org/1999/xlink" viewBox="0 0 707.76 544.13"><defs><style>.cls-1,.cls-4{fill:none;}.cls-2{isolation:isolate;}.cls-3{opacity:0.07;}.cls-4{stroke:#201842;stroke-linecap:round;stroke-linejoin:round;stroke-width:16px;}.cls-5{fill:#201842;}.cls-6{fill:#9e0242;}.cls-7{clip-path:url(#clip-path);}.cls-8{fill:#fff;}.cls-9{clip-path:url(#clip-path-2);}.cls-10{fill:#e9e9e9;}.cls-11{fill:#d3d2d2;}.cls-12{fill:#f4f4f4;}.cls-13{fill:#bdbcbc;}.cls-14{fill:#deddde;}.cls-15{fill:#f4f3f3;}.cls-15,.cls-16,.cls-18{fill-rule:evenodd;}.cls-16{fill:#e0e0e0;}.cls-17{opacity:0.15;mix-blend-mode:multiply;}</style><clipPath id="clip-path"><path class="cls-1" d="M346.35,317.5c-10.43,2-34.19,13.1-41.57.29-1.92-3.33-2.13-7.39-1.61-11.2,3.76-27.24,34.95-31.6,57.37-32,10.72-.17,21.67.54,31.68,4.39,17.65,6.8,35.81,32.16,16.75,48.08-8.51,7.1-16.32,3.14-24.14-2.51C373,316,360.6,314.73,346.35,317.5Z"/></clipPath><clipPath id="clip-path-2"><rect class="cls-1" x="124.36" y="49.33" width="502.88" height="502.88"/></clipPath></defs><title>rembourser2</title><g class="cls-2"><g id="Calque_2" data-name="Calque 2"><g id="Calque_1-2" data-name="Calque 1"><g class="cls-3"><path d="M435.44,524.57c0,4.65-41.08,8.41-91.76,8.41s-91.76-3.76-91.76-8.41,41.08-8.41,91.76-8.41S435.44,519.93,435.44,524.57Z"/></g><path class="cls-4" d="M251.12,263.66c-4.31,19.56-5.68,41.75,2,64.58,11.19,33.31,40.11,56.94,67.64,68.13"/><path class="cls-4" d="M442.16,262c4.31,19.57,5.67,41.75-2,64.58-11.18,33.31-40.1,56.94-67.63,68.13"/><path class="cls-5" d="M396.29,153.16c-1.35-.46-2.7-.9-4.05-1.31-25.94-8-54.26-8.95-80.19-1-47.63,14.62-79.43,59.71-75.24,110,3.94,47.29,44.19,89,91.31,94.63,38,4.53,76.74-13,102.34-41.38,34.77-38.56,43.15-101.33,2.79-139.72C422.87,164.52,409.88,157.78,396.29,153.16Z"/><polygon class="cls-5" points="324.56 172.55 230.69 122.57 255.56 232.99 324.56 172.55"/><polygon class="cls-5" points="372.53 162.97 466.39 119.35 444.37 204.21 372.53 162.97"/><polyline class="cls-4" points="335.92 311.22 289.22 519.75 257.12 513.07"/><path class="cls-4" d="M351.34,317c24.94,43.95,48.36,200.92,48.36,200.92s18.68-3.7,35.7-6.36"/><path class="cls-6" d="M343.54,316.68c-10.36,2.36-33.75,14.2-41.54,1.64-2-3.27-2.37-7.32-2-11.14,2.87-27.35,33.9-32.72,56.3-33.81,10.71-.52,21.67-.17,31.81,3.36,17.85,6.22,36.83,31,18.3,47.5-8.28,7.38-16.21,3.67-24.22-1.73C370.08,314.33,357.69,313.45,343.54,316.68Z"/><g class="cls-7"><path class="cls-8" d="M317.72,310.09c3.25-2.71,7.53-3.8,11.69-4.61,20.7-4,42.89-2.87,61.84,6.37,3.56,1.73,7.1,3.86,9.29,7.15s2.61,8,0,11.05c-3.09,3.64-8.71,3.28-13.42,2.53-16.79-2.66-33.68-6.23-50.77-5.69-5.37.17-18.26,4.81-22.87,2.2C307.55,325.7,313.87,313.3,317.72,310.09Z"/></g><g class="cls-9"><polygon class="cls-10" points="333.58 138.91 368.89 165.62 285.4 157.03 265.79 142.99 333.58 138.91"/><polygon class="cls-8" points="343.17 126.96 375.04 136.66 321.46 146.36 301.13 132.97 343.17 126.96"/><polygon class="cls-8" points="304.94 166.73 389.98 151.78 451.77 179.05 381.4 176.87 304.94 166.73"/><polygon class="cls-10" points="263.28 167.29 368.89 165.62 438.45 202.08 353.8 189.09 263.28 167.29"/><polygon class="cls-11" points="291.78 404.9 345.42 412.45 388.16 403.23 430.91 247.75 435.52 248.59 433.42 243.98 435.94 226.8 443.9 223.45 434.68 219.26 443.9 207.1 367.63 177.77 286.33 182.38 291.78 404.9"/><polygon class="cls-12" points="367.63 177.77 286.33 182.38 279.62 223.87 287.17 233.09 279.2 238.53 285.49 254.04 279.62 282.96 285.91 288.82 282.14 319 285.49 321.09 288.42 365.1 284.23 367.19 288 374.73 291.78 404.9 345.42 412.45 353.38 374.73 343.74 368.03 349.97 361.36 352.96 327.8 359.25 321.09 355.89 313.55 357.57 279.19 366.79 238.53 365.53 198.31 367.63 177.77"/><polygon class="cls-11" points="279.62 223.87 331.8 219.99 273.65 219.05 279.62 223.87"/><polygon class="cls-11" points="289.68 194.53 320.48 192.33 295.34 188.25 289.68 194.53"/><polygon class="cls-13" points="435.94 226.8 443.9 223.45 397.17 216.53 435.94 226.8"/><polygon class="cls-13" points="422.95 251.11 430.91 247.75 384.18 240.84 422.95 251.11"/><polygon class="cls-8" points="285.6 395.06 316.71 390.66 293.14 389.09 285.6 395.06"/><polygon class="cls-11" points="340.91 197.68 357.22 199.92 340.41 201.05 340.91 197.68"/><polygon class="cls-8" points="285.49 254.04 322.37 252.68 277.42 260.22 285.49 254.04"/><polygon class="cls-11" points="279.62 282.96 351.28 282.54 285.91 288.82 279.62 282.96"/><polygon class="cls-11" points="284.23 367.19 315.77 373.06 288 374.73 284.23 367.19"/><polygon class="cls-14" points="315.14 322.14 350.45 325.7 348.89 330.95 315.14 322.14"/><polygon class="cls-8" points="315.14 322.14 359.25 321.09 360.08 328.11 315.14 322.14"/><polygon class="cls-10" points="366.06 267.14 400.63 271.54 400.94 277.82 366.06 267.14"/></g><path class="cls-15" d="M126.1,33.5S105.46,59.25,80.72,70.06c0,0,13,24.93,13.53,32,0,0,19.69-5.4,41.27-31.79C135.52,70.24,125.82,40.31,126.1,33.5Z"/><path class="cls-15" d="M498.79,355S536.15,340,557.7,311.22c0,0,33.77,28,74,18,0,0-13.65,19.4-24.43,25.86,0,0,6.48,38.79-42,30.17"/><path class="cls-16" d="M599.54,379.73s9-12.6,5.94-25.86c0,0,35.47-31.88,41.21-42.65,0,0,18.81,7.84-16.07,42.72-26.18,26.18-31.08,25.79-31.08,25.79"/><path class="cls-15" d="M612.59,42.26s38.89-15.94,61-42.26c0,0,25.75,24.88,34.17,28,0,0-13.68,22.11-53.7,39C654.06,67,621,44.37,612.59,42.26Z"/><path class="cls-15" d="M69.3,369.26s29.25,28.26,38.82,31.85c0,0-15.55,25.12-61,44.26,0,0-37.55-25.7-47.12-28.1,0,0,44.17-18.11,69.3-48"/><g class="cls-17"><path class="cls-18" d="M177.58,495.49,239.86,520l10.87-10.27c-39.52-22.79-66.33-63-66.33-63L150.14,460.2c7.79,16.21,15.44,30.13,22.63,42C175.9,498,177.58,495.49,177.58,495.49Z"/></g><path class="cls-15" d="M173.22,491.14l62.29,24.51,10.87-10.27c-39.52-22.8-66.33-63-66.33-63l-34.26,13.48c7.78,16.21,15.43,30.13,22.63,42C171.55,493.65,173.22,491.14,173.22,491.14Z"/><g class="cls-17"><path class="cls-18" d="M285.09,461.19l-53.72-21.14s-26.8,40.22-66.33,63l43.45,41.07S262.57,518.87,285.09,461.19Z"/></g><path class="cls-15" d="M280.74,456.84,227,435.7s-26.81,40.22-66.33,63l43.44,41.07S258.22,514.51,280.74,456.84Z"/><g class="cls-17"><path class="cls-18" d="M81.82,419l-.29,66.41s29.63,11.85,69.09,10.58c-8.17-23.43-15.17-47-21-68.93A207,207,0,0,1,81.82,419Z"/></g><path class="cls-15" d="M77,414.2l-.28,66.41s29.63,11.85,69.09,10.58c-8.18-23.44-15.18-47-21-68.93A208.1,208.1,0,0,1,77,414.2Z"/><g class="cls-17"><path class="cls-18" d="M592.63,513.88l-21.32-53.65s-47.67,7.95-91.33-5.3l-.25,59.78S535.14,536.89,592.63,513.88Z"/></g><path class="cls-15" d="M588.27,509.52,567,455.88s-47.68,7.94-91.33-5.3l-.26,59.78S530.79,532.54,588.27,509.52Z"/><g class="cls-17"><path class="cls-18" d="M594.63,516a177.58,177.58,0,0,0,33.57-29.05l-.05,12.45a571.73,571.73,0,0,0,22.74-59.65l-48.39-19s-26.8,40.22-66.32,63L568.29,514A96.07,96.07,0,0,0,594.63,516Z"/></g><path class="cls-15" d="M590.28,511.6a177.11,177.11,0,0,0,33.57-29L623.79,495a571.2,571.2,0,0,0,22.74-59.65l-48.38-19s-26.81,40.22-66.33,63l32.12,30.36A96.08,96.08,0,0,0,590.28,511.6Z"/></g></g></g></svg>