<svg xmlns="http://www.w3.org/2000/svg" viewBox="0 0 440.05 306.14"><defs><style>.cls-1{fill:#ec4c53;}</style></defs><title>card</title><g id="Calque_2" data-name="Calque 2"><g id="Calque_1-2" data-name="Calque 1"><g id="MGbbkS.tif"><path class="cls-1" d="M393.05,306.14H46.9c-.54-.08-1.08-.19-1.63-.22a46.48,46.48,0,0,1-14.34-3.05A48.41,48.41,0,0,1,0,257.15Q.17,152.93,0,48.71a48.77,48.77,0,0,1,1.57-13A47.84,47.84,0,0,1,48.42,0Q220,0,391.65,0a60.19,60.19,0,0,1,6.15.34C417,2.37,434,17.3,438.5,36.09c.69,2.91,1,5.9,1.55,8.86V261c-.41,2.56-.61,5.17-1.26,7.66-4.88,18.84-16.7,30.95-35.52,36C400,305.5,396.46,305.65,393.05,306.14ZM19.18,114.83v1.59q0,71.16,0,142.34a23.3,23.3,0,0,0,.44,4.48c2.75,14.23,14.14,23.63,28.63,23.63h218q62.65,0,125.32,0a29.92,29.92,0,0,0,5.83-.47c14.18-2.8,23.45-14.1,23.45-28.6q0-70.63,0-141.28v-1.67ZM420.8,66.88c0-6.94.13-13.71,0-20.48A27,27,0,0,0,413,28c-5.93-6.22-13.34-8.92-21.89-8.92q-171,0-342.06,0c-.65,0-1.31,0-2,0A28.57,28.57,0,0,0,19.18,47.67V66.88Z"/><path class="cls-1" d="M67.08,162.44V143.56H220v18.88Z"/></g></g></g></svg>