<svg xmlns="http://www.w3.org/2000/svg" xmlns:xlink="http://www.w3.org/1999/xlink" viewBox="0 0 863.24 523.8"><defs><style>.cls-1,.cls-9{fill:none;}.cls-2{fill:#ea4e57;}.cls-3{fill:#da8e3d;}.cls-4{fill:#9fecff;}.cls-5{fill:#def8ff;fill-rule:evenodd;}.cls-6{fill:#f2707c;}.cls-7{fill:#e85931;}.cls-8{fill:#fff;}.cls-9{stroke:#201842;stroke-linecap:round;stroke-linejoin:round;stroke-width:16px;}.cls-10{opacity:0.07;}.cls-11{fill:#201842;}.cls-12{fill:#9e0242;}.cls-13{clip-path:url(#clip-path);}.cls-14{fill:#ce2764;}</style><clipPath id="clip-path"><path class="cls-1" d="M524,271c-10.85-6.08-33.2-27.12-46.11-15.59-3.35,3-5.08,7.44-5.9,11.86-5.82,31.66,27.25,48,52,56.6,11.86,4.13,24.28,7.36,36.83,6.75,22.11-1.08,51.61-22.6,36.27-47.29-6.85-11-17-9.48-27.76-6.07C553.05,282.47,538.84,279.35,524,271Z"/></clipPath></defs><title>consonew</title><g id="Calque_2" data-name="Calque 2"><g id="Calque_1-2" data-name="Calque 1"><rect class="cls-2" y="127.21" width="618.87" height="305"/><rect class="cls-3" x="211.58" y="216.34" width="376.83" height="141.65"/><rect class="cls-4" x="218.77" y="226.63" width="362.46" height="121.06"/><path class="cls-5" d="M328.28,322.22l61.3-95.59h-7.5l-53.8,83.9Zm0-23.38V275.47l31.32-48.84h15Zm0-35V252.1l16.34-25.47h7.49ZM312,347.69l16.33-25.47V310.53l-23.82,37.16Zm16.33-95.59v11.69l-53.8,83.9H267Zm0,23.37v23.37L297,347.69H282Z"/><rect class="cls-3" x="101.48" y="216.34" width="83.23" height="215.87"/><rect class="cls-4" x="108.67" y="225.97" width="68.86" height="206.24"/><rect class="cls-3" x="177.53" y="418.37" width="441.34" height="13.84"/><rect class="cls-3" x="25.44" y="216.34" width="83.23" height="215.87"/><rect class="cls-4" x="32.63" y="225.97" width="68.86" height="206.24"/><polygon class="cls-5" points="32.63 360.62 101.48 253.25 101.48 242.17 32.63 349.55 32.63 360.62"/><polygon class="cls-5" points="32.63 393.86 101.48 286.48 101.48 264.32 32.63 371.7 32.63 393.86"/><polygon class="cls-5" points="32.63 416.01 101.48 308.63 101.48 297.56 32.63 404.94 32.63 416.01"/><rect class="cls-3" x="75.66" y="93.75" width="16.08" height="45.39"/><rect class="cls-3" x="209.48" y="93.75" width="16.07" height="45.39"/><rect class="cls-3" x="343.31" y="93.75" width="16.07" height="45.39"/><rect class="cls-3" x="463.2" y="93.75" width="13.93" height="45.39"/><rect class="cls-2" width="618.87" height="97.11"/><rect class="cls-6" y="127.21" width="618.87" height="39.46"/><path class="cls-5" d="M440.43,322.22l31.29-95.59h-7.49l-23.8,83.9Zm0-23.38V275.47l31.32-48.84h-15Zm0-35V252.1l16.33-25.47h7.49Zm-16.34,83.9,16.34-25.47V310.53L416.6,347.69Zm16.34-95.59v11.69l-53.81,83.9h-7.49Zm0,23.37v23.37L409.1,347.69h-15Z"/><polygon class="cls-5" points="108.67 360.62 177.53 253.25 177.53 242.17 108.67 349.55 108.67 360.62"/><polygon class="cls-5" points="108.67 393.86 177.53 286.48 177.53 264.32 108.67 371.7 108.67 393.86"/><polygon class="cls-5" points="108.67 416.01 177.53 308.63 177.53 297.56 108.67 404.94 108.67 416.01"/><rect class="cls-7" y="418.37" width="25.44" height="13.84"/><rect class="cls-6" x="10.01" y="17.07" width="598.84" height="62.97"/><path class="cls-8" d="M210.56,41.28h-5.29V40a6.35,6.35,0,0,0-.86-3.35,3.1,3.1,0,0,0-2.88-1.41,3.37,3.37,0,0,0-1.79.44,3.3,3.3,0,0,0-1.09,1.14,5,5,0,0,0-.54,1.6,11.81,11.81,0,0,0-.16,1.91c0,.78,0,1.43.08,2a3.55,3.55,0,0,0,.39,1.38,3.15,3.15,0,0,0,.91,1,8.24,8.24,0,0,0,1.63.88l4,1.72A9.63,9.63,0,0,1,207.86,49a6.72,6.72,0,0,1,1.69,2.27,9.78,9.78,0,0,1,.8,3,31.43,31.43,0,0,1,.21,3.85,21,21,0,0,1-.47,4.62,10,10,0,0,1-1.53,3.65,7.37,7.37,0,0,1-2.82,2.41,9.57,9.57,0,0,1-4.31.89,8.91,8.91,0,0,1-3.58-.72A8.6,8.6,0,0,1,195,67a9.23,9.23,0,0,1-1.9-3,9.84,9.84,0,0,1-.7-3.71v-2.1h5.29V60a4.87,4.87,0,0,0,.86,2.8A3.24,3.24,0,0,0,201.43,64a4.47,4.47,0,0,0,2.1-.41,2.79,2.79,0,0,0,1.14-1.17,5,5,0,0,0,.5-1.85c.07-.74.1-1.55.1-2.44s0-1.88-.1-2.55a4.16,4.16,0,0,0-.45-1.6,2.7,2.7,0,0,0-.93-1,13.71,13.71,0,0,0-1.58-.83l-3.79-1.66a8.54,8.54,0,0,1-4.59-4,14.36,14.36,0,0,1-1.17-6.17,15.24,15.24,0,0,1,.57-4.21,10.1,10.1,0,0,1,1.69-3.43,8.09,8.09,0,0,1,2.83-2.3,8.82,8.82,0,0,1,4-.86,8.27,8.27,0,0,1,3.61.78,8.86,8.86,0,0,1,2.8,2.05,9.26,9.26,0,0,1,1.79,2.85,8.84,8.84,0,0,1,.62,3.24Z"/><path class="cls-8" d="M231.63,60.5a9.49,9.49,0,0,1-.68,3.6,9.37,9.37,0,0,1-1.84,2.9,8.82,8.82,0,0,1-2.72,2,8,8,0,0,1-6.64,0A8.75,8.75,0,0,1,217,67a9.37,9.37,0,0,1-1.84-2.9,9.49,9.49,0,0,1-.67-3.6V29.93h5.29v30a4.4,4.4,0,0,0,.93,3.1,3.23,3.23,0,0,0,4.67,0,4.4,4.4,0,0,0,.94-3.1v-30h5.29Z"/><path class="cls-8" d="M236.61,29.93h7.94a11.29,11.29,0,0,1,3.84.61,7.45,7.45,0,0,1,3,2.16,8.57,8.57,0,0,1,1.87,3.63,23.9,23.9,0,0,1,.52,5.62,30.06,30.06,0,0,1-.28,4.46,10.07,10.07,0,0,1-1.22,3.46,8,8,0,0,1-2.91,3A9.26,9.26,0,0,1,244.6,54h-2.7v15.4h-5.29Zm5.29,18.72h2.54a5.15,5.15,0,0,0,2.49-.5,3,3,0,0,0,1.3-1.36,5.44,5.44,0,0,0,.49-2.07c.05-.81.08-1.72.08-2.72s0-1.79-.08-2.63a6.76,6.76,0,0,0-.46-2.16A3.15,3.15,0,0,0,247,35.78a4.41,4.41,0,0,0-2.39-.53H241.9Z"/><path class="cls-8" d="M257.72,29.93H273.5v5.32H263V46.82h9.14v5.32H263V63.71H273.5v5.65H257.72Z"/><path class="cls-8" d="M276.92,29.93h8.51q9.35,0,9.34,11.58a15.53,15.53,0,0,1-1,5.89,8.1,8.1,0,0,1-3.56,4l5.71,18h-5.6l-4.93-16.84h-3.17V69.36h-5.29Zm5.29,17.61h3a5.1,5.1,0,0,0,2.23-.41,2.93,2.93,0,0,0,1.27-1.19,5.17,5.17,0,0,0,.6-1.91,20.28,20.28,0,0,0,.16-2.63,20,20,0,0,0-.16-2.63,4.83,4.83,0,0,0-.65-1.94,3,3,0,0,0-1.37-1.19,5.88,5.88,0,0,0-2.34-.39h-2.75Z"/><path class="cls-8" d="M299,29.93h5.09l6.79,20.88H311l6.74-20.88h5.14V69.36H317.6v-24h-.11l-5.24,16.94h-2.64l-5.19-16.94h-.11v24H299Z"/><path class="cls-8" d="M333.73,29.93h4.41l8.25,39.43H341.1l-1.56-8.47h-7.21l-1.55,8.47h-5.3ZM336,41.28h-.1l-2.59,14.29h5.29Z"/><path class="cls-8" d="M349,29.93h8.5q9.35,0,9.34,11.58a15.34,15.34,0,0,1-1,5.89,8.08,8.08,0,0,1-3.55,4l5.71,18h-5.61l-4.93-16.84h-3.16V69.36H349Zm5.29,17.61h3a5.16,5.16,0,0,0,2.23-.41,3,3,0,0,0,1.27-1.19,5.58,5.58,0,0,0,.6-1.91,20.42,20.42,0,0,0,.15-2.63,20.2,20.2,0,0,0-.15-2.63,5,5,0,0,0-.65-1.94,3,3,0,0,0-1.38-1.19,5.83,5.83,0,0,0-2.33-.39h-2.75Z"/><path class="cls-8" d="M387.9,60.55a9.57,9.57,0,0,1-.65,3.49A9.17,9.17,0,0,1,385.46,67a8.88,8.88,0,0,1-2.67,2,7.4,7.4,0,0,1-3.3.75,11.37,11.37,0,0,1-3.06-.44,7.32,7.32,0,0,1-2.8-1.53,8.23,8.23,0,0,1-2.05-2.85,10.79,10.79,0,0,1-.8-4.48V38.68a10.09,10.09,0,0,1,.62-3.6,8.62,8.62,0,0,1,1.76-2.88,8.3,8.3,0,0,1,2.73-1.91,8.64,8.64,0,0,1,3.5-.69,8.09,8.09,0,0,1,6.07,2.63,9,9,0,0,1,1.79,3A10.85,10.85,0,0,1,387.9,39v2.22h-5.29V39.35a4.76,4.76,0,0,0-.89-2.88,2.78,2.78,0,0,0-2.38-1.22,2.62,2.62,0,0,0-2.62,1.3,7.29,7.29,0,0,0-.65,3.3V60a5.49,5.49,0,0,0,.7,2.88A2.71,2.71,0,0,0,379.29,64a3.59,3.59,0,0,0,1.11-.19,3,3,0,0,0,1.09-.64,3.05,3.05,0,0,0,.8-1.22,5.14,5.14,0,0,0,.32-1.94V58.12h5.29Z"/><path class="cls-8" d="M392.21,29.93h5.29V46.82H404V29.93h5.3V69.36H404V51.8H397.5V69.36h-5.29Z"/><path class="cls-8" d="M414.31,29.93h15.77v5.32H419.6V46.82h9.13v5.32H419.6V63.71h10.48v5.65H414.31Zm8.92-9.57h5.6L422,28.16h-3.43Z"/><rect class="cls-2" x="224.53" y="233.25" width="65.71" height="69.04"/><path class="cls-8" d="M233.88,245.06h2a3,3,0,0,1,1,.15,1.9,1.9,0,0,1,.77.55,2.16,2.16,0,0,1,.48.91,6,6,0,0,1,.13,1.42,7.2,7.2,0,0,1-.07,1.12,2.38,2.38,0,0,1-.31.87,2.13,2.13,0,0,1-.75.77,2.44,2.44,0,0,1-1.23.27h-.69V255h-1.36Zm1.36,4.72h.65a1.25,1.25,0,0,0,.64-.13.86.86,0,0,0,.34-.34,1.33,1.33,0,0,0,.12-.52c0-.21,0-.44,0-.69s0-.45,0-.66a1.53,1.53,0,0,0-.12-.55.77.77,0,0,0-.31-.36,1.15,1.15,0,0,0-.61-.13h-.71Z"/><path class="cls-8" d="M239.31,245.06h2.18c1.6,0,2.4,1,2.4,2.92a3.7,3.7,0,0,1-.26,1.48,2,2,0,0,1-.91,1l1.47,4.54h-1.44l-1.27-4.25h-.81V255h-1.36Zm1.36,4.44h.77a1.28,1.28,0,0,0,.57-.11.74.74,0,0,0,.33-.3,1.13,1.13,0,0,0,.15-.48,5.47,5.47,0,0,0,0-1.32,1.13,1.13,0,0,0-.16-.49.71.71,0,0,0-.36-.3,1.44,1.44,0,0,0-.6-.1h-.7Z"/><path class="cls-8" d="M244.91,247.4a2.54,2.54,0,0,1,.2-1.06,2.33,2.33,0,0,1,.52-.76,2.26,2.26,0,0,1,.74-.45,2.34,2.34,0,0,1,.82-.16,2.39,2.39,0,0,1,.82.16,2.19,2.19,0,0,1,1.26,1.21,2.71,2.71,0,0,1,.2,1.06v5.25a2.69,2.69,0,0,1-.2,1.07,2.12,2.12,0,0,1-.53.76,2.22,2.22,0,0,1-.73.45,2.37,2.37,0,0,1-.82.15,2.33,2.33,0,0,1-.82-.15,2.26,2.26,0,0,1-.74-.45,2.23,2.23,0,0,1-.52-.76,2.52,2.52,0,0,1-.2-1.07Zm1.36,5.25a1,1,0,0,0,.27.77,1,1,0,0,0,.65.24.93.93,0,0,0,.64-.24,1,1,0,0,0,.28-.77V247.4a1,1,0,0,0-.28-.76.93.93,0,0,0-.64-.24,1,1,0,0,0-.65.24,1,1,0,0,0-.27.76Z"/><path class="cls-8" d="M250.67,245.06H252l1.74,5.26h0l1.73-5.26h1.32V255h-1.36V249h0l-1.35,4.28h-.68L252.06,249h0V255h-1.36Z"/><path class="cls-8" d="M258,247.4a2.71,2.71,0,0,1,.2-1.06,2.35,2.35,0,0,1,.53-.76,2.22,2.22,0,0,1,.73-.45,2.21,2.21,0,0,1,1.65,0,2.22,2.22,0,0,1,.73.45,2.35,2.35,0,0,1,.53.76,2.71,2.71,0,0,1,.2,1.06v5.25a2.69,2.69,0,0,1-.2,1.07,2.25,2.25,0,0,1-.53.76,2.22,2.22,0,0,1-.73.45,2.34,2.34,0,0,1-1.65,0,2.22,2.22,0,0,1-.73-.45,2.25,2.25,0,0,1-.53-.76,2.69,2.69,0,0,1-.2-1.07Zm1.37,5.25a1,1,0,0,0,.27.77,1,1,0,0,0,1.29,0,1,1,0,0,0,.28-.77V247.4a1,1,0,0,0-.28-.76,1,1,0,0,0-1.29,0,1,1,0,0,0-.27.76Z"/><path class="cls-8" d="M264.66,246.4h-1.57v-1.34h4.5v1.34H266V255h-1.36Z"/><path class="cls-8" d="M268.23,245.06h1.36V255h-1.36Z"/><path class="cls-8" d="M270.83,247.4a2.71,2.71,0,0,1,.2-1.06,2.35,2.35,0,0,1,.53-.76,2.22,2.22,0,0,1,.73-.45,2.21,2.21,0,0,1,1.65,0,2.22,2.22,0,0,1,.73.45,2.35,2.35,0,0,1,.53.76,2.71,2.71,0,0,1,.2,1.06v5.25a2.69,2.69,0,0,1-.2,1.07,2.25,2.25,0,0,1-.53.76,2.22,2.22,0,0,1-.73.45,2.34,2.34,0,0,1-1.65,0,2.22,2.22,0,0,1-.73-.45,2.25,2.25,0,0,1-.53-.76,2.69,2.69,0,0,1-.2-1.07Zm1.37,5.25a1,1,0,0,0,.27.77,1,1,0,0,0,1.29,0,1,1,0,0,0,.28-.77V247.4a1,1,0,0,0-.28-.76,1,1,0,0,0-1.29,0,1,1,0,0,0-.27.76Z"/><path class="cls-8" d="M276.54,245.06h1.31l2,6h0v-6h1.36V255H280l-2.08-6h0v6h-1.36Z"/><path class="cls-8" d="M233.69,270.41l2.46-4.84a2,2,0,0,0,.21-.64,6.19,6.19,0,0,0,0-.67c0-.13,0-.25,0-.39a1.21,1.21,0,0,0-.07-.35.56.56,0,0,0-.58-.37.66.66,0,0,0-.49.18.75.75,0,0,0-.18.54v.8h-1.36v-.78a2.37,2.37,0,0,1,.16-.84,2.21,2.21,0,0,1,.44-.68,2,2,0,0,1,.64-.47,2,2,0,0,1,.8-.17,2,2,0,0,1,.92.2,1.83,1.83,0,0,1,.62.55,2.16,2.16,0,0,1,.36.8,3.64,3.64,0,0,1,.12,1c0,.24,0,.44,0,.6a3.39,3.39,0,0,1,0,.47,2.54,2.54,0,0,1-.13.45c-.07.15-.15.33-.26.54l-2,4h2.46v1.42h-4.06Z"/><path class="cls-8" d="M244.15,264.69h1.06v3h2.84v1.12h-2.84v3h-1.06v-3h-2.84v-1.12h2.84Z"/><path class="cls-8" d="M253.23,263.32l-1.36,1.05v-1.51l1.36-1.05h1.36v9.94h-1.36Z"/><path class="cls-8" d="M233.8,280.92a2.76,2.76,0,0,1,.2-1.07,2.21,2.21,0,0,1,.53-.76,2.12,2.12,0,0,1,.73-.45,2.33,2.33,0,0,1,.82-.15,2.37,2.37,0,0,1,.82.15,2.12,2.12,0,0,1,.73.45,2.21,2.21,0,0,1,.53.76,2.76,2.76,0,0,1,.2,1.07v.5H237v-.5a1,1,0,0,0-.27-.76.93.93,0,0,0-.65-.25.91.91,0,0,0-.65.25,1,1,0,0,0-.27.76v5.25a1,1,0,0,0,.27.76,1,1,0,0,0,.65.24,1,1,0,0,0,.65-.24,1,1,0,0,0,.27-.76v-1.88h-1.08V283h2.44v3.13a2.64,2.64,0,0,1-.2,1.06,2.19,2.19,0,0,1-1.26,1.21,2.39,2.39,0,0,1-.82.16,2.34,2.34,0,0,1-.82-.16,2.19,2.19,0,0,1-1.26-1.21,2.64,2.64,0,0,1-.2-1.06Z"/><path class="cls-8" d="M239.56,278.57h2.19c1.6,0,2.4,1,2.4,2.92a3.93,3.93,0,0,1-.26,1.49,2.09,2.09,0,0,1-.92,1l1.47,4.54H243l-1.27-4.24h-.81v4.24h-1.36Zm1.36,4.44h.77a1.34,1.34,0,0,0,.58-.1.72.72,0,0,0,.32-.3,1.41,1.41,0,0,0,.16-.49,5.47,5.47,0,0,0,0-1.32,1.19,1.19,0,0,0-.17-.49.69.69,0,0,0-.35-.3,1.44,1.44,0,0,0-.6-.1h-.71Z"/><path class="cls-8" d="M246.75,278.57h1.13l2.12,9.94h-1.36l-.4-2.14h-1.85l-.4,2.14h-1.36Zm.57,2.86h0l-.67,3.61H248Z"/><path class="cls-8" d="M251.18,279.91H249.6v-1.34h4.51v1.34h-1.57v8.6h-1.36Z"/><path class="cls-8" d="M259.11,286.28a2.49,2.49,0,0,1-.17.91,2.37,2.37,0,0,1-.48.73,2.16,2.16,0,0,1-.7.49,2,2,0,0,1-1.7,0,2.16,2.16,0,0,1-.7-.49,2.57,2.57,0,0,1-.48-.73,2.49,2.49,0,0,1-.17-.91v-7.71h1.36v7.57a1.1,1.1,0,0,0,.24.78.84.84,0,0,0,1.2,0,1.1,1.1,0,0,0,.24-.78v-7.57h1.36Z"/><path class="cls-8" d="M260.43,278.57h1.36v9.94h-1.36Z"/><path class="cls-8" d="M264,279.91h-1.58v-1.34h4.51v1.34h-1.57v8.6H264Z"/><path class="cls-3" d="M288.28,241c0,2.29-1.51,4.14-3.37,4.14s-3.37-1.85-3.37-4.14,1.51-4.15,3.37-4.15,3.37,1.86,3.37,4.15"/><path class="cls-3" d="M233.24,241c0,2.29-1.51,4.14-3.37,4.14s-3.37-1.85-3.37-4.14,1.51-4.15,3.37-4.15,3.37,1.86,3.37,4.15"/><path class="cls-9" d="M466.23,186.88c-20.52-16.48-45.84-30.67-77.24-33.74-45.81-4.47-90.64,19.05-120,47.79"/><path class="cls-9" d="M855.24,335.41c-10-24.32-25.37-49-51.39-66.8-38-26-88.59-27-128.18-16"/><g class="cls-10"><ellipse cx="523.31" cy="511.35" rx="135.9" ry="12.46"/></g><path class="cls-11" d="M536.5,106c1.67-.1,3.33-.18,5-.23,31.74-1,64,6.63,90.86,23.62,49.28,31.2,71.29,91.93,51,147.44-19,52.19-77.36,86.88-132.31,78.69-44.28-6.59-82.67-38.31-102.82-78.29-27.36-54.27-17.48-127.75,40-158.65C503,110.66,519.73,107.05,536.5,106Z"/><polygon class="cls-11" points="611.53 150.05 732.96 122.56 670.81 239.6 611.53 150.05"/><polygon class="cls-11" points="560.31 124.44 467.77 46.22 466.46 148.85 560.31 124.44"/><polyline class="cls-9" points="555.92 303.15 576.28 505.58 614.6 507.95"/><path class="cls-9" d="M536.73,304.91C495,346.85,452.08,469.43,452.08,469.43s-19.95-9.94-38.35-18.2"/><path class="cls-11" d="M635,269.37c-15.6-11.23-35.56-14.25-54.75-15.3-8.71-.48-17.63-.6-26,2.05s-16,8.51-18.84,16.77a5.08,5.08,0,0,0-.35,2.68c.34,1.64,1.95,2.64,3.43,3.41,31.44,16.45,71.29,15.56,102-2.28"/><path class="cls-12" d="M524,271c-10.85-6.08-33.2-27.12-46.11-15.59-3.35,3-5.08,7.44-5.9,11.86-5.82,31.66,27.25,48,52,56.6,11.86,4.13,24.28,7.36,36.83,6.75,22.11-1.08,51.61-22.6,36.27-47.29-6.85-11-17-9.48-27.76-6.07C553.05,282.47,538.84,279.35,524,271Z"/><g class="cls-13"><path class="cls-8" d="M489.47,268.76c2.61,4.21,7,7,11.31,9.42,21.54,12.06,46.62,18.94,71.08,15.62,4.59-.62,9.31-1.68,12.95-4.54s5.86-8,4.12-12.27c-2.11-5.17-8.49-6.83-14-7.73-19.64-3.21-39.73-5.44-58.53-12.31-5.9-2.16-18.53-12.06-24.61-10.85C483.89,247.67,486.37,263.78,489.47,268.76Z"/></g><g class="cls-13"><path class="cls-14" d="M511.72,309.73c-4.29,1.85-8.55,4.08-11.63,7.59s-4.76,8.56-3.23,13c2.08,6,9,8.72,15.13,10.3,30,7.66,63.21,5.69,90-9.87,6.31-3.67,20.87-14.72,14.45-23.52-5-6.93-25-5.58-32.76-6.18C559.42,299.15,534.33,300,511.72,309.73Z"/></g><path class="cls-8" d="M481.55,186a32,32,0,0,0-2,6.85C476.3,212,490.82,230.41,512,234s41-8.93,44.28-28a32.7,32.7,0,0,0,.45-4.9c-38.63-5.8-64-12-75.18-15.08"/><path class="cls-8" d="M560.81,201.7a31,31,0,0,0-1.41,5.38c-3.27,19.11,11.25,37.54,32.43,41.16s41-8.93,44.28-28a32,32,0,0,0,.08-10.23c-28.88-2.22-54.05-5.16-75.38-8.27"/><path class="cls-8" d="M560.83,201.55c3.16.21,6.31.5,9.46.75,1.58.12,3.15.29,4.73.43l4.72.45q4.71.44,9.42.93l4.71.5c1.57.2,3.14.31,4.72.43,3.15.23,6.29.5,9.44.76s6.29.53,9.43.84c6.28.57,12.56,1.28,18.84,1.93l1.16.12.12,1.07a36.09,36.09,0,0,1,.3,4.29c0,.36,0,.71,0,1.07l-.06,1.1a18.29,18.29,0,0,1-.19,2.15l-.31,2.09-.52,2.08a28.89,28.89,0,0,1-1.33,4.07c-.13.33-.24.67-.39,1l-.48,1-1,1.89c-.34.62-.77,1.2-1.15,1.79s-.75,1.21-1.21,1.75l-1.34,1.64-.68.81-.75.75L627,238.67c-.5.5-1.08.91-1.61,1.36s-1.08.91-1.65,1.31L622,242.5a37.59,37.59,0,0,1-3.62,2.12,17.2,17.2,0,0,1-1.89.89l-1.9.85c-1.31.46-2.63.92-4,1.33l-2,.51a16.17,16.17,0,0,1-2,.45l-2.06.34-1,.17-1,.08a41.53,41.53,0,0,1-4.19.22h-2.11a20.36,20.36,0,0,1-2.08-.15l-2.05-.18c-.77-.09-1.4-.24-2.11-.36l-2.08-.39c-.68-.17-1.36-.38-2-.56l-2-.59-2-.76a19.87,19.87,0,0,1-2-.81l-1.89-1a39.35,39.35,0,0,1-7-4.77c-1.07-.93-2.06-1.95-3.08-2.95l-1.38-1.62a17.68,17.68,0,0,1-1.34-1.66,32.19,32.19,0,0,1-2.32-3.58l-1-1.86c-.32-.64-.58-1.3-.86-1.95a33.65,33.65,0,0,1-2.32-8.16c-.12-.7-.13-1.42-.19-2.12s-.14-1.4-.12-2.11l.08-2.14.05-1.06c0-.35.1-.68.15-1l.33-2,.09-.51a3.57,3.57,0,0,1,.13-.54l.27-1a28.86,28.86,0,0,1,1.34-3.93l0-.11Z"/><path d="M487.81,187.66a17.66,17.66,0,0,0-1,3.33c-.89,5.22,1.45,10,5.24,10.63s7.58-3.06,8.47-8.28a6.5,6.5,0,0,0,.18-2.6"/><path class="cls-8" d="M512.78,198.23c1.4.24,2.79-1,3.27-2.87l-5.42-.62c-.05,1.77.83,3.26,2.15,3.49"/><path d="M586.21,203.89c.14,1.17-.71,3.78-.92,5.05-.9,5.22-4.69,8.93-8.48,8.28s-6.13-5.4-5.24-10.62a12.72,12.72,0,0,1,1.42-4"/><path d="M532.21,135.34l1,15.73s-27.31-6.37-49.42,7.25c0,0,9.71-27.95,48.44-23"/><path d="M580.17,163.28l-1.67,15.29s33.39-10.39,57.22-5c0,0-4.53-17.89-55.55-10.24"/></g></g></svg>