<svg xmlns="http://www.w3.org/2000/svg" xmlns:xlink="http://www.w3.org/1999/xlink" viewBox="0 0 552.14 576.06"><defs><style>.cls-1,.cls-11,.cls-18{fill:none;}.cls-2{isolation:isolate;}.cls-3{fill:#ea4e57;}.cls-4{fill:#d84e5b;}.cls-5{fill:#00774f;}.cls-6{fill:#da8e3d;}.cls-7{fill:#b2b2b2;}.cls-8{fill:#929292;}.cls-9{fill:#c6c6c6;}.cls-10{fill:#261e19;}.cls-11{stroke:#201842;stroke-width:16px;}.cls-11,.cls-18{stroke-linecap:round;stroke-linejoin:round;}.cls-12{opacity:0.07;}.cls-13{fill:#201842;}.cls-14{fill:#fff;}.cls-15{fill:#9e0242;}.cls-16{clip-path:url(#clip-path);}.cls-17{fill:#ce2764;}.cls-18{stroke:#000;stroke-width:9px;}.cls-19{fill:#cbd2d8;}.cls-20{fill:#b4b9bf;}.cls-21{fill:#878a8e;}.cls-22{opacity:0.5;mix-blend-mode:multiply;}.cls-23{fill:#ffbd12;}.cls-24{fill:#d89727;}.cls-25{fill:#fdd655;}.cls-26{fill:#eea20e;}</style><clipPath id="clip-path"><path class="cls-1" d="M375.41,333.82c9.58-5.37,29.32-23.95,40.71-13.76,3,2.64,4.49,6.56,5.21,10.46,5.14,28-24.06,42.35-45.94,50-10.48,3.65-21.45,6.51-32.53,6-19.52-1-45.57-20-32-41.76,6.05-9.74,15-8.38,24.52-5.37C349.78,343.91,362.32,341.16,375.41,333.82Z"/></clipPath></defs><title>immo2</title><g class="cls-2"><g id="Layer_2" data-name="Layer 2"><g id="Layer_7" data-name="Layer 7"><rect class="cls-3" x="131.92" y="111.91" width="218.67" height="380.49"/><rect class="cls-4" x="89.08" y="492.41" width="304.35" height="16.27"/><rect class="cls-5" x="192.59" y="398.31" width="102.86" height="7.35"/><rect class="cls-6" x="204.62" y="405.66" width="78.99" height="72.56"/><rect class="cls-7" x="308.79" y="282.04" width="17.14" height="49.9" rx="6.93" ry="6.93"/><path class="cls-8" d="M344.45,305H318.74a3.06,3.06,0,0,1-3.07-3.06h0a3.06,3.06,0,0,1,3.07-3.06h25.71a3.06,3.06,0,0,1,3.06,3.06h0A3.06,3.06,0,0,1,344.45,305Z"/><path class="cls-9" d="M343.14,303.78H317.42a3.06,3.06,0,0,1-3.06-3.06h0a3.06,3.06,0,0,1,3.06-3.06h25.72a3.06,3.06,0,0,1,3.06,3.06h0A3.06,3.06,0,0,1,343.14,303.78Z"/><path class="cls-10" d="M319.56,311.43a1.84,1.84,0,1,1-1.83-1.83A1.83,1.83,0,0,1,319.56,311.43Z"/><polygon class="cls-10" points="316.64 312.5 316.23 315.61 319.22 315.61 318.82 312.5 316.64 312.5"/><rect class="cls-6" x="114.77" y="111.91" width="17.15" height="380.49"/><rect class="cls-6" x="232.75" y="-22.17" width="17.15" height="252.87" transform="translate(345.58 -137.06) rotate(90)"/><rect class="cls-6" x="350.59" y="111.91" width="17.15" height="380.49"/><path class="cls-11" d="M22.82,190C-1,231.43,5,299.4,33.08,337c62.34,83.46,197.73,51.63,274.68,12.36"/><path class="cls-11" d="M441.25,312.24c39.8-27.53,76.8-62.74,94-109.31,25-67.94-5.65-120-52.09-169.92"/><g class="cls-12"><ellipse cx="395.08" cy="565.06" rx="120" ry="11"/></g><path class="cls-13" d="M364.38,188.12c-1.46-.09-2.93-.16-4.39-.21-28-.88-56.54,5.86-80.24,20.86-43.5,27.55-62.94,81.17-45.06,130.19C251.5,385,303,415.67,351.52,408.44c39.09-5.82,73-33.83,90.79-69.13,24.16-47.92,15.42-112.8-35.29-140.08C394,192.21,379.2,189,364.38,188.12Z"/><path class="cls-14" d="M339.4,330.6c6.8-3.84,12.7-9.61,15.65-16.84,14.63-35.8-41-58.72-65.16-36.83C257.3,306.46,305.56,349.74,339.4,330.6Z"/><path class="cls-14" d="M375.91,295c3.47,9.55,13.33,16.24,23.49,16.49s20.1-5.65,25.26-14.4a33.38,33.38,0,0,0,1.68-29.36C411.44,232.05,365.47,266.29,375.91,295Z"/><path d="M352.78,295.77a8.3,8.3,0,0,0-5.07-4.32c-11.86-4.06-22.6,11.13-11.21,19.13C346.81,317.82,356.54,303.8,352.78,295.77Z"/><path d="M379.69,282.68c-4.92,4.44-3.06,14,3.17,16.25s13.79-3.81,12.9-10.38S386,278.13,380.55,282"/><polygon class="cls-13" points="298.14 226.99 190.92 202.72 245.79 306.06 298.14 226.99"/><polygon class="cls-13" points="343.36 204.37 425.08 135.31 426.23 225.93 343.36 204.37"/><polyline class="cls-11" points="347.24 362.17 341.31 556.97 307.48 559.06"/><path class="cls-11" d="M364.18,363.73C401,400.76,451,525,451,525s17.62-8.77,33.86-16.06"/><path class="cls-15" d="M375.41,333.82c9.58-5.37,29.32-23.95,40.71-13.76,3,2.64,4.49,6.56,5.21,10.46,5.14,28-24.06,42.35-45.94,50-10.48,3.65-21.45,6.51-32.53,6-19.52-1-45.57-20-32-41.76,6.05-9.74,15-8.38,24.52-5.37C349.78,343.91,362.32,341.16,375.41,333.82Z"/><g class="cls-16"><path class="cls-14" d="M405.92,331.81c-2.31,3.72-6.17,6.17-10,8.31-19,10.65-41.16,16.73-62.76,13.8-4.05-.55-8.22-1.48-11.44-4s-5.17-7.05-3.63-10.83c1.86-4.57,7.49-6,12.36-6.84,17.34-2.83,35.07-4.8,51.67-10.86,5.22-1.91,16.36-10.65,21.74-9.58C410.84,313.19,408.65,327.41,405.92,331.81Z"/></g><g class="cls-16"><path class="cls-17" d="M386.27,368c3.79,1.64,7.55,3.61,10.26,6.71s4.21,7.55,2.86,11.44c-1.84,5.32-7.91,7.71-13.36,9.1-26.47,6.76-55.81,5-79.43-8.72-5.56-3.23-18.42-13-12.75-20.76,4.46-6.12,22.08-4.93,28.93-5.46C344.15,358.64,366.31,359.38,386.27,368Z"/></g><path class="cls-18" d="M310.89,243.42a55.9,55.9,0,0,0-34,29.6"/><path class="cls-18" d="M422.19,243.6c-16-20.73-40.63-6.74-46.1-3"/><path class="cls-19" d="M10.42,26.84A13.84,13.84,0,0,1,2.5,8.93l2.05.79a11.65,11.65,0,0,0,6.66,15.07Z"/><path class="cls-20" d="M25.17,23.77A14,14,0,0,1,21,26.59a13.81,13.81,0,0,1-10.6.25l.79-2.05A11.65,11.65,0,1,0,4.55,9.72l-2-.79a13.85,13.85,0,0,1,25.83,10A14,14,0,0,1,25.17,23.77Z"/><path class="cls-21" d="M52,35.37a3.64,3.64,0,0,0,.11-1.07h0a4,4,0,0,0-3-3.79l-.53-.13L49.68,26h0L51,20.92a2,2,0,0,0-1.44-2.43l-2.7-.7c-1.07-.27,51,1.61,50.73,2.67l-1.7,6.62-4.56-1.17,1.18-4.58a2,2,0,0,0-1.44-2.43l-3.87-1a2,2,0,0,0-2.43,1.43l-.58,2.27h0l-1.32,5.16L60.48,21l.58-2.29.31-1.2h0l.21-.81A12,12,0,0,0,53,2.16L46,.37A12,12,0,0,0,31.41,9l-.17.69h0l-.41,1.6-.52,2-.39-.1a4.17,4.17,0,0,0-.6-.1h-.78a4.13,4.13,0,0,0-1.15.29l-.05,0a3.35,3.35,0,0,0-.53.28l0,0a3.9,3.9,0,0,0-.94.83h0a4,4,0,0,0-.37.54h0a4.38,4.38,0,0,0-.41,1,4,4,0,0,0,2.88,4.86l.39.1-1.11,4.3a12,12,0,0,0,8.63,14.58l7,1.78a12,12,0,0,0,14.58-8.63l1.1-4.3L47.1,38.25A4,4,0,0,0,52,35.37Zm1.89-20.62-1.13,4.38h0l-.37,1.44-.6,2.35h0l-2.09,8.17A4.05,4.05,0,0,1,44.8,34l-7-1.78A4,4,0,0,1,35,27.32l1.1-4.3h0l.44-1.71L39.15,11A4,4,0,0,1,44,8.11l7,1.78A4.06,4.06,0,0,1,53.85,14.75Z"/><g class="cls-22"><path class="cls-21" d="M42.81,41.7l3.42-1.87,6.4-9.15a2.51,2.51,0,0,0,.59-.91,2.78,2.78,0,0,0-.58-2.93l-1.51-1.52.62-2.4.6-2.35.37-1.44,1.13-4.38a4,4,0,0,0-.28-2.69,14.17,14.17,0,0,1,1.79,1.51l5.29,5.33c.1.11.19.22.29.32L60.48,21l2.25.57a14,14,0,0,1,1.86,8.72l-6.1-1.56-1.1,4.3A12,12,0,0,1,42.81,41.7Z"/><path class="cls-21" d="M39.17,10.92a.25.25,0,0,0,0,.07L36.5,21.31,36.06,23,35,27.32a3.89,3.89,0,0,0,.19,2.48L31,33.91a2.51,2.51,0,0,0-.59.91,2.84,2.84,0,0,0,0,2,12,12,0,0,1-3.17-11.45L28.33,21l-.39-.1A4,4,0,0,1,25,17.89a5.64,5.64,0,0,1,2.27-2.36,7,7,0,0,1,.78-.37l.11,0a5.71,5.71,0,0,1,1.63-.31h.11a5.91,5.91,0,0,1,.84,0h.08a5.85,5.85,0,0,1,1.64.5l.09.05a5.07,5.07,0,0,1,.67.39l2.33-2.31A13.89,13.89,0,0,1,39.17,10.92Z"/></g><rect class="cls-23" x="70" y="55.31" width="12.3" height="8.35" rx="2.09" ry="2.09" transform="translate(-19.8 70.89) rotate(-44.77)"/><rect class="cls-23" x="78.68" y="64.1" width="14.39" height="7.1" rx="2.09" ry="2.09" transform="translate(-22.73 80.11) rotate(-44.77)"/><rect class="cls-24" x="76.6" y="62.24" width="5.01" height="10.07" transform="translate(-24.44 75.22) rotate(-44.77)"/><path class="cls-23" d="M32.4,45.37,27.11,40a4.24,4.24,0,0,1,0-5.9L39.65,21.71a4.24,4.24,0,0,1,5.9,0l5.29,5.34a4.22,4.22,0,0,1,0,5.9L38.31,45.39a4.25,4.25,0,0,1-5.91,0Zm-5.93,5.88a12.55,12.55,0,0,0,17.71.06L56.7,38.9a12.56,12.56,0,0,0,.07-17.71l-5.29-5.34a12.56,12.56,0,0,0-17.71-.07L21.26,28.2a12.55,12.55,0,0,0-.08,17.71l5.29,5.34Z"/><path class="cls-23" d="M44.56,39.18,50.82,33a4.22,4.22,0,0,0,0-5.9l-5.29-5.34a4.24,4.24,0,0,0-5.9,0l-6.26,6.21L27.51,22l6.26-6.21a12.56,12.56,0,0,1,17.71.07l5.29,5.34A12.56,12.56,0,0,1,56.7,38.9l-6.26,6.21Z"/><path class="cls-25" d="M47.33,20l5.29,5.33a6.77,6.77,0,0,1,0,9.45l-5.46,5.42,3.07-6.58.63-.62a4.22,4.22,0,0,0,0-5.9l-5.29-5.34Z"/><path class="cls-25" d="M45.55,21.73a4.24,4.24,0,0,0-5.9,0l-.53.52-6.7,3.13,5.47-5.43a6.76,6.76,0,0,1,9.44,0Z"/><path class="cls-25" d="M35.8,24.7l-5.62-5.94a4.18,4.18,0,1,0-5.93,5.88l5.63,5.94Z"/><rect class="cls-26" x="31.78" y="16.91" width="5.15" height="8.35" transform="translate(-4.88 30.31) rotate(-44.77)"/><polygon class="cls-26" points="52.52 43.05 46.64 37.12 51.96 35.37 56.07 39.52 52.52 43.05"/><path class="cls-24" d="M73.26,65.3l-2.94-3a2.09,2.09,0,0,1,0-2.95l4-4,5.88,5.93-4,4A2.09,2.09,0,0,1,73.26,65.3Z"/><path class="cls-24" d="M81.8,73.75l-2.06-2.07a2.09,2.09,0,0,1,0-3l3.37-3.34,5,5-3.36,3.34A2.09,2.09,0,0,1,81.8,73.75Z"/><path class="cls-26" d="M25.18,18.06a4.15,4.15,0,0,1,5,.7L36.36,25l-2.18,2.15Z"/><path class="cls-23" d="M79.23,80.05,42.77,43.31a4.56,4.56,0,0,1-.52-.66l5.52-5.48a5.48,5.48,0,0,1,.64.55L84.86,74.46c1.62,1.64,1.91,4,.27,5.61A4.16,4.16,0,0,1,79.23,80.05Z"/><path class="cls-26" d="M45.35,38.39l2.12-2.09a4.5,4.5,0,0,1,.64.53L85.16,74.17a4.17,4.17,0,0,1,.65,5Z"/><path class="cls-26" d="M30.62,47.13,25.33,41.8a6.77,6.77,0,0,1,0-9.45l12-11.89,1.76,1.77-12,11.9a4.24,4.24,0,0,0,0,5.9l5.29,5.34Z"/><path class="cls-26" d="M32.4,45.37a4.25,4.25,0,0,0,5.91,0l11.88-11.8L52,35.37,40.07,47.17a6.77,6.77,0,0,1-9.45,0Z"/><path class="cls-24" d="M25.63,20.89a1.41,1.41,0,1,0,.8,1.82A1.41,1.41,0,0,0,25.63,20.89Z"/><path class="cls-20" d="M25.15,23.78a13.81,13.81,0,0,1-3.84,2.68,1.1,1.1,0,0,1-.93-2,11.51,11.51,0,0,0,3.9-3,1.1,1.1,0,0,1,1.55-.12A1.08,1.08,0,0,1,26,22.91C25.7,23.21,25.43,23.5,25.15,23.78Z"/></g></g></g></svg>