<svg xmlns="http://www.w3.org/2000/svg" xmlns:xlink="http://www.w3.org/1999/xlink" viewBox="0 0 1060.39 452.54"><defs><style>.cls-1,.cls-2{fill:none;}.cls-2{stroke:#201842;stroke-linecap:round;stroke-linejoin:round;stroke-width:16px;}.cls-3{fill:#201842;}.cls-13,.cls-4{fill:#fff;}.cls-5{fill:#9e0242;}.cls-6{clip-path:url(#clip-path);}.cls-7{fill:#ce2764;}.cls-8{fill:#3a3a3a;}.cls-10,.cls-11,.cls-12,.cls-13,.cls-14,.cls-15,.cls-16,.cls-17,.cls-18,.cls-19,.cls-8,.cls-9{fill-rule:evenodd;}.cls-9{fill:#ea4e57;}.cls-10{fill:#d84e5b;}.cls-11{fill:#f2707c;}.cls-12{fill:#14282d;}.cls-14{fill:#ed9d33;}.cls-15{fill:#199ef7;}.cls-16{fill:#e5a8ae;}.cls-17{fill:#9fd6e0;}.cls-18{fill:#bde2e8;}.cls-19{fill:#da8e3d;}</style><clipPath id="clip-path"><path class="cls-1" d="M544,197.33c9.53-5.34,29.14-23.81,40.47-13.69,2.94,2.63,4.46,6.53,5.18,10.41,5.11,27.79-23.92,42.1-45.67,49.68-10.41,3.62-21.32,6.46-32.33,5.92-19.41-.94-45.3-19.84-31.84-41.5,6-9.68,14.91-8.33,24.37-5.34C518.54,207.35,531,204.62,544,197.33Z"/></clipPath></defs><title>kredcar</title><g id="Layer_2" data-name="Layer 2"><g id="Layer_5" data-name="Layer 5"><path class="cls-2" d="M423.42,206.51c-18.89,95.42,160.19,139.55,183.89,98.41"/><path class="cls-2" d="M609.47,175.87c39.56-27.37,135.09,36,84.94,71.95"/><path class="cls-3" d="M533.06,52.49c-1.46-.09-2.91-.15-4.37-.2-27.87-.88-56.2,5.82-79.76,20.73-43.24,27.38-62.56,80.69-44.79,129.41,16.71,45.81,67.9,76.26,116.13,69.07,38.86-5.79,72.56-33.63,90.25-68.72,24-47.63,15.33-112.12-35.07-139.25C562.49,56.56,547.78,53.39,533.06,52.49Z"/><path class="cls-4" d="M508.23,194.12c6.75-3.82,12.62-9.55,15.56-16.73C538.32,141.8,483,119,459,140.78,426.61,170.13,474.58,213.15,508.23,194.12Z"/><path class="cls-4" d="M544.52,158.76c3.45,9.5,13.25,16.15,23.35,16.4s20-5.62,25.11-14.32,5.56-19.86,1.67-29.18C579.83,96.16,534.14,130.19,544.52,158.76Z"/><path d="M521.53,159.5a8.22,8.22,0,0,0-5-4.29c-11.79-4-22.46,11.06-11.14,19C515.59,181.42,525.26,167.48,521.53,159.5Z"/><path d="M548.27,146.49c-4.88,4.42-3,13.89,3.15,16.16s13.71-3.8,12.83-10.33-9.76-10.35-15.12-6.52"/><polygon class="cls-3" points="467.21 91.13 360.63 67 415.18 169.72 467.21 91.13"/><polygon class="cls-3" points="512.17 68.65 593.39 0 594.54 90.08 512.17 68.65"/><path class="cls-3" d="M609.77,159.68c2.49,1.65,4.59,4,4.63,6.83a9.66,9.66,0,0,1-1.87,5.23c-3.15,4.83-8.34,8.48-13.64,11.64a136.71,136.71,0,0,1-30.71,13.43c-6.47,1.93-13.28,3.4-19.85,2.74"/><path class="cls-5" d="M544,197.33c9.53-5.34,29.14-23.81,40.47-13.69,2.94,2.63,4.46,6.53,5.18,10.41,5.11,27.79-23.92,42.1-45.67,49.68-10.41,3.62-21.32,6.46-32.33,5.92-19.41-.94-45.3-19.84-31.84-41.5,6-9.68,14.91-8.33,24.37-5.34C518.54,207.35,531,204.62,544,197.33Z"/><g class="cls-6"><path class="cls-4" d="M574.35,195.32c-2.3,3.7-6.13,6.14-9.93,8.27C545.51,214.18,523.5,220.21,502,217.3c-4-.54-8.17-1.47-11.36-4s-5.15-7-3.62-10.77c1.85-4.54,7.45-6,12.29-6.79,17.23-2.82,34.86-4.77,51.36-10.8,5.19-1.9,16.27-10.59,21.61-9.53C579.24,176.82,577.06,191,574.35,195.32Z"/></g><g class="cls-6"><path class="cls-7" d="M554.82,231.28c3.76,1.63,7.5,3.58,10.2,6.67s4.18,7.5,2.84,11.37c-1.83,5.29-7.87,7.66-13.28,9.05-26.31,6.72-55.48,5-79-8.67-5.53-3.22-18.31-12.91-12.68-20.64,4.44-6.08,21.95-4.9,28.76-5.43C513,222,535,222.73,554.82,231.28Z"/></g></g><g id="Layer_2-2" data-name="Layer 2"><path class="cls-8" d="M381.74,187.83c32.12,4.2,40.28,22,42.75,52.63s-21.5,15.65-27.68,15.65-82.93-23-78.32-33.69,44.72-33,63.25-34.59Z"/><path class="cls-9" d="M90,407.65H957.69c69.68,0,102.7.09,102.7-32.69V309.48c0-23.23-193.46-78.41-259-78.41C757,199.94,660.29,149.54,621,140.06c-12.27-2.8-48.67,20.35-34.1,29.24,13,7.91,96.53,54.69,113.33,66.71-37.72,4-324.83,3.71-318.49-48.18-71.9-10.13-295,24-336.36,36.16-17.71,5.19-27.26,42.17-27.26,57.57C18.12,304.45,0,317.06,0,340.37c0,12.35,20.09,67.28,90,67.28Z"/><path class="cls-10" d="M19.44,269C99.82,275.71,401,295,584,295c144.54,0,348.22,8.41,476.37,27v53c0,32.78-33,32.69-102.7,32.69H90c-69.93,0-90-54.93-90-67.28,0-23.31,18.12-35.92,18.12-58.81A69.28,69.28,0,0,1,19.44,269Z"/><path class="cls-11" d="M367.58,200.19c-17.8-1.24-38-.33-54.53.57-30.8,1.73-61.77,4.78-92.32,8.4-35.34,4.2-70.67,9.15-105.67,15-13.34,2.23-26.77,4.62-40,7.25C68,233,58.56,229.92,49.25,222.92c49.42-12.85,259.93-44.56,331.17-35.25-3.7,8.4-7.9,13-12.84,12.52Z"/><path class="cls-12" d="M603,162c5,3,10.22,5.85,15.24,8.73,12,6.92,24,13.76,36,20.67q17.05,9.76,33.85,19.77c7.58,4.61,15.81,9.39,23,14.5a14.45,14.45,0,0,1,4.69,5.43H775.1c9.22,0,16.39-1.07,21.91-3-39.62-26.94-113-65.81-157-82-16.31,4.45-29.82,10-37.07,15.9Z"/><path class="cls-11" d="M216.85,256.44A106.32,106.32,0,0,1,323.18,362.77v44.88H110.53V362.77A106.32,106.32,0,0,1,216.85,256.44Z"/><path class="cls-11" d="M822.21,256.44A106.33,106.33,0,0,1,928.54,362.77v44.88H715.88V362.77A106.33,106.33,0,0,1,822.21,256.44Z"/><path class="cls-8" d="M822.21,272.91a89.82,89.82,0,1,1-89.86,89.86,89.8,89.8,0,0,1,89.86-89.86Z"/><path class="cls-13" d="M822.21,301.41a61.32,61.32,0,1,1-61.28,61.36,61.35,61.35,0,0,1,61.28-61.36Z"/><path class="cls-8" d="M822.21,308.08a54.65,54.65,0,1,1-54.69,54.69,54.66,54.66,0,0,1,54.69-54.69Z"/><path class="cls-13" d="M811.5,362.77H833l-3.46-60.95a65.73,65.73,0,0,0-14.66,0Z"/><path class="cls-13" d="M814.63,355.11l7.58,7.66,7.57,7.58,40.69-45.47a61.41,61.41,0,0,0-10.38-10.38Z"/><path class="cls-13" d="M822.21,352v21.5l60.86-3.38a54.57,54.57,0,0,0,0-14.74Z"/><path class="cls-13" d="M829.78,355.11l-7.57,7.66-7.58,7.58L860.09,411a61.41,61.41,0,0,0,10.38-10.38Z"/><path class="cls-13" d="M833,362.77H811.5l3.38,60.86a65.73,65.73,0,0,0,14.66,0Z"/><path class="cls-13" d="M829.78,370.35l-7.57-7.58-7.58-7.66-40.69,45.46A65.32,65.32,0,0,0,784.32,411Z"/><path class="cls-13" d="M822.21,373.48V352l-60.87,3.38a66.44,66.44,0,0,0,0,14.74Z"/><path class="cls-13" d="M814.63,370.35l7.58-7.58,7.57-7.66L784.32,314.5a65.32,65.32,0,0,0-10.38,10.38Z"/><path class="cls-8" d="M822.21,352a10.75,10.75,0,1,1,0,21.5,10.75,10.75,0,0,1,0-21.5Z"/><path class="cls-11" d="M425.89,220.78C409.5,236,395.08,259.4,387.34,280.32c-9.39,25.21-12.19,54.28,3.79,77.42,2,2,13.59,4.12,16.39,4.53,12.6,2.15,25.62,3.38,38.3,4.37,36.73,3,73.8,4.45,110.61,5.6,53,1.65,106.33,2.55,159.45,2.8v8.24c-53.21-.25-106.57-1.16-159.7-2.8-37.47-1.16-75.28-2.64-112.58-5.77-12.93-1.07-26.2-2.31-39-4.53-5.27-1-17-3-20.18-7.66a69.9,69.9,0,0,1-11.28-26.6c-4-19.44-.41-40,6.42-58.48,7.91-21.33,22.24-44.89,39-61,2.72.83,5.6,1.65,8.56,2.39a3.65,3.65,0,0,1-1.23,2Z"/><path class="cls-11" d="M696.28,236.34,733.59,304q-2.6,4-4.94,8.16l-40.53-73.55a3.76,3.76,0,0,1-.49-1.81c3.29-.17,6.26-.33,8.65-.5Z"/><path class="cls-14" d="M961.64,295.48l79.15,13.59c3.79.66,7,3.05,7,6.83V335a6.91,6.91,0,0,1-7,6.84H961.64a6.91,6.91,0,0,1-7-6.84V302.32c0-3.8,3.22-7.5,7-6.84Z"/><path class="cls-11" d="M1060.39,347.69h-55.84c-4.52,0-8.23,3.05-8.23,6.84V369.6c0,3.79,3.71,6.84,8.23,6.84h55.76a9.24,9.24,0,0,0,.08-1.48Z"/><path class="cls-14" d="M22.57,256.11H65.48c4.52,0,8.23,3.05,8.23,6.83v32c0,3.79-3.71,6.92-8.23,6.92H13.34c2.72-6.18,4.78-12.68,4.78-20.34,0-6.18,1.48-15.81,4.45-25.45Z"/><path class="cls-11" d="M462.37,252.4c17.22,0,31.22,3.3,31.22,7.33s-14,7.42-31.22,7.42-31.13-3.3-31.13-7.42,13.92-7.33,31.13-7.33Z"/><path class="cls-15" d="M620.75,162c5.11,3,10.22,5.85,15.24,8.73,12,6.92,24,13.76,36.07,20.67q16.94,9.76,33.77,19.77c7.66,4.61,15.9,9.39,23,14.5a14.45,14.45,0,0,1,4.69,5.43H793c2.8,0,5.52-.08,8-.25C765.63,206,697.76,169.47,651.72,150.6c-13.26,2.81-25,6.51-31,11.37Z"/><polygon class="cls-16" points="688.45 367.96 363.21 361.86 393.11 336.74 683.43 357.91 688.45 367.96"/><path class="cls-17" d="M410.24,362.77l-25.94-.5a69.67,69.67,0,0,1-6.84-12.35l6.67-5.6a61.65,61.65,0,0,0,7,13.42c2,2,13.59,4.12,16.39,4.53l2.72.5Z"/><polygon class="cls-16" points="253.67 245.07 735.15 282.05 616.06 279.09 257.63 255.12 253.67 245.07"/><path class="cls-18" d="M389.65,255.53l9,.66c-1.49,2.72-3,5.35-4.29,8.07l-8.89-.57q2-4.08,4.2-8.16Z"/><path class="cls-18" d="M431.49,258.74l58.39,4.45c-5.27,2.39-15.65,4-27.51,4-17.21,0-31.13-3.3-31.13-7.42a2.14,2.14,0,0,1,.25-1Z"/><path class="cls-19" d="M19.44,269l-.17.66v.41h-.08l-.08.66v.16l-.17.75v.49l-.08.17v.24l-.08.17v.57l-.08.09v.41l-.09.25v.4l-.08.17v.58l-.08.25V276l-.08.17v.57l-.09.25v.74l-.08.17v1.15l-.08.08v3.46a4.14,4.14,0,0,0-.08,1v.08a4.14,4.14,0,0,1-.08,1,3.69,3.69,0,0,1-.09,1v.08c0,.33-.08.58-.08.9v.09c-.08.33-.08.58-.17.9v.09c0,.33-.08.57-.08.9l-.08.08a3.25,3.25,0,0,1-.17.91v.08a2.52,2.52,0,0,1-.16.75l-.08.32-.09.66-.08.33-.16.58-.08.41-.17.5-.08.41-.08.16-.09.33v.08l-.08.25-.08.25-.08.33-.08.08-.09.25-.08.24-.08.33v.08l-.08.25-.09.25-.16.33-.17.58-.16.32-.16.58-.17.33-.17.58h-.08l-.33.9-.08.25-.25.58-.16.33-.25.57H65.48c4.52,0,8.23-3.13,8.23-6.92v-21.9C50.9,271.51,32.28,270.11,19.44,269Z"/><path class="cls-19" d="M954.64,310.14c33.44,3,64.9,6.34,93.15,10.13V335a6.91,6.91,0,0,1-7,6.84H961.64a6.91,6.91,0,0,1-7-6.84Z"/><path class="cls-8" d="M216.85,272.91A89.82,89.82,0,1,1,127,362.77a89.86,89.86,0,0,1,89.85-89.86Z"/><path class="cls-13" d="M216.85,301.41a61.32,61.32,0,1,1-61.35,61.36,61.34,61.34,0,0,1,61.35-61.36Z"/><path class="cls-8" d="M216.85,308.08a54.65,54.65,0,1,1-54.68,54.69,54.71,54.71,0,0,1,54.68-54.69Z"/><path class="cls-13" d="M206.15,362.77h21.41l-3.37-60.95a65.73,65.73,0,0,0-14.66,0Z"/><path class="cls-13" d="M209.28,355.11l7.57,7.66,7.58,7.58,40.69-45.47a65.32,65.32,0,0,0-10.38-10.38Z"/><path class="cls-13" d="M216.85,352v21.5l60.87-3.38a55.67,55.67,0,0,0,0-14.74Z"/><path class="cls-13" d="M224.43,355.11l-7.58,7.66-7.57,7.58L254.74,411a65.32,65.32,0,0,0,10.38-10.38Z"/><path class="cls-13" d="M227.56,362.77H206.15l3.38,60.86a65.73,65.73,0,0,0,14.66,0Z"/><path class="cls-13" d="M224.43,370.35l-7.58-7.58-7.57-7.66-40.69,45.46A62.16,62.16,0,0,0,179,411Z"/><path class="cls-13" d="M216.85,373.48V352L156,355.36a55.67,55.67,0,0,0,0,14.74Z"/><path class="cls-13" d="M209.28,370.35l7.57-7.58,7.58-7.66L179,314.5a62.16,62.16,0,0,0-10.38,10.38Z"/><path class="cls-8" d="M216.85,352a10.75,10.75,0,1,1-10.7,10.79A10.76,10.76,0,0,1,216.85,352Z"/></g><g id="Layer_6" data-name="Layer 6"><path class="cls-2" d="M415.39,169.32c-18.88,95.43,99,126,203,71"/></g></g></svg>