<svg xmlns="http://www.w3.org/2000/svg" xmlns:xlink="http://www.w3.org/1999/xlink" viewBox="0 0 552.18 576.07"><defs><style>.cls-1,.cls-10,.cls-22,.cls-24{fill:none;}.cls-2{fill:#ea4e57;}.cls-3{fill:#d84e5b;}.cls-4{fill:#00774f;}.cls-5{fill:#da8e3d;}.cls-6{fill:#b2b2b2;}.cls-7{fill:#929292;}.cls-8{fill:#c6c6c6;}.cls-9{fill:#261e19;}.cls-10{stroke:#982259;stroke-width:16px;}.cls-10,.cls-22{stroke-linecap:round;stroke-linejoin:round;}.cls-11{opacity:0.07;}.cls-12{fill:#982259;}.cls-13{fill:#cbd2d8;}.cls-14{fill:#b4b9bf;}.cls-15{fill:#878a8e;}.cls-16{opacity:0.5;}.cls-17{fill:#ffbd12;}.cls-18{fill:#d89727;}.cls-19{fill:#fdd655;}.cls-20{fill:#eea20e;}.cls-21{fill:#fff;}.cls-22{stroke:#000;stroke-width:9px;}.cls-23{clip-path:url(#clip-path);}.cls-24{stroke:#4c0328;stroke-miterlimit:10;stroke-width:3px;}.cls-25{fill:#4c0328;}</style><clipPath id="clip-path"><path class="cls-1" d="M318.24,320.65c8.37,3.33,16.5,9.61,25.35,10.77,13.17,1.72,26.93-8.05,34-19.22q3-4.8,6.05-9.62c2.83-4.52,6.62-9.56,11.21-12,11.94-6.24,21.72,11,22.84,22.77,1.21,12.61-2.3,24.76-7.75,34.88-12.36,22.93-34.11,37.95-59.32,36.59-21.49-1.17-43.1-13.93-55.3-35.66-6.43-11.45-4.86-24.38,6.1-29.09C307.28,317.57,312.81,318.49,318.24,320.65Z"/></clipPath></defs><title>darkkredimmo</title><g id="Calque_2" data-name="Calque 2"><g id="Calque_1-2" data-name="Calque 1"><g id="Layer_7" data-name="Layer 7"><rect class="cls-2" x="131.91" y="111.92" width="218.67" height="380.49"/><rect class="cls-3" x="89.07" y="492.42" width="304.35" height="16.27"/><rect class="cls-4" x="192.58" y="398.32" width="102.86" height="7.35"/><rect class="cls-5" x="204.61" y="405.67" width="78.99" height="72.56"/><rect class="cls-6" x="308.78" y="282.05" width="17.14" height="49.9" rx="6.93" ry="6.93"/><path class="cls-7" d="M344.44,305H318.73a3.06,3.06,0,0,1-3.07-3.05h0a3.06,3.06,0,0,1,3.06-3.06h25.72A3.06,3.06,0,0,1,347.5,302h0A3.06,3.06,0,0,1,344.44,305Z"/><path class="cls-8" d="M343.13,303.79H317.41a3.06,3.06,0,0,1-3.06-3.06h0a3.06,3.06,0,0,1,3.06-3.06h25.72a3.06,3.06,0,0,1,3.06,3.06h0A3.06,3.06,0,0,1,343.13,303.79Z"/><path class="cls-9" d="M319.55,311.44a1.84,1.84,0,1,1-3.68,0,1.83,1.83,0,0,1,1.83-1.85h0A1.83,1.83,0,0,1,319.55,311.44Z"/><polygon class="cls-9" points="316.63 312.51 316.22 315.62 319.21 315.62 318.81 312.51 316.63 312.51"/><rect class="cls-5" x="114.76" y="111.92" width="17.15" height="380.49"/><rect class="cls-5" x="114.87" y="95.7" width="252.87" height="17.15"/><rect class="cls-5" x="350.58" y="111.92" width="17.15" height="380.49"/><path class="cls-10" d="M22.81,190C-1,231.44,5,299.41,33.07,337c62.34,83.46,197.73,51.63,274.68,12.36"/><path class="cls-10" d="M441.24,312.25c39.8-27.53,76.8-62.74,94-109.31,25-67.94-5.65-120-52.09-169.92"/><g class="cls-11"><ellipse cx="395.07" cy="565.07" rx="120" ry="11"/></g><path class="cls-12" d="M364.37,188.13c-1.46-.09-2.93-.16-4.39-.21-28-.88-56.54,5.86-80.24,20.86C236.24,236.33,216.8,290,234.68,339c16.81,46,68.31,76.71,116.83,69.48,39.09-5.82,73-33.83,90.79-69.13,24.16-47.92,15.42-112.8-35.29-140.08C394,192.22,379.19,189,364.37,188.13Z"/><polygon class="cls-12" points="298.13 227 190.91 202.73 245.78 306.07 298.13 227"/><polygon class="cls-12" points="343.35 204.38 425.07 135.32 426.22 225.94 343.35 204.38"/><polyline class="cls-10" points="347.23 362.18 341.3 556.98 307.47 559.07"/><path class="cls-10" d="M364.17,363.74C401,400.77,451,525,451,525s17.62-8.77,33.86-16.06"/><path class="cls-13" d="M10.41,26.85A13.85,13.85,0,0,1,2.48,9h0l2.05.79A11.65,11.65,0,0,0,11.2,24.8h0Z"/><path class="cls-14" d="M25.16,23.78A14.08,14.08,0,0,1,21,26.6a13.81,13.81,0,0,1-10.6.25l.79-2.05A11.65,11.65,0,1,0,4.54,9.72h0l-2-.79a13.85,13.85,0,0,1,25.83,10A14.08,14.08,0,0,1,25.16,23.78Z"/><path class="cls-15" d="M52,35.38a3.86,3.86,0,0,0,.11-1.07h0a4,4,0,0,0-3-3.79l-.53-.13L49.67,26h0L51,20.93a2,2,0,0,0-1.44-2.43l-2.7-.7c-1.07-.27,51,1.61,50.73,2.67l-1.7,6.62-4.56-1.17,1.18-4.58a2,2,0,0,0-1.44-2.43l-3.87-1a2,2,0,0,0-2.43,1.43l-.58,2.27h0l-1.32,5.16L60.47,21l.58-2.29.31-1.2h0l.21-.81A12,12,0,0,0,53,2.17L46,.38A12,12,0,0,0,31.4,9l-.17.69h0l-.41,1.6-.52,2-.39-.1a4.17,4.17,0,0,0-.6-.1h-.78a4,4,0,0,0-1.15.29h-.05a2.43,2.43,0,0,0-.53.28h0a3.55,3.55,0,0,0-.94.83h0a3.23,3.23,0,0,0-.37.54h0A4,4,0,0,0,28,20.9l.39.1-1.11,4.3a12,12,0,0,0,8.63,14.58l7,1.78A12,12,0,0,0,57.45,33l1.1-4.3L47.09,38.26A4,4,0,0,0,52,35.41Zm1.89-20.62-1.13,4.38h0l-.37,1.44-.6,2.35h0L49.69,31.1A4.06,4.06,0,0,1,44.79,34l-7-1.78a4,4,0,0,1-2.8-4.9l1.1-4.3h0l.44-1.71L39.14,11A4,4,0,0,1,44,8.12L51,9.9a4.06,4.06,0,0,1,2.85,4.86Z"/><g class="cls-16"><path class="cls-15" d="M42.8,41.71l3.42-1.87,6.4-9.15a2.6,2.6,0,0,0,.59-.91,2.8,2.8,0,0,0-.58-2.93l-1.51-1.52.62-2.4.6-2.35.37-1.44,1.13-4.38a4,4,0,0,0-.28-2.69,14.17,14.17,0,0,1,1.79,1.51l5.29,5.33c.1.11.19.22.29.32L60.47,21l2.25.57a14.05,14.05,0,0,1,1.86,8.72l-6.1-1.56L57.38,33A12,12,0,0,1,42.8,41.71Z"/><path class="cls-15" d="M39.16,10.93a.08.08,0,0,0,0,.07L36.49,21.32,36.05,23,35,27.33a3.85,3.85,0,0,0,.19,2.48L31,33.92a2.31,2.31,0,0,0-.59.91,2.76,2.76,0,0,0,0,2,12,12,0,0,1-3.17-11.45L28.32,21l-.39-.1a4,4,0,0,1-2.94-3,5.5,5.5,0,0,1,2.27-2.36,5.56,5.56,0,0,1,.78-.37h.11a5.29,5.29,0,0,1,1.63-.31h.11a5.89,5.89,0,0,1,.84,0h.08a5.56,5.56,0,0,1,1.64.5l.09.05a5.07,5.07,0,0,1,.67.39l2.33-2.31A13.51,13.51,0,0,1,39.16,10.93Z"/></g><rect class="cls-17" x="69.99" y="55.32" width="12.3" height="8.35" rx="2.09" ry="2.09" transform="translate(-19.82 70.88) rotate(-44.77)"/><rect class="cls-17" x="78.67" y="64.12" width="14.39" height="7.1" rx="2.09" ry="2.09" transform="translate(-22.75 80.1) rotate(-44.77)"/><rect class="cls-18" x="76.58" y="62.24" width="5.01" height="10.07" transform="translate(-24.44 75.21) rotate(-44.77)"/><path class="cls-17" d="M32.39,45.38,27.1,40a4.23,4.23,0,0,1,0-5.9L39.64,21.72a4.23,4.23,0,0,1,5.9,0l5.29,5.34a4.23,4.23,0,0,1,0,5.9L38.3,45.4a4.26,4.26,0,0,1-5.91,0Zm-5.93,5.88a12.55,12.55,0,0,0,17.71.06L56.69,38.91a12.56,12.56,0,0,0,.07-17.71l-5.29-5.34a12.56,12.56,0,0,0-17.71-.07L21.25,28.21a12.54,12.54,0,0,0-.08,17.71Z"/><path class="cls-17" d="M44.55,39.19,50.81,33a4.23,4.23,0,0,0,0-5.9l-5.29-5.34a4.23,4.23,0,0,0-5.9,0L33.36,28,27.5,22l6.26-6.21a12.56,12.56,0,0,1,17.71.07l5.29,5.34a12.57,12.57,0,0,1-.07,17.7l-6.26,6.21Z"/><path class="cls-19" d="M47.32,20l5.29,5.33a6.77,6.77,0,0,1,0,9.45l-5.46,5.42,3.07-6.58.63-.62a4.23,4.23,0,0,0,0-5.9l-5.29-5.34Z"/><path class="cls-19" d="M45.54,21.74a4.23,4.23,0,0,0-5.9,0l-.53.52-6.7,3.13L37.88,20a6.76,6.76,0,0,1,9.44,0Z"/><path class="cls-19" d="M35.79,24.71l-5.62-5.94A4.18,4.18,0,0,0,24,24.37l.28.28,5.63,5.94Z"/><rect class="cls-20" x="31.77" y="16.92" width="5.15" height="8.35" transform="translate(-4.89 30.31) rotate(-44.78)"/><polygon class="cls-20" points="52.51 43.06 46.63 37.13 51.95 35.38 56.06 39.53 52.51 43.06"/><path class="cls-18" d="M73.25,65.31l-2.94-3a2.08,2.08,0,0,1,0-3l4-4,5.88,5.93-4,4A2.09,2.09,0,0,1,73.25,65.31Z"/><path class="cls-18" d="M81.79,73.76l-2.06-2.07a2.1,2.1,0,0,1,0-3l0,0,3.37-3.34,5,5-3.36,3.34A2.1,2.1,0,0,1,81.79,73.76Z"/><path class="cls-20" d="M25.17,18.07a4.14,4.14,0,0,1,5,.7L36.35,25l-2.18,2.15Z"/><path class="cls-17" d="M79.22,80.06,42.76,43.32a4.56,4.56,0,0,1-.52-.66l5.52-5.48a5.48,5.48,0,0,1,.64.55L84.85,74.47c1.62,1.64,1.91,4,.27,5.61a4.17,4.17,0,0,1-5.89,0Z"/><path class="cls-20" d="M45.34,38.4l2.12-2.09a4,4,0,0,1,.64.53L85.15,74.18a4.17,4.17,0,0,1,.65,5Z"/><path class="cls-20" d="M30.61,47.14l-5.29-5.33a6.76,6.76,0,0,1,0-9.45l12-11.89,1.76,1.77-12,11.9a4.23,4.23,0,0,0,0,5.9l5.29,5.34Z"/><path class="cls-20" d="M32.39,45.38a4.26,4.26,0,0,0,5.91,0l11.88-11.8L52,35.38,40.06,47.18a6.77,6.77,0,0,1-9.45,0Z"/><path class="cls-18" d="M25.62,20.9a1.41,1.41,0,1,0,.79,1.82h0A1.41,1.41,0,0,0,25.62,20.9Z"/><path class="cls-14" d="M25.14,23.79a14,14,0,0,1-3.84,2.68,1.12,1.12,0,0,1-1.47-.54,1.1,1.1,0,0,1,.54-1.46,11.56,11.56,0,0,0,3.9-3,1.1,1.1,0,0,1,1.55-.12A1.08,1.08,0,0,1,26,22.86l0,.06Z"/></g><path class="cls-21" d="M324.26,315.32c5.95-3.44,11.11-8.64,13.65-15.24,12.6-32.64-36.51-54.4-57.6-34.65C251.85,292.08,294.63,332.42,324.26,315.32Z"/><path class="cls-21" d="M356.12,283.18a23.74,23.74,0,0,0,20.79,15.44c8.94.36,17.64-4.91,22.11-12.87s4.78-18.26,1.26-26.91C386.9,225.89,346.72,256.68,356.12,283.18Z"/><path d="M328.75,279.17a7.67,7.67,0,0,0-4.48-4c-10.47-3.88-19.8,9.91-9.72,17.4C323.67,299.32,332.12,286.59,328.75,279.17Z"/><path d="M361.77,267.57c-6,5.61-.27,20.55,11.16,13.67,9-10.06-3.81-19.14-10.4-14.3"/><path class="cls-12" d="M265.15,300.38l78.78,8.25,0,21.76c0,1.6-.07,3.39-1.18,4.47a5.27,5.27,0,0,1-3.06,1.17c-26.47,4-54.61-3.3-76.58-19.91-3.86-2.91-7.94-7.26-6.84-12"/><path class="cls-12" d="M359.19,299.07q23.08-15,45.64-30.78,1.49,4.79,3,9.56c1.75,5.65,3.51,11.73,1.88,17.34-2.33,8.05-10.92,12.57-17.77,15.41a68.94,68.94,0,0,1-19.14,4.89,20,20,0,0,1-9.14-.71c-3-1.12-5.67-3.72-6.17-7"/><path class="cls-12" d="M278.15,247.53c-4.17.14-17.57-1.14-15.53,5.88,1.91,6.59,12.74,7.49,17.62,8.5,10.37,2.15,20.61,4.93,30.85,7.7l30.32,8.21-3.6-21.65a5.25,5.25,0,0,0-.9-2.55,4.8,4.8,0,0,0-3.14-1.3"/><path class="cls-12" d="M348.58,278.84,394.12,238a17.06,17.06,0,0,0-16.62-7.07c-5.8,1.06-10.52,5.23-14.64,9.54a127.35,127.35,0,0,0-15.66,20.08c-2.26,3.57-4.43,7.86-3.2,12"/><polyline class="cls-22" points="266.71 260.3 338.82 276.84 337.6 268.62"/><polyline class="cls-22" points="351.41 266.01 352.78 276.55 399.75 228.9"/><path class="cls-21" d="M318.24,320.65c8.37,3.33,16.5,9.61,25.35,10.77,13.17,1.72,26.93-8.05,34-19.22q3-4.8,6.05-9.62c2.83-4.52,6.62-9.56,11.21-12,11.94-6.24,21.72,11,22.84,22.77,1.21,12.61-2.3,24.76-7.75,34.88-12.36,22.93-34.11,37.95-59.32,36.59-21.49-1.17-43.1-13.93-55.3-35.66-6.43-11.45-4.86-24.38,6.1-29.09C307.28,317.57,312.81,318.49,318.24,320.65Z"/><g class="cls-23"><polyline class="cls-24" points="298.32 339.77 315.39 330.95 320.7 358.06 339.65 341.96 361.58 368.33 373.78 333.57 396.47 346.47 388.32 317.75 407.33 326.7 405.73 294.29"/><polygon class="cls-25" points="294.31 306.91 304.58 336.85 292.14 358.5 275.48 329.56 294.31 306.91"/><polygon class="cls-25" points="391.3 277.74 405.69 308.16 428.68 315.68 429.22 279.85 391.3 277.74"/></g></g></g></svg>