<svg xmlns="http://www.w3.org/2000/svg" xmlns:xlink="http://www.w3.org/1999/xlink" viewBox="0 0 1060.39 462.08"><defs><style>.cls-1{fill:#982259;}.cls-2,.cls-22,.cls-6,.cls-8{fill:none;}.cls-3{clip-path:url(#clip-path);}.cls-4{opacity:0.07;}.cls-15,.cls-5{fill:#fff;}.cls-6{stroke:#000;stroke-width:9px;}.cls-22,.cls-6{stroke-linecap:round;stroke-linejoin:round;}.cls-7{clip-path:url(#clip-path-3);}.cls-8{stroke:#4c0328;stroke-miterlimit:10;stroke-width:3px;}.cls-9{fill:#4c0328;}.cls-10{fill:#3a3a3a;}.cls-10,.cls-11,.cls-12,.cls-13,.cls-14,.cls-15,.cls-16,.cls-17,.cls-18,.cls-19,.cls-20,.cls-21{fill-rule:evenodd;}.cls-11{fill:#ea4e57;}.cls-12{fill:#d84e5b;}.cls-13{fill:#f2707c;}.cls-14{fill:#14282d;}.cls-16{fill:#ed9d33;}.cls-17{fill:#199ef7;}.cls-18{fill:#e5a8ae;}.cls-19{fill:#9fd6e0;}.cls-20{fill:#bde2e8;}.cls-21{fill:#da8e3d;}.cls-22{stroke:#982259;stroke-width:16px;}</style><clipPath id="clip-path"><path class="cls-1" d="M544,197.33c9.53-5.34,29.14-23.81,40.47-13.69,2.94,2.63,4.46,6.53,5.18,10.41,5.11,27.79-23.92,42.1-45.67,49.68-10.41,3.62-21.32,6.46-32.33,5.92-19.41-.94-45.3-19.84-31.84-41.5,6-9.68,14.91-8.33,24.37-5.34C518.54,207.35,531,204.62,544,197.33Z"/></clipPath><clipPath id="clip-path-3"><path class="cls-2" d="M498.2,184.89c6.36,4.82,11.56,11.82,19,15.12,11.15,4.92,26.5,1.29,36.35-5.24q4.24-2.81,8.47-5.63c4-2.65,9-5.44,13.8-6,12.61-1.46,15.74,14.32,13,23.52-3,9.89-10,18.14-18.09,24.31-18.35,14-42.49,19.4-64.43,11.45-18.71-6.78-33.8-22.38-37.65-42.19-2-10.44,3.52-19.81,14.77-20.37C489.46,179.56,494.07,181.77,498.2,184.89Z"/></clipPath></defs><title>kredcardark</title><g id="Layer_2" data-name="Layer 2"><g id="Layer_8" data-name="Layer 8"><path class="cls-1" d="M423.42,206.51c-18.89,95.42,160.19,139.55,183.89,98.4"/><path class="cls-1" d="M609.47,175.87c39.56-27.37,135.09,36,84.94,71.95"/><path class="cls-1" d="M508.23,194.12c6.75-3.82,12.62-9.55,15.56-16.73C538.32,141.8,483,119,459,140.78,426.61,170.13,474.58,213.15,508.23,194.12Z"/><path class="cls-1" d="M544.52,158.76c3.45,9.5,13.25,16.15,23.35,16.4s20-5.62,25.11-14.32,5.56-19.86,1.67-29.18C579.83,96.16,534.14,130.19,544.52,158.76Z"/><path class="cls-1" d="M521.53,159.5a8.22,8.22,0,0,0-5-4.29c-11.79-4-22.46,11.06-11.14,19C515.59,181.42,525.26,167.48,521.53,159.5Z"/><path class="cls-1" d="M548.27,146.49c-4.88,4.42-3,13.89,3.15,16.16s13.71-3.8,12.83-10.33-9.76-10.35-15.12-6.52"/><path class="cls-1" d="M594.38,77.15,593.39,0l-62,52.41-2.69-.12c-27.87-.88-56.2,5.82-79.76,20.73a112.07,112.07,0,0,0-14.27,10.74L360.63,67l39.62,74.61a107.48,107.48,0,0,0,3.89,60.82c16.71,45.81,67.9,76.26,116.13,69.07,38.86-5.79,72.56-33.63,90.25-68.72C631.13,161.89,627.65,108.59,594.38,77.15Z"/><path class="cls-1" d="M609.77,159.68c2.49,1.65,4.59,4,4.63,6.83a9.66,9.66,0,0,1-1.87,5.23c-3.15,4.83-8.34,8.48-13.64,11.64a136.71,136.71,0,0,1-30.71,13.43c-6.47,1.93-13.28,3.4-19.85,2.74"/><path class="cls-1" d="M544,197.33c9.53-5.34,29.14-23.81,40.47-13.69,2.94,2.63,4.46,6.53,5.18,10.41,5.11,27.79-23.92,42.1-45.67,49.68-10.41,3.62-21.32,6.46-32.33,5.92-19.41-.94-45.3-19.84-31.84-41.5,6-9.68,14.91-8.33,24.37-5.34C518.54,207.35,531,204.62,544,197.33Z"/><path class="cls-1" d="M544,197.33c9.53-5.34,29.14-23.81,40.47-13.69,2.94,2.63,4.46,6.53,5.18,10.41,5.11,27.79-23.92,42.1-45.67,49.68-10.41,3.62-21.32,6.46-32.33,5.92-19.41-.94-45.3-19.84-31.84-41.5,6-9.68,14.91-8.33,24.37-5.34C518.54,207.35,531,204.62,544,197.33Z"/><g class="cls-3"><path class="cls-1" d="M574.35,195.32c-2.3,3.7-6.13,6.14-9.93,8.27C545.51,214.18,523.5,220.21,502,217.3c-4-.54-8.17-1.47-11.36-4s-5.15-7-3.62-10.77c1.85-4.54,7.45-6,12.29-6.79,17.23-2.82,34.86-4.77,51.36-10.8,5.19-1.9,16.27-10.59,21.61-9.53C579.24,176.82,577.06,191,574.35,195.32Z"/></g><path class="cls-1" d="M544,197.33c9.53-5.34,29.14-23.81,40.47-13.69,2.94,2.63,4.46,6.53,5.18,10.41,5.11,27.79-23.92,42.1-45.67,49.68-10.41,3.62-21.32,6.46-32.33,5.92-19.41-.94-45.3-19.84-31.84-41.5,6-9.68,14.91-8.33,24.37-5.34C518.54,207.35,531,204.62,544,197.33Z"/><g class="cls-3"><path class="cls-1" d="M554.82,231.28c3.76,1.63,7.5,3.58,10.2,6.67s4.18,7.5,2.84,11.37c-1.83,5.29-7.87,7.66-13.28,9.05-26.31,6.72-55.48,5-79-8.67-5.53-3.22-18.31-12.91-12.68-20.64,4.44-6.08,21.95-4.9,28.76-5.43C513,222,535,222.73,554.82,231.28Z"/></g><g class="cls-4"><ellipse cx="217.75" cy="452.58" rx="81.5" ry="9.5"/></g><g class="cls-4"><ellipse cx="820.89" cy="447.82" rx="81.5" ry="9.5"/></g><path class="cls-5" d="M511.32,185.52c7.56-2,14.73-6.1,19.42-12.35,23.21-31-24.87-67.25-53.81-52.15C437.89,141.38,473.7,195.5,511.32,185.52Z"/><path class="cls-5" d="M555.68,160.29c1,10.13,8.81,19.1,18.59,21.91s20.89-.39,28.11-7.56a33.43,33.43,0,0,0,9-28C606,108.26,552.83,129.81,555.68,160.29Z"/><path class="cls-1" d="M450.23,153.74,535,183.81l-6.16,22.94c-.45,1.69-1,3.55-2.57,4.39a6.35,6.35,0,0,1-3.72.4,119.07,119.07,0,0,1-79-41.75c-3.43-4.12-6.71-9.81-4.14-14.5"/><path class="cls-1" d="M554.55,177.87q29.79-9.51,59.21-20.05l.55,10.88c.33,6.42.54,13.31-2.85,18.78-3.78,6.1-11.14,8.93-18.17,10.42a81.87,81.87,0,0,1-28.14,1c-3.55-.49-7.18-1.26-10.17-3.26s-5.21-5.46-4.83-9"/><path class="cls-1" d="M509.77,133.78,541,150.66l2.18-23.8a4.07,4.07,0,0,0-3.38-5.15c-19.62-7.84-39.38-15.75-60.12-20.14-4.64-1-19.09-6-18.84,2,.24,7.46,12,11.34,17.06,13.73C488.7,122.37,499.24,128.08,509.77,133.78Z"/><path class="cls-1" d="M548.58,153.67l62-30.69a19.42,19.42,0,0,0-16.37-12c-6.71-.44-13.12,2.67-18.9,6.09a146.17,146.17,0,0,0-23,16.91c-3.51,3.16-7.12,7.08-6.94,11.8"/><path class="cls-5" d="M498.2,184.89c6.36,4.82,11.56,11.82,19,15.12,11.15,4.92,26.5,1.29,36.35-5.24q4.24-2.81,8.47-5.63c4-2.65,9-5.44,13.8-6,12.61-1.46,15.74,14.32,13,23.52-3,9.89-10,18.14-18.09,24.31-18.35,14-42.49,19.4-64.43,11.45-18.71-6.78-33.8-22.38-37.65-42.19-2-10.44,3.52-19.81,14.77-20.37C489.46,179.56,494.07,181.77,498.2,184.89Z"/><polyline class="cls-6" points="463.36 111.92 538.36 148.92 539.36 139.92"/><polyline class="cls-6" points="555.36 140.92 553.88 152.4 619.36 114.92"/><g class="cls-7"><polyline class="cls-8" points="474.36 193.92 492.36 191.92 488.36 213.92 510.36 206.92 521.36 232.92 543.36 209.92 559.36 225.92 561.36 201.92 575.36 213.92 584.36 188.92"/><polygon class="cls-9" points="481.36 167.92 480.86 193.42 462.86 206.42 457.36 179.92 481.36 167.92"/><polygon class="cls-9" points="576.86 172.42 579.86 199.42 597.86 211.42 609.86 184.42 576.86 172.42"/></g><path d="M534.29,157.89a8.27,8.27,0,0,0-3.33-5.72c-9.79-7.71-24.86,3-16.81,14.26C521.43,176.61,535.17,166.66,534.29,157.89Z"/><path d="M563.84,154.47c-6.08,2.55-7.47,12.11-2.38,16.29s14.19,1,15.52-5.49-5.78-13-12.1-11.17"/><path class="cls-10" d="M381.74,187.83c32.12,4.2,40.28,22,42.75,52.63s-21.5,15.65-27.68,15.65-82.93-23-78.32-33.69,44.72-33,63.25-34.59Z"/><path class="cls-11" d="M90,407.65H957.69c69.68,0,102.7.09,102.7-32.69V309.48c0-23.23-193.46-78.41-259-78.41C757,199.94,660.29,149.54,621,140.06c-12.27-2.8-48.67,20.35-34.1,29.24,13,7.91,96.53,54.69,113.33,66.71-37.72,4-324.83,3.71-318.49-48.18-71.9-10.13-295,24-336.36,36.16-17.71,5.19-27.26,42.17-27.26,57.57C18.12,304.45,0,317.06,0,340.37c0,12.35,20.09,67.28,90,67.28Z"/><path class="cls-12" d="M19.44,269C99.82,275.71,401,295,584,295c144.54,0,348.22,8.41,476.37,27v53c0,32.78-33,32.69-102.7,32.69H90c-69.93,0-90-54.93-90-67.28,0-23.31,18.12-35.92,18.12-58.81A69.28,69.28,0,0,1,19.44,269Z"/><path class="cls-13" d="M367.58,200.19c-17.8-1.24-38-.33-54.53.57-30.8,1.73-61.77,4.78-92.32,8.4-35.34,4.2-70.67,9.15-105.67,15-13.34,2.23-26.77,4.62-40,7.25C68,233,58.56,229.92,49.25,222.92c49.42-12.85,259.93-44.56,331.17-35.25-3.7,8.4-7.9,13-12.84,12.52Z"/><path class="cls-14" d="M603,162c5,3,10.22,5.85,15.24,8.73,12,6.92,24,13.76,36,20.67q17.05,9.76,33.85,19.77c7.58,4.61,15.81,9.39,23,14.5a14.45,14.45,0,0,1,4.69,5.43H775.1c9.22,0,16.39-1.07,21.91-3-39.62-26.94-113-65.81-157-82-16.31,4.45-29.82,10-37.07,15.9Z"/><path class="cls-13" d="M216.85,256.44A106.32,106.32,0,0,1,323.18,362.77v44.88H110.53V362.77A106.32,106.32,0,0,1,216.85,256.44Z"/><path class="cls-13" d="M822.21,256.44A106.33,106.33,0,0,1,928.54,362.77v44.88H715.88V362.77A106.33,106.33,0,0,1,822.21,256.44Z"/><path class="cls-10" d="M822.21,272.91a89.82,89.82,0,1,1-89.86,89.86,89.8,89.8,0,0,1,89.86-89.86Z"/><path class="cls-15" d="M822.21,301.41a61.32,61.32,0,1,1-61.28,61.36,61.35,61.35,0,0,1,61.28-61.36Z"/><path class="cls-10" d="M822.21,308.08a54.65,54.65,0,1,1-54.69,54.69,54.66,54.66,0,0,1,54.69-54.69Z"/><path class="cls-15" d="M811.5,362.77H833l-3.46-60.95a65.73,65.73,0,0,0-14.66,0Z"/><path class="cls-15" d="M814.63,355.11l7.58,7.66,7.57,7.58,40.69-45.47a61.41,61.41,0,0,0-10.38-10.38Z"/><path class="cls-15" d="M822.21,352v21.49l60.86-3.37a54.57,54.57,0,0,0,0-14.74Z"/><path class="cls-15" d="M829.78,355.11l-7.57,7.66-7.58,7.58L860.09,411a61.41,61.41,0,0,0,10.38-10.38Z"/><path class="cls-15" d="M833,362.77H811.5l3.38,60.86a65.73,65.73,0,0,0,14.66,0Z"/><path class="cls-15" d="M829.78,370.35l-7.57-7.58-7.58-7.66-40.69,45.46A65.32,65.32,0,0,0,784.32,411Z"/><path class="cls-15" d="M822.21,373.47V352l-60.87,3.38a66.44,66.44,0,0,0,0,14.74Z"/><path class="cls-15" d="M814.63,370.35l7.58-7.58,7.57-7.66L784.32,314.5a65.32,65.32,0,0,0-10.38,10.38Z"/><path class="cls-10" d="M822.21,352a10.75,10.75,0,1,1,0,21.49,10.75,10.75,0,0,1,0-21.49Z"/><path class="cls-13" d="M425.89,220.78C409.5,236,395.08,259.4,387.34,280.32c-9.39,25.21-12.19,54.28,3.79,77.42,2,2,13.59,4.12,16.39,4.53,12.6,2.15,25.62,3.38,38.3,4.37,36.73,3,73.8,4.45,110.61,5.6,53,1.65,106.33,2.55,159.45,2.8v8.24c-53.21-.25-106.57-1.16-159.7-2.81-37.47-1.15-75.28-2.63-112.58-5.76-12.93-1.07-26.2-2.31-39-4.53-5.27-1-17-3-20.18-7.66a69.9,69.9,0,0,1-11.28-26.6c-4-19.44-.41-40,6.42-58.48,7.91-21.33,22.24-44.89,39-61,2.72.83,5.6,1.65,8.56,2.39a3.65,3.65,0,0,1-1.23,2Z"/><path class="cls-13" d="M696.28,236.34,733.59,304q-2.6,4-4.94,8.16l-40.53-73.55a3.76,3.76,0,0,1-.49-1.81c3.29-.17,6.26-.33,8.65-.5Z"/><path class="cls-16" d="M961.64,295.48l79.15,13.59c3.79.66,7,3.05,7,6.83V335a6.91,6.91,0,0,1-7,6.84H961.64a6.91,6.91,0,0,1-7-6.84V302.32c0-3.8,3.22-7.5,7-6.84Z"/><path class="cls-13" d="M1060.39,347.69h-55.84c-4.52,0-8.23,3.05-8.23,6.84V369.6c0,3.79,3.71,6.84,8.23,6.84h55.76a9.24,9.24,0,0,0,.08-1.48Z"/><path class="cls-16" d="M22.57,256.11H65.48c4.52,0,8.23,3.05,8.23,6.83v32c0,3.79-3.71,6.92-8.23,6.92H13.34c2.72-6.18,4.78-12.68,4.78-20.34,0-6.18,1.48-15.81,4.45-25.45Z"/><path class="cls-13" d="M462.37,252.4c17.22,0,31.22,3.3,31.22,7.33s-14,7.42-31.22,7.42-31.13-3.3-31.13-7.42,13.92-7.33,31.13-7.33Z"/><path class="cls-17" d="M620.75,162c5.11,3,10.22,5.85,15.24,8.73,12,6.92,24,13.76,36.07,20.67q16.94,9.76,33.77,19.77c7.66,4.61,15.9,9.39,23,14.5a14.45,14.45,0,0,1,4.69,5.43H793c2.8,0,5.52-.08,8-.25C765.63,206,697.76,169.47,651.72,150.6c-13.26,2.81-25,6.51-31,11.37Z"/><polygon class="cls-18" points="688.45 367.96 363.21 361.86 393.11 336.74 683.43 357.91 688.45 367.96"/><path class="cls-19" d="M410.24,362.77l-25.94-.5a69.67,69.67,0,0,1-6.84-12.35l6.67-5.6a61.65,61.65,0,0,0,7,13.42c2,2,13.59,4.12,16.39,4.53l2.72.5Z"/><polygon class="cls-18" points="253.67 245.07 735.15 282.05 616.06 279.09 257.63 255.12 253.67 245.07"/><path class="cls-20" d="M389.65,255.53l9,.66c-1.49,2.72-3,5.35-4.29,8.07l-8.89-.57q2-4.08,4.2-8.16Z"/><path class="cls-20" d="M431.49,258.74l58.39,4.45c-5.27,2.39-15.65,4-27.51,4-17.21,0-31.13-3.3-31.13-7.42a2.14,2.14,0,0,1,.25-1Z"/><path class="cls-21" d="M19.44,269l-.17.66v.41h-.08l-.08.66v.16l-.17.75v.49l-.08.17v.24l-.08.17v.57l-.08.09v.41l-.09.25v.4l-.08.17v.58l-.08.25V276l-.08.17v.57l-.09.25v.74l-.08.17v1.15l-.08.08v3.46a4.14,4.14,0,0,0-.08,1v.08a4.14,4.14,0,0,1-.08,1,3.69,3.69,0,0,1-.09,1v.08c0,.33-.08.58-.08.9v.09c-.08.33-.08.58-.17.9v.09c0,.33-.08.57-.08.9l-.08.08a3.25,3.25,0,0,1-.17.91v.08a2.39,2.39,0,0,1-.16.74l-.08.33-.09.66-.08.33-.16.58-.08.41-.17.5-.08.41-.08.16-.09.33v.08l-.08.25-.08.25-.08.33-.08.08-.09.24-.08.25-.08.33v.08l-.08.25-.09.25-.16.33-.17.57-.16.33-.16.58-.17.33-.17.58h-.08l-.33.9-.08.25-.25.58-.16.33-.25.57H65.48c4.52,0,8.23-3.13,8.23-6.92v-21.9C50.9,271.51,32.28,270.11,19.44,269Z"/><path class="cls-21" d="M954.64,310.14c33.44,3,64.9,6.34,93.15,10.13V335a6.91,6.91,0,0,1-7,6.84H961.64a6.91,6.91,0,0,1-7-6.84Z"/><path class="cls-10" d="M306.66,361.79a89.81,89.81,0,1,1-90.79-88.91,89.86,89.86,0,0,1,90.79,88.91Z"/><path class="cls-15" d="M216.85,301.41a61.32,61.32,0,1,1-61.35,61.36,61.34,61.34,0,0,1,61.35-61.36Z"/><path class="cls-10" d="M271.5,362.15A54.65,54.65,0,1,1,216.24,308a54.71,54.71,0,0,1,55.26,54.11Z"/><path class="cls-15" d="M216.7,352l.11,10.71.12,10.7,60.9-4a68.25,68.25,0,0,0,.34-7.34,73.33,73.33,0,0,0-.49-7.32Z"/><path class="cls-15" d="M224.39,355.07l-7.58,7.66-7.5,7.65,45.89,40.21a65.23,65.23,0,0,0,10.27-10.48Z"/><path class="cls-15" d="M227.6,362.61l-10.79.12-10.7.11,4,60.82a53.05,53.05,0,0,0,7.34.42,54.84,54.84,0,0,0,7.4-.57Z"/><path class="cls-15" d="M224.55,370.22l-7.74-7.49-7.65-7.5L169,401.12a64.89,64.89,0,0,0,10.49,10.26Z"/><path class="cls-15" d="M216.93,373.43l-.12-10.7L216.7,352l-60.82,4a68.49,68.49,0,0,0-.34,7.34,73.13,73.13,0,0,0,.49,7.32Z"/><path class="cls-15" d="M209.31,370.38l7.5-7.65,7.58-7.66-45.88-40.21a61.42,61.42,0,0,0-10.27,10.49Z"/><path class="cls-15" d="M206.11,362.84l10.7-.11,10.79-.12-4-60.82a53.59,53.59,0,0,0-7.42-.42,56.25,56.25,0,0,0-7.32.57Z"/><path class="cls-15" d="M209.16,355.23l7.65,7.5,7.74,7.49,40.13-45.88a62.16,62.16,0,0,0-10.49-10.27Z"/><path class="cls-10" d="M216.85,352a10.75,10.75,0,1,1-10.7,10.79A10.76,10.76,0,0,1,216.85,352Z"/><path class="cls-22" d="M415.39,169.32c-18.88,95.43,99,126,203,71"/></g></g></svg>