<svg xmlns="http://www.w3.org/2000/svg" viewBox="0 0 474.54 856"><defs><style>.cls-1{fill:#1a133a;}.cls-2{fill:#fff;}</style></defs><title>kredneutral</title><g id="Calque_2" data-name="Calque 2"><g id="Calque_2-2" data-name="Calque 2"><path class="cls-1" d="M429.47,580.14c-3.27-99.76-3.42-199.64-4.32-299.47-.1-11.7,2.06-23.74,5.17-35.08,13.19-48.08,6.18-97.8-15.45-138.92l13.58-88.24L368.07,49.29a165.38,165.38,0,0,0-63.77-32C264.19,7.17,219.84,14.35,180.65,34.8L106.24,0l5.15,92.91q-4.73,6.16-9,12.73c-33.09,50.8-37.64,103.9-12,159.37a68.93,68.93,0,0,1,6,23.19c5.22,68.55.81,136.72-10.29,204.41-2.32,14.16-6.35,28.89-13.32,41.25-13.68,24.25-30.11,46.94-45,70.52-1.64,2.59-.79,6.77-1.09,10.21,3.56.15,8.2,1.8,10.47.16,6.41-4.64,12-10.45,17.6-16.16,3-3.05,5.18-6.83,9.51-12.68,11.55,34.76-8.65,63.44-10,93.41l8,2.37c4.71-9.52,9.81-18.86,14-28.59,4.4-10.16,8-20.7,11.88-31.08l5.41,1.67Q95.78,658.35,98,693l6.46.19c12.91-20.94,2.11-47,12.49-69,3.88,10.2,5.4,20.69,8.44,30.72,2.86,9.41-.91,22.31,17.58,29.37-3-23.87-5.61-44.7-8.23-65.54l2.9-.74,18.87,34.51,7.16-2.6c-17-50.92-34.07-102-32.72-156.07,1.33-53.7,4.52-107.34,7-164.51,12.21,8.9,20,13.88,26.88,19.92,3.22,2.83,6.41,7.65,6.58,11.69,4.69,111.18,9.46,222.35,13.05,333.57,1,30.92-10.54,41.35-41.79,44.17-5.94.54-11.94.47-17.89,1-31.87,2.75-63.8,5-95.55,8.83-8,1-16.56,5.72-22.74,11.15-10.78,9.48-7.78,18.89,6.37,21.26a214.09,214.09,0,0,0,34,2.62c53.17.25,106.35.15,159.53.05,5.94,0,11.89-.79,17.83-1.26,8.66-.68,11.17-4.76,11-13.9Q232.56,581.21,230.79,394c-.06-4.72.55-9.45.94-15.65L252,381.21c.44,5,.9,8.7,1.07,12.42,4.1,85.66,8.36,171.32,12.15,257,1.65,37.42,3.07,74.87,3.25,112.32.18,35.56-9.41,45.39-44.56,48.41-18.37,1.58-36.91,1.38-55.25,3.25-22.06,2.26-44.29,4.57-65.8,9.63-7.33,1.73-12.69,11.86-19,18.14L99.83,856H311.62c2.21-6,6.38-12,6.35-18q-1.1-198.71-3-397.4c-.05-5.43.49-10.88.24-16.29-1.44-30.83,1.19-58.6,37.56-70.1,10.49-3.32,18.78-13.58,30.16-22.24,1.22,28.18,3.43,54,3.24,79.79-.44,61.89-1.17,123.81-3.75,185.63-.57,13.62-8.69,27.16-14.42,40.26-5.61,12.79-12.74,24.9-18.95,37.44a234,234,0,0,0-10.46,23.41c-1.62,4.47-1.52,9.57-2.19,14.38,4.85-1.18,11.32-.83,14.22-3.87,7.21-7.57,12.8-16.69,20.28-26.88,15.7,31.57-4.48,62.54-.43,97.12,22.1-19.26,16.3-45.08,32.27-63.88q5.49,34.83,11,69.66l6.94-.69c11.24-22.24-3.13-46.8,6.39-70.9q10.14,29.24,20.27,58.45l6.73-2.22c5-21.79-9.38-41.32-7.41-63.93,4.16,7,7.61,14.54,12.7,20.77,4,4.93,10.06,8.21,15.21,12.23v-13C446.8,681.09,431.18,632,429.47,580.14Z"/><circle class="cls-2" cx="215.29" cy="166.08" r="24.08"/><circle class="cls-2" cx="298.4" cy="166.08" r="24.08"/></g></g></svg>