<svg xmlns="http://www.w3.org/2000/svg" viewBox="0 0 104.19 99.8"><defs><style>.cls-1{fill:#ea4e67;}.cls-2{fill:#fff;}</style></defs><title>sacheque</title><g id="Layer_2" data-name="Layer 2"><g id="Layer_5" data-name="Layer 5"><path class="cls-1" d="M104.19,17.6,84,20.93A47.74,47.74,0,0,0,26.77,9.17L9.7,0V23.23A47.74,47.74,0,1,0,93.53,65.61a47.48,47.48,0,0,0,.09-26.78Z"/><path class="cls-2" d="M37.22,29.21l-2.83-9.45,1.31-.39,3.23,4.48h0l.23-5.52,1.31-.39,2.83,9.45L42,27.79,40.26,22h0l-.13,4.46-.67.2-2.55-3.66h0l1.72,5.74Z"/><path class="cls-2" d="M43.5,27.4l1.68-10,1.17-.07,2.73,9.74-1.41.08-.53-2.1-1.92.1-.3,2.14Zm3.31-3.63-.89-3.54h0l-.5,3.6Z"/><path class="cls-2" d="M49.46,27.27l1-9.82,1.41.13-1,9.82Z"/><path class="cls-2" d="M58,21.77l-1.37-.35.07-.31a1.51,1.51,0,0,0,0-.87.86.86,0,0,0-.66-.53.9.9,0,0,0-.49,0,.94.94,0,0,0-.35.2,1,1,0,0,0-.24.35,2.51,2.51,0,0,0-.16.46c0,.19-.08.35-.1.47a.86.86,0,0,0,0,.36.71.71,0,0,0,.17.32,2.12,2.12,0,0,0,.37.32l.94.68a2.49,2.49,0,0,1,.64.6,1.67,1.67,0,0,1,.3.65,2.24,2.24,0,0,1,0,.78,6.51,6.51,0,0,1-.18,1,4.66,4.66,0,0,1-.4,1.09,2.48,2.48,0,0,1-.61.79,2,2,0,0,1-.89.4,2.64,2.64,0,0,1-1.17-.06,2.45,2.45,0,0,1-.88-.41,2.19,2.19,0,0,1-.62-.67,2.5,2.5,0,0,1-.31-.84,2.31,2.31,0,0,1,0-.94l.13-.51,1.37.34-.11.43a1.18,1.18,0,0,0,.06.74.88.88,0,0,0,.67.49,1.14,1.14,0,0,0,.57,0,.69.69,0,0,0,.37-.21,1.22,1.22,0,0,0,.24-.42c.06-.17.11-.36.17-.58s.1-.46.13-.62a1.14,1.14,0,0,0,0-.42.73.73,0,0,0-.19-.3,4.54,4.54,0,0,0-.36-.31l-.88-.65A2.24,2.24,0,0,1,53.35,22a3.41,3.41,0,0,1,.07-1.57,3.63,3.63,0,0,1,.41-1,2.5,2.5,0,0,1,.65-.72,2.24,2.24,0,0,1,.86-.38,2.57,2.57,0,0,1,1.09.06,2.22,2.22,0,0,1,.89.42,2.62,2.62,0,0,1,.61.68,2.2,2.2,0,0,1,.25,1.63Z"/><path class="cls-2" d="M59,29.77l5-8.53,3.64,2.12L67,24.51,64.55,23.1l-1.5,2.59,2.11,1.22-.67,1.15-2.11-1.22-2.12,3.64Z"/><path class="cls-2" d="M62.05,31.39l8-6.18L71,26l-4.61,9-1.08-.9,1-1.9-1.48-1.23L63.14,32.3ZM66.94,31l1.75-3.19,0,0-2.82,2.31Z"/><path class="cls-2" d="M66.51,35.34l7.37-6.56.94,1.06L67.45,36.4Z"/><path class="cls-2" d="M76.55,37.15,75.78,36l.27-.18a1.48,1.48,0,0,0,.57-.65.81.81,0,0,0-.12-.83.86.86,0,0,0-.35-.34.92.92,0,0,0-.39-.09,1.12,1.12,0,0,0-.43.1,2.82,2.82,0,0,0-.42.22c-.16.11-.3.2-.4.28a1,1,0,0,0-.23.28.79.79,0,0,0-.09.35,3.26,3.26,0,0,0,0,.48l.23,1.14a2.73,2.73,0,0,1,.07.87,2,2,0,0,1-.22.69,2.83,2.83,0,0,1-.52.59,7.93,7.93,0,0,1-.78.57A5.11,5.11,0,0,1,72,40a2.49,2.49,0,0,1-1,.16,1.87,1.87,0,0,1-.92-.31,2.64,2.64,0,0,1-.82-.84,2.49,2.49,0,0,1-.37-.9,2.32,2.32,0,0,1,0-.91,2.41,2.41,0,0,1,.35-.83,2.22,2.22,0,0,1,.67-.66l.44-.29.77,1.19-.37.24a1.12,1.12,0,0,0-.46.57.9.9,0,0,0,.16.82,1.19,1.19,0,0,0,.39.41.69.69,0,0,0,.42.1,1.21,1.21,0,0,0,.46-.14l.52-.31c.21-.15.39-.27.52-.38a1.07,1.07,0,0,0,.27-.31.81.81,0,0,0,.07-.35,2.4,2.4,0,0,0-.06-.47l-.2-1.07A2.27,2.27,0,0,1,73,34.13,3.43,3.43,0,0,1,74.13,33a3.32,3.32,0,0,1,1-.44,2.34,2.34,0,0,1,1-.09,2.16,2.16,0,0,1,.89.31,2.37,2.37,0,0,1,.76.78,2.28,2.28,0,0,1,.37.91,2.58,2.58,0,0,1,0,.92,2.12,2.12,0,0,1-.93,1.36Z"/><path class="cls-2" d="M71.68,43.06l10.09-.71.33,1.13-8.83,4.93-.4-1.35,1.92-1-.55-1.84-2.16.2ZM76,45.42l3.22-1.68v0l-3.63.36Z"/><path class="cls-2" d="M73.22,48.93l8.46-1.15-.22-1.62L82.78,46l.63,4.65-1.32.17-.22-1.62-8.46,1.15Z"/><path class="cls-2" d="M73.56,53.11l8.53.25,0-1.64,1.33,0-.13,4.68-1.33,0,0-1.64-8.53-.24Z"/><path class="cls-2" d="M73.41,56.38l9.66,2-.84,4.13-1.3-.27.56-2.74-2.84-.58-.49,2.39L76.86,61l.49-2.38-2.84-.58L74,60.79l-1.39-.28Z"/><path class="cls-2" d="M72.46,60.9l9.09,3.84L81,66l-6.31-.35v0L80.18,68l-.55,1.3-9.09-3.83.52-1.23,6.3.31v0L71.91,62.2Z"/><path class="cls-2" d="M69.56,66.91l7.1,4.75.91-1.36,1.1.74-2.6,3.89L75,74.19l.91-1.36-7.09-4.75Z"/><path class="cls-2" d="M67.57,69.65,75,76.17,74,77.24l-7.41-6.53Z"/><path class="cls-2" d="M70.89,77.24a2.56,2.56,0,0,1,.51.94,2.33,2.33,0,0,1,.07.94,2.38,2.38,0,0,1-.3.82,2.6,2.6,0,0,1-.56.67,2.5,2.5,0,0,1-.75.42,2.37,2.37,0,0,1-.88.16,2.51,2.51,0,0,1-.9-.24,2.62,2.62,0,0,1-.83-.68l-3.34-4a2.5,2.5,0,0,1-.52-1,2.17,2.17,0,0,1,0-.91,2.27,2.27,0,0,1,.29-.84,2.81,2.81,0,0,1,.56-.67,2.5,2.5,0,0,1,.75-.42,2,2,0,0,1,.88-.13,2.17,2.17,0,0,1,.89.2,2.54,2.54,0,0,1,.85.69Zm-4.42-3.1a.91.91,0,0,0-.7-.4,1,1,0,0,0-.68.24,1.09,1.09,0,0,0-.36.62,1,1,0,0,0,.27.76l3.33,4a.94.94,0,0,0,.7.39,1,1,0,0,0,.68-.24,1,1,0,0,0,.36-.62,1,1,0,0,0-.27-.76Z"/><path class="cls-2" d="M61.83,74.88l4.57,8.74-1.2.63L60.55,80l0,0,2.75,5.27L62,85.91l-4.57-8.75,1.18-.61L63.3,80.8h0l-2.75-5.26Z"/><path class="cls-2" d="M56.33,76.39l.79,2.31-1.34.45-.46-1.33Z"/><path class="cls-2" d="M48.21,86.08,49.62,86l0,.32a1.53,1.53,0,0,0,.3.81.87.87,0,0,0,.8.29.84.84,0,0,0,.46-.16,1,1,0,0,0,.27-.3,1.19,1.19,0,0,0,.11-.42,3.84,3.84,0,0,0,0-.48,4.2,4.2,0,0,0-.07-.48.93.93,0,0,0-.13-.34.8.8,0,0,0-.27-.24,2.61,2.61,0,0,0-.45-.18l-1.12-.33a2.76,2.76,0,0,1-.79-.35,1.8,1.8,0,0,1-.51-.52,2.63,2.63,0,0,1-.27-.73,6.13,6.13,0,0,1-.14-1,5,5,0,0,1,0-1.16,2.61,2.61,0,0,1,.32-.94,2,2,0,0,1,.71-.68A2.74,2.74,0,0,1,50,78.78a2.59,2.59,0,0,1,1,.09,2.34,2.34,0,0,1,.81.43,2.39,2.39,0,0,1,.57.69,2.25,2.25,0,0,1,.27.9l0,.53-1.41.13,0-.45a1.13,1.13,0,0,0-.29-.67.84.84,0,0,0-.79-.24,1.25,1.25,0,0,0-.55.15.69.69,0,0,0-.28.33,1,1,0,0,0-.09.47q0,.27,0,.6a3.93,3.93,0,0,0,.09.63,1,1,0,0,0,.14.39.89.89,0,0,0,.28.23l.44.17,1,.32a2.24,2.24,0,0,1,1.32.88A3.5,3.5,0,0,1,53,85.87a3.72,3.72,0,0,1-.06,1.06,2.43,2.43,0,0,1-.38.9,2.09,2.09,0,0,1-.68.64,2.54,2.54,0,0,1-1.06.31,2.38,2.38,0,0,1-1-.11,2.49,2.49,0,0,1-.8-.44,2.14,2.14,0,0,1-.77-1.46Z"/><path class="cls-2" d="M47.63,79.12l-3.27,9.56-1.17-.13-1.11-10,1.41.16.18,2.15,1.91.21L46.23,79Zm-3.85,3,.3,3.63h0l1.08-3.48Z"/><path class="cls-2" d="M34.8,86.51l4.88-8.81,1.19.37-1,10-1.42-.45,1-6.91h0L36.23,87Z"/><path class="cls-2" d="M38.42,77.41,32,85.21l-1-.53,2.5-9.8,1.26.64-.59,2.08,1.72.87,1.33-1.7Zm-4.68,1.5-1,3.5h0L35,79.55Z"/><path class="cls-2" d="M33.19,74.55l-5.74,8-1.15-.82,5.74-8Z"/><path class="cls-2" d="M23,75l1,1-.23.23a1.6,1.6,0,0,0-.42.76.85.85,0,0,0,.31.79,1,1,0,0,0,.41.25.94.94,0,0,0,.8-.19,1.74,1.74,0,0,0,.36-.31,4.57,4.57,0,0,0,.33-.36.88.88,0,0,0,.16-.32.72.72,0,0,0,0-.36,2,2,0,0,0-.16-.46L25.14,75a2.62,2.62,0,0,1-.25-.84,1.74,1.74,0,0,1,.06-.72,2.63,2.63,0,0,1,.38-.69A9,9,0,0,1,26,72a5.92,5.92,0,0,1,.89-.74,2.44,2.44,0,0,1,.92-.37,2.07,2.07,0,0,1,1,.09,2.75,2.75,0,0,1,1,.65,2.41,2.41,0,0,1,.57.79,2.35,2.35,0,0,1,.2.89,2.41,2.41,0,0,1-.16.88,2.37,2.37,0,0,1-.51.8l-.36.37-1-1,.31-.32a1.11,1.11,0,0,0,.32-.66.86.86,0,0,0-.33-.76,1.25,1.25,0,0,0-.48-.32.75.75,0,0,0-.42,0,1,1,0,0,0-.42.24c-.14.12-.28.26-.44.42a4,4,0,0,0-.42.48.94.94,0,0,0-.2.36.73.73,0,0,0,0,.36,3.29,3.29,0,0,0,.15.44l.44,1a2.23,2.23,0,0,1,.19,1.56,3.5,3.5,0,0,1-.85,1.33,3.77,3.77,0,0,1-.85.65,2.46,2.46,0,0,1-.92.29,2,2,0,0,1-.93-.1,2.4,2.4,0,0,1-.92-.59,2.31,2.31,0,0,1-.56-.82,2.54,2.54,0,0,1-.19-.89,2.18,2.18,0,0,1,.61-1.54Z"/><path class="cls-2" d="M25,71.3l-1.16.8-2.37-3.43,1.16-.8Z"/><path class="cls-2" d="M24.43,64.47,16.66,68l.68,1.49-1.21.55L14.19,65.8l1.21-.56.68,1.49,7.76-3.55Z"/><path class="cls-2" d="M12.43,59.48l7.42-1.85a2.35,2.35,0,0,1,.91,0,2.13,2.13,0,0,1,.83.3,2.46,2.46,0,0,1,.66.59,2.31,2.31,0,0,1,.39.82,2.28,2.28,0,0,1,0,.9,2.72,2.72,0,0,1-.31.82,2.33,2.33,0,0,1-.59.66,2.08,2.08,0,0,1-.82.39l-7.43,1.85-.34-1.37,7.29-1.82a1.05,1.05,0,0,0,.7-.43.84.84,0,0,0,.09-.66.9.9,0,0,0-.4-.55,1.08,1.08,0,0,0-.81-.05l-7.29,1.82Z"/><path class="cls-2" d="M14.17,53.53a2.79,2.79,0,0,1-1-.27,2.24,2.24,0,0,1-.72-.6,2.07,2.07,0,0,1-.4-.78A2.54,2.54,0,0,1,11.9,51a2.47,2.47,0,0,1,.21-.84,2.42,2.42,0,0,1,.48-.74,2.32,2.32,0,0,1,.8-.5,2.4,2.4,0,0,1,1.06-.14l5.2.3a2.21,2.21,0,0,1,1,.27l.76-.83.81.76-.72.8a2.44,2.44,0,0,1,.22,2.35,2.43,2.43,0,0,1-.5.73,2.21,2.21,0,0,1-.77.51,2.4,2.4,0,0,1-1.07.14Zm5.29-1.11a.94.94,0,0,0,.77-.24,1,1,0,0,0,.28-.66.53.53,0,0,0,0-.3l-.55.6-.81-.77.49-.54h0l-5.2-.3a.94.94,0,0,0-.77.24.92.92,0,0,0-.28.65,1,1,0,0,0,.2.69.94.94,0,0,0,.74.33Z"/><path class="cls-2" d="M13.79,41.49l7.38,2a2.31,2.31,0,0,1,1.68,1.91,2.32,2.32,0,0,1-.46,1.71,2.46,2.46,0,0,1-1.51.86,2.35,2.35,0,0,1-.91-.06l-7.38-2L13,44.54l7.25,2a1,1,0,0,0,.81,0,.87.87,0,0,0,.41-.54.84.84,0,0,0-.08-.66,1,1,0,0,0-.68-.45l-7.25-2Z"/><path class="cls-2" d="M23.66,43.27l-8.84-4.39,1.88-3.77,1.19.59-1.25,2.51,2.6,1.28,1.08-2.18,1.19.59-1.08,2.18L23,41.37l1.25-2.51,1.27.63Z"/><path class="cls-2" d="M25.87,39.12l-1.16-.79.79-1.17,1.17.79Z"/><path class="cls-2" d="M27.23,37.2l-1.09-.9.9-1.09,1.09.9Z"/><path class="cls-2" d="M28.76,35.41l-1-1,1-1,1,1Z"/></g></g></svg>