<svg xmlns="http://www.w3.org/2000/svg" viewBox="0 0 291.96 252.04"><defs><style>.cls-1{fill:#ea4e57;}</style></defs><title>symbollogo</title><g id="Layer_2" data-name="Layer 2"><g id="Layer_1-2" data-name="Layer 1"><path class="cls-1" d="M148,11.41l-1.54-9.88A125.62,125.62,0,0,0,64.38,51.45l8.06,5.91.67-10L0,42.43,45.54,103.2l8-6-9.68-2.49a125,125,0,0,0-3.94,31.16A126.16,126.16,0,1,0,146.49,1.53L148,11.41l1.55,9.88A105.86,105.86,0,1,1,59.92,125.88,105.41,105.41,0,0,1,63.23,99.7l1.19-4.65L42.16,65.34l35.09,2.37,3.25-4.43a105.59,105.59,0,0,1,69.08-42Z"/></g></g></svg>