<svg xmlns="http://www.w3.org/2000/svg" viewBox="0 0 122.37 47.25"><defs><style>.cls-1{fill:#ea4e57;}</style></defs><title>car</title><g id="Layer_2" data-name="Layer 2"><g id="Calque_2" data-name="Calque 2"><g id="rPjRzR.tif"><path class="cls-1" d="M0,29.25V25.38c0-.05.09-.1.1-.15a7.66,7.66,0,0,1,2.65-4.47,19.43,19.43,0,0,1,5.93-3.5A71,71,0,0,1,27.41,13,29.89,29.89,0,0,0,40.35,8.53c2.16-1.37,4.36-2.67,6.58-3.94a29.28,29.28,0,0,1,9.23-3.46A77,77,0,0,1,69.63,0,71.33,71.33,0,0,1,84.36,1a51.31,51.31,0,0,1,19.23,8.22,7.12,7.12,0,0,0,3,1.37c.92.14,1.86.22,2.79.27,2.18.1,4.37.14,6.55.27a5.66,5.66,0,0,1,5.39,4.33c.35,1.68.55,3.4.78,5.11.12.92.16,1.85.24,2.78v5.5c0,.16-.08.32-.11.48a27.37,27.37,0,0,1-.79,3.39c-1.39,3.76-4,6.25-8,6.91a23.77,23.77,0,0,1-3.87.06.73.73,0,0,0-.76.45c-2.5,4.57-6.34,7.08-11.56,7.08s-9.06-2.5-11.56-7.06a.74.74,0,0,0-.76-.47H37.68a.7.7,0,0,0-.72.43c-2.49,4.57-6.33,7.09-11.55,7.1s-9.1-2.51-11.6-7.1a.7.7,0,0,0-.72-.43c-2,0-4.07,0-6.11,0a1.67,1.67,0,0,1-.78-.14,16.93,16.93,0,0,1-2.26-1.43A10.43,10.43,0,0,1,.66,32.61C.37,31.51.22,30.37,0,29.25Zm110.17,6.63a9.09,9.09,0,0,0,3.84-.23,6.74,6.74,0,0,0,4.34-5.79,43.47,43.47,0,0,0-.42-12.42,4.87,4.87,0,0,0-.48-1.6,2.25,2.25,0,0,0-2.06-.95c-2.74-.13-5.49-.2-8.22-.39a9.56,9.56,0,0,1-5-1.67,47.1,47.1,0,0,0-8.21-4.72A45.11,45.11,0,0,0,78.34,4a102.19,102.19,0,0,0-17,.17A30.4,30.4,0,0,0,53.1,5.86a52.68,52.68,0,0,0-10.29,5.56,28.81,28.81,0,0,1-9.91,4.43c-2.95.65-6,1-9,1.42a62.48,62.48,0,0,0-13.86,3.5A14.71,14.71,0,0,0,5,23.8a3.79,3.79,0,0,0-1.24,3c0,.85,0,1.7.11,2.55a9.69,9.69,0,0,0,1.93,5.32A2.75,2.75,0,0,0,8.47,36a8.68,8.68,0,0,1,1.25,0H12.5A12.73,12.73,0,0,1,13,30.51a13.87,13.87,0,0,1,2.52-4.83,11,11,0,0,1,4.34-3.16,14.39,14.39,0,0,1,5.31-1.22,12.75,12.75,0,0,1,9,3.38,13,13,0,0,1,4.16,11.23h46a12.83,12.83,0,0,1,3.21-10.25,12.6,12.6,0,0,1,9.83-4.37,12.45,12.45,0,0,1,8.76,3.53A12.92,12.92,0,0,1,110.17,35.88ZM16.41,34.4a10.21,10.21,0,0,0,.9,4.3,9.13,9.13,0,0,0,10,4.59A8.17,8.17,0,0,0,34,36.54c.6-2.84.46-5.53-1.33-7.9a9.15,9.15,0,0,0-11.57-2.46A8.15,8.15,0,0,0,16.41,34.4Zm89.64.09-.15,0c0-5.89-4.44-9.87-10.17-8.94S87.3,32,88.44,36.81a8.38,8.38,0,0,0,7.19,6.52,8.89,8.89,0,0,0,9.27-3.91,1.47,1.47,0,0,0,.28-.54C105.48,37.42,105.77,36,106.05,34.49Z"/></g></g></g></svg>