<svg xmlns="http://www.w3.org/2000/svg" xmlns:xlink="http://www.w3.org/1999/xlink" viewBox="0 0 785.36 534.52"><defs><style>.cls-1,.cls-122,.cls-2{fill:none;}.cls-2{stroke:#982259;stroke-width:16px;}.cls-122,.cls-2{stroke-linecap:round;stroke-linejoin:round;}.cls-3{opacity:0.07;}.cls-4{fill:#982259;}.cls-5{clip-path:url(#clip-path);}.cls-6{fill:#e8e6e6;}.cls-7{fill:#161922;}.cls-8{opacity:0.73;}.cls-9{clip-path:url(#clip-path-2);}.cls-10{clip-path:url(#clip-path-3);}.cls-11{fill:#bcbdc2;}.cls-12{fill:#bbbcc1;}.cls-13{fill:#babbc0;}.cls-14{fill:#b9babf;}.cls-15{fill:#b8b9bf;}.cls-16{fill:#b7b9be;}.cls-17{fill:#b6b8bd;}.cls-18{fill:#b5b7bc;}.cls-19{fill:#b4b6bb;}.cls-20{fill:#b3b5ba;}.cls-21{fill:#b2b4ba;}.cls-22{fill:#b1b3b9;}.cls-23{fill:#b0b2b8;}.cls-24{fill:#afb2b7;}.cls-25{fill:#aeb1b6;}.cls-26{fill:#adb0b5;}.cls-27{fill:#acafb5;}.cls-28{fill:#abaeb4;}.cls-29{fill:#aaadb3;}.cls-30{fill:#a9acb2;}.cls-31{fill:#a8abb1;}.cls-32{fill:#a7aab0;}.cls-33{fill:#a6a9af;}.cls-34{fill:#a5a8ae;}.cls-35{fill:#a4a7ad;}.cls-36{fill:#a3a6ac;}.cls-37{fill:#a2a5ab;}.cls-38{fill:#a1a4ab;}.cls-39{fill:#a0a3aa;}.cls-40{fill:#9fa2a9;}.cls-41{fill:#9ea2a8;}.cls-42{fill:#9da1a7;}.cls-43{fill:#9ca0a6;}.cls-44{fill:#9b9fa6;}.cls-45{fill:#9a9ea5;}.cls-46{fill:#999da4;}.cls-47{fill:#989ca3;}.cls-48{fill:#979ba2;}.cls-49{fill:#969ba1;}.cls-50{fill:#959aa1;}.cls-51{fill:#9499a0;}.cls-52{fill:#93989f;}.cls-53{fill:#92979e;}.cls-54{fill:#878b92;}.cls-55{fill:#888c93;}.cls-56{fill:#898d94;}.cls-57{fill:#8a8f96;}.cls-58{fill:#8b9097;}.cls-59{fill:#8c9198;}.cls-60{fill:#8e9299;}.cls-61{fill:#8f939b;}.cls-62{fill:#90949c;}.cls-63{fill:#91969d;}.cls-64{fill:#9499a1;}.cls-65{fill:#959aa2;}.cls-66{fill:#969ca3;}.cls-67{fill:#979da4;}.cls-68{fill:#989ea5;}.cls-69{fill:#999fa7;}.cls-70{fill:#9ba0a8;}.cls-71{fill:#9ca1a9;}.cls-72{fill:#9da3aa;}.cls-73{fill:#9ea4ac;}.cls-74{fill:#9fa5ad;}.cls-75{fill:#a0a6ae;}.cls-76{fill:#a1a7af;}.cls-77{fill:#a2a9b0;}.cls-78{fill:#a3aab2;}.cls-79{fill:#a4abb3;}.cls-80{fill:#a5acb4;}.cls-81{fill:#a6adb5;}.cls-82{fill:#a8afb7;}.cls-83{fill:#a9b0b8;}.cls-84{fill:#aab1b9;}.cls-85{fill:#abb2ba;}.cls-86{fill:#acb3bb;}.cls-87{fill:#adb4bd;}.cls-88{fill:#aeb6be;}.cls-89{fill:#afb7bf;}.cls-90{fill:#b0b8c0;}.cls-91{fill:#b1b9c1;}.cls-92{fill:#b2bac3;}.cls-93{fill:#b3bcc4;}.cls-94{fill:#b4bdc5;}.cls-95{fill:#b6bec6;}.cls-96{fill:#b7bfc8;}.cls-97{fill:#b8c0c9;}.cls-98{fill:#b9c1ca;}.cls-99{fill:#bac3cb;}.cls-100{fill:#bbc4cc;}.cls-101{fill:#bcc5ce;}.cls-102{fill:#bdc6cf;}.cls-103{fill:#bec7d0;}.cls-104{fill:#bfc9d1;}.cls-105{fill:#c0cad2;}.cls-106{fill:#c1cbd4;}.cls-107{fill:#c3ccd5;}.cls-108{fill:#c4cdd6;}.cls-109{fill:#c5ced7;}.cls-110{fill:#c6d0d9;}.cls-111{fill:#c7d1da;}.cls-112{fill:#c8d2db;}.cls-113{fill:#60c1ae;}.cls-113,.cls-118,.cls-119,.cls-120{fill-rule:evenodd;}.cls-114{fill:#1a1a1a;}.cls-115,.cls-118{fill:#fff;}.cls-116{opacity:0.23;}.cls-117{clip-path:url(#clip-path-4);}.cls-119,.cls-121{fill:#fe526c;}.cls-120{fill:#ededed;}.cls-122{stroke:#000;stroke-width:9px;}.cls-123{fill:#4c0328;}.cls-124{clip-path:url(#clip-path-5);}.cls-125{fill:#ce2764;}.cls-126{clip-path:url(#clip-path-6);}</style><clipPath id="clip-path"><rect class="cls-1" x="538.3" y="170.66" width="146.84" height="146.84" transform="translate(-42.84 171.14) rotate(-15.39)"/></clipPath><clipPath id="clip-path-2"><rect class="cls-1" x="620.28" y="292.04" width="11" height="4.04"/></clipPath><clipPath id="clip-path-3"><rect class="cls-1" x="620.24" y="293.49" width="11.09" height="1.14" transform="matrix(0.96, -0.27, 0.27, 0.96, -55.61, 176.69)"/></clipPath><clipPath id="clip-path-4"><rect class="cls-1" x="689.99" y="233.34" width="76.52" height="55.82"/></clipPath><clipPath id="clip-path-5"><path class="cls-1" d="M302.36,335.94c-8.76-3-23.62-16.38-17.87-27,2.88-5.29,6.05-5.47,11.69-4.57,7.56,1.2,14.77,3,22.42,1,10.83-2.88,17.58-10.52,24.59-18.78,3.89-4.58,11.48-17.33,17.78-9.43,4,5.09,4.39,13.95,3,20a51.72,51.72,0,0,1-25,34C328,337.64,314.7,340.12,302.36,335.94Z"/></clipPath><clipPath id="clip-path-6"><path class="cls-1" d="M302.43,336c-8.76-3-23.62-16.38-17.87-27,2.88-5.29,6.05-5.47,11.69-4.58,7.56,1.2,14.77,3,22.42,1,10.83-2.89,17.58-10.52,24.6-18.78,3.88-4.58,11.47-17.33,17.77-9.43,4,5.09,4.39,14,3,20a51.72,51.72,0,0,1-25,34C328,337.72,314.77,340.2,302.43,336Z"/></clipPath></defs><title>darkconso</title><g id="Calque_2" data-name="Calque 2"><g id="Calque_2-2" data-name="Calque 2"><path class="cls-2" d="M21.29,175.77c-21.38,37.11-16,98.06,9.19,131.77,55.9,74.83,177.3,46.29,246.29,11.08"/><path class="cls-2" d="M390,302.69c39.2-27.11,75.64-61.79,92.52-107.64C507.2,128.13,477,57.13,431.26,8"/><g class="cls-3"><path d="M456.38,524.66c0,5.45-48.17,9.86-107.6,9.86s-107.59-4.41-107.59-9.86,48.17-9.86,107.59-9.86S456.38,519.21,456.38,524.66Z"/></g><path class="cls-4" d="M327.54,174.05c-1.32-.08-2.63-.14-4-.18-25.13-.79-50.69,5.25-71.93,18.7-39,24.7-56.44,72.78-40.41,116.73,15.07,41.31,61.25,68.78,104.75,62.3,35.06-5.23,65.45-30.34,81.4-62,21.67-43,13.84-101.13-31.63-125.6C354.08,177.72,340.82,174.86,327.54,174.05Z"/><polygon class="cls-4" points="268.14 208.9 172.01 187.14 221.21 279.8 268.14 208.9"/><polygon class="cls-4" points="308.69 188.62 381.96 126.7 382.99 207.95 308.69 188.62"/><polyline class="cls-2" points="312.17 330.11 306.85 520.1 276.52 521.97"/><path class="cls-2" d="M327.36,331.5c33,33.21,77.82,160,77.82,160s15.8-7.87,30.37-14.4"/><path class="cls-4" d="M249.57,303.36c12.35-8.88,28.15-11.27,43.34-12.11,6.9-.38,14-.47,20.55,1.62s12.7,6.74,14.92,13.29a4.07,4.07,0,0,1,.27,2.12c-.27,1.29-1.54,2.08-2.71,2.7-24.89,13-56.44,12.31-80.72-1.81"/><path class="cls-4" d="M337.84,289.32c9.24-5.89,17.5-13.11,27.54-17.8s22.93-6.38,31.35-.79c2.24,1.49,4.14,3.63,4.18,6.17a8.75,8.75,0,0,1-1.69,4.71c-2.84,4.36-7.52,7.65-12.31,10.5a123.38,123.38,0,0,1-27.69,12.12c-5.84,1.74-12,3.06-17.91,2.47"/><g class="cls-5"><path class="cls-6" d="M646.19,293.54,608,304.05a5.69,5.69,0,0,1-7-4l-25.07-91a5.71,5.71,0,0,1,4-7l38.2-10.51a5.69,5.69,0,0,1,7,4l25.07,91a5.71,5.71,0,0,1-4,7"/><rect class="cls-7" x="587.53" y="204.36" width="51.02" height="86.82" transform="translate(-43.78 171.61) rotate(-15.39)"/><path class="cls-7" d="M595.47,203l11-3a.56.56,0,0,0,.39-.69.56.56,0,0,0-.68-.38l-11,3a.56.56,0,0,0-.39.68.57.57,0,0,0,.69.39"/><g class="cls-8"><g class="cls-9"><g class="cls-10"><path class="cls-7" d="M621.14,295.93l9.59-2.64a.58.58,0,0,0,.4-.7.56.56,0,0,0-.7-.4l-9.6,2.64a.56.56,0,0,0-.39.7.57.57,0,0,0,.7.4"/></g></g></g><path class="cls-11" d="M590.75,203.55a1.1,1.1,0,0,0,.54.7,1.14,1.14,0,0,0,.89.11,1.16,1.16,0,0,0,.7-.54,1.21,1.21,0,0,0,.11-.88,1.16,1.16,0,1,0-2.24.61"/><path class="cls-12" d="M591.56,202.12a1.16,1.16,0,0,0-.81,1.41v0a1.11,1.11,0,0,0,.28.45,1.09,1.09,0,0,0,.27.21,1.4,1.4,0,0,0,.49.15,1,1,0,0,0,.39,0,1.07,1.07,0,0,0,.44-.22.8.8,0,0,0,.22-.23h0l0-.05a1.11,1.11,0,0,0,.13-.4,1,1,0,0,0,0-.48,1.08,1.08,0,0,0-.3-.52,1.17,1.17,0,0,0-1.12-.29"/><path class="cls-13" d="M591.56,202.12a1.15,1.15,0,0,0-.81,1.39v0a1.12,1.12,0,0,0,.27.44,2.83,2.83,0,0,0,.28.2,1.2,1.2,0,0,0,.49.14,1.29,1.29,0,0,0,.39,0,1.27,1.27,0,0,0,.44-.2,1.61,1.61,0,0,0,.22-.23h0l0,0a1.17,1.17,0,0,0,.13-.4,1.3,1.3,0,0,0,0-.48,1.17,1.17,0,0,0-1.42-.8"/><path class="cls-14" d="M591.56,202.12a1.15,1.15,0,0,0-.81,1.37v0a1.07,1.07,0,0,0,.28.42,1.38,1.38,0,0,0,.28.19,1.2,1.2,0,0,0,.49.14,1,1,0,0,0,.39,0,1,1,0,0,0,.43-.19.88.88,0,0,0,.22-.21h0l0,0a1.15,1.15,0,0,0,.12-.4,1.12,1.12,0,0,0,0-.48,1.1,1.1,0,0,0-.3-.5,1.15,1.15,0,0,0-1.11-.29"/><path class="cls-15" d="M591.56,202.12a1.13,1.13,0,0,0-.8,1.35v0a1,1,0,0,0,.29.4,1.38,1.38,0,0,0,.28.19,1.63,1.63,0,0,0,.49.14,1.28,1.28,0,0,0,.39,0,1,1,0,0,0,.43-.18,1,1,0,0,0,.21-.19h0l0,0a1,1,0,0,0,.12-.39,1.14,1.14,0,0,0-.35-1,1.15,1.15,0,0,0-1.1-.28"/><path class="cls-16" d="M591.56,202.12a1.12,1.12,0,0,0-.8,1.33v0a1.08,1.08,0,0,0,.3.38,1.27,1.27,0,0,0,.27.18,1.29,1.29,0,0,0,.5.14,1.2,1.2,0,0,0,.38,0,1.28,1.28,0,0,0,.43-.16,1,1,0,0,0,.22-.19h0l0,0a.89.89,0,0,0,.12-.39,1.13,1.13,0,0,0,0-.48,1.09,1.09,0,0,0-.31-.49,1.14,1.14,0,0,0-1.09-.28"/><path class="cls-17" d="M591.56,202.12a1.11,1.11,0,0,0-.8,1.31v0a.91.91,0,0,0,.29.36,1.67,1.67,0,0,0,.28.18,1.78,1.78,0,0,0,.5.14,1.61,1.61,0,0,0,.38,0,1.36,1.36,0,0,0,.43-.15,1.2,1.2,0,0,0,.21-.17h0l0,0a1,1,0,0,0,.11-.39,1.13,1.13,0,0,0,0-.48,1.14,1.14,0,0,0-.31-.49,1.16,1.16,0,0,0-1.09-.27"/><path class="cls-18" d="M591.56,202.12a1.11,1.11,0,0,0-.8,1.29v0a1,1,0,0,0,.3.35,1.28,1.28,0,0,0,.28.16,1.78,1.78,0,0,0,.5.14,1.21,1.21,0,0,0,.38,0,1.1,1.1,0,0,0,.42-.14.58.58,0,0,0,.21-.16h0l0,0a1.08,1.08,0,0,0,.11-.4,1.11,1.11,0,0,0-.06-.47,1.05,1.05,0,0,0-.31-.48,1.14,1.14,0,0,0-1.08-.27"/><path class="cls-19" d="M591.56,202.12a1.11,1.11,0,0,0-.8,1.27v0a1.15,1.15,0,0,0,.3.33,2.69,2.69,0,0,0,.29.16,1.94,1.94,0,0,0,.5.14,2.41,2.41,0,0,0,.38,0,1.29,1.29,0,0,0,.42-.12l.21-.15h0l0,0a1.08,1.08,0,0,0,.11-.4,1.27,1.27,0,0,0-.06-.47,1.21,1.21,0,0,0-.31-.48,1.16,1.16,0,0,0-1.08-.26"/><path class="cls-20" d="M591.56,202.12a1.09,1.09,0,0,0-.79,1.25v0a1.14,1.14,0,0,0,.31.31,2.07,2.07,0,0,0,.79.29,1.53,1.53,0,0,0,.37,0,1.69,1.69,0,0,0,.43-.11.72.72,0,0,0,.2-.14h0l0,0a1.38,1.38,0,0,0,.1-.4,1.1,1.1,0,0,0-.07-.47,1,1,0,0,0-.31-.47,1.15,1.15,0,0,0-1.07-.26"/><path class="cls-21" d="M591.56,202.12a1.09,1.09,0,0,0-.79,1.23v0a.8.8,0,0,0,.31.29,1.32,1.32,0,0,0,.29.15,1.93,1.93,0,0,0,.5.13,1.53,1.53,0,0,0,.37,0,1.62,1.62,0,0,0,.42-.1.56.56,0,0,0,.2-.12h0l0,0a1.12,1.12,0,0,0,.1-.4,1.17,1.17,0,0,0-.38-.93,1.15,1.15,0,0,0-1.07-.26"/><path class="cls-22" d="M591.56,202.12a1.08,1.08,0,0,0-.79,1.21h0a.89.89,0,0,0,.32.28,1.12,1.12,0,0,0,.29.14,2,2,0,0,0,.49.14,2.48,2.48,0,0,0,.38,0,1.3,1.3,0,0,0,.42-.09,1.24,1.24,0,0,0,.2-.1h0l0,0a1.12,1.12,0,0,0,.1-.4,1.09,1.09,0,0,0-.08-.47,1,1,0,0,0-.31-.46,1.15,1.15,0,0,0-1.06-.25"/><path class="cls-23" d="M591.56,202.12a1.08,1.08,0,0,0-.79,1.19h0a.85.85,0,0,0,.32.26,1.55,1.55,0,0,0,.29.14,2.17,2.17,0,0,0,.5.13,2.43,2.43,0,0,0,.38,0,2,2,0,0,0,.41-.07.75.75,0,0,0,.2-.1h0l0,0a1.24,1.24,0,0,0,.09-.39,1.26,1.26,0,0,0-.08-.47,1.17,1.17,0,0,0-1.37-.7"/><path class="cls-24" d="M591.56,202.12a1.06,1.06,0,0,0-.78,1.17h0a1.29,1.29,0,0,0,.33.25l.29.13a4.07,4.07,0,0,0,.5.13,1.62,1.62,0,0,0,.38,0,1.7,1.7,0,0,0,.41-.05l.2-.08h0l0,0a1.24,1.24,0,0,0,.09-.39,1.27,1.27,0,0,0-.09-.47,1,1,0,0,0-.31-.45,1.16,1.16,0,0,0-1.05-.24"/><path class="cls-25" d="M591.56,202.12a1.07,1.07,0,0,0-.78,1.15h0a1.07,1.07,0,0,0,.33.23l.3.12a2.83,2.83,0,0,0,.5.13,2.31,2.31,0,0,0,.37,0,1.62,1.62,0,0,0,.41,0,.59.59,0,0,0,.2-.07h0s0,0,0,0a1.3,1.3,0,0,0,.09-.4,1.25,1.25,0,0,0-.09-.46,1.16,1.16,0,0,0-.32-.44,1.13,1.13,0,0,0-1-.24"/><path class="cls-26" d="M591.56,202.12a1.06,1.06,0,0,0-.78,1.13h0a.94.94,0,0,0,.33.21l.3.12a4.05,4.05,0,0,0,.5.12,1.55,1.55,0,0,0,.37,0,1.76,1.76,0,0,0,.41,0l.19-.06h0l0,0a1.29,1.29,0,0,0,.08-.4,1.09,1.09,0,0,0-.1-.46,1.14,1.14,0,0,0-.31-.44,1.16,1.16,0,0,0-1-.23"/><path class="cls-27" d="M591.56,202.12a1.06,1.06,0,0,0-.78,1.12h0a1.17,1.17,0,0,0,.34.19,2.09,2.09,0,0,0,.3.11,4.07,4.07,0,0,0,.5.13,2.33,2.33,0,0,0,.37,0,1.72,1.72,0,0,0,.4,0l.2,0h0a1.09,1.09,0,0,0,.07-.4,1.25,1.25,0,0,0-.09-.46,1.06,1.06,0,0,0-.32-.43,1.14,1.14,0,0,0-1-.23"/><path class="cls-28" d="M591.56,202.12a1.06,1.06,0,0,0-.78,1.1h0a1.27,1.27,0,0,0,.35.17,2.09,2.09,0,0,0,.3.11,4.05,4.05,0,0,0,.5.12,2.35,2.35,0,0,0,.37,0,2.66,2.66,0,0,0,.4,0,1,1,0,0,0,.19,0h0a.92.92,0,0,0,.07-.4,1.06,1.06,0,0,0-.1-.46,1.22,1.22,0,0,0-.31-.43,1.18,1.18,0,0,0-1-.22"/><path class="cls-29" d="M591.56,202.12a1,1,0,0,0-.77,1.08h0a1.36,1.36,0,0,0,.34.16l.3.09.51.13.36,0a3,3,0,0,0,.4,0l.19,0h0a1.08,1.08,0,0,0,.06-.4,1.23,1.23,0,0,0-.1-.46,1.1,1.1,0,0,0-.32-.42,1.15,1.15,0,0,0-1-.22"/><path class="cls-30" d="M591.56,202.12a1,1,0,0,0-.77,1h0a1.8,1.8,0,0,0,.35.14l.3.09c.16,0,.34.09.51.12a2.25,2.25,0,0,0,.36.06l.4,0h.22a.91.91,0,0,0,.06-.4,1.23,1.23,0,0,0-.1-.46,1.3,1.3,0,0,0-.32-.41,1.13,1.13,0,0,0-1-.22"/><path class="cls-31" d="M591.56,202.12a1.05,1.05,0,0,0-.77,1h0a2,2,0,0,0,.35.12l.31.09.5.11.37.07.39,0H593a1.1,1.1,0,0,0,0-.4,1.07,1.07,0,0,0-.11-.46,1.17,1.17,0,0,0-.32-.41,1.13,1.13,0,0,0-1-.21"/><path class="cls-32" d="M591.56,202.12a1.05,1.05,0,0,0-.77,1h0l.36.1.31.08.5.12.37.07.39.05.18,0h0a1,1,0,0,0,0-.39,1.35,1.35,0,0,0-.11-.45,1.11,1.11,0,0,0-.32-.41,1.14,1.14,0,0,0-1-.21"/><path class="cls-32" d="M591.56,202.12a1,1,0,0,0-.76,1h0a2.55,2.55,0,0,0,.36.08l.31.08.5.11.36.08.39.07.19,0h0a1,1,0,0,0,0-.4,1.16,1.16,0,0,0-.12-.44,1.3,1.3,0,0,0-.32-.41,1.17,1.17,0,0,0-1-.2"/><path class="cls-33" d="M591.56,202.12a1,1,0,0,0-.76,1h0l.37.07.31.06.5.12.36.08.39.08.18.05h0a1.3,1.3,0,0,0,0-.4,1.16,1.16,0,0,0-.12-.44,1.08,1.08,0,0,0-.33-.4,1.15,1.15,0,0,0-1-.2"/><path class="cls-34" d="M591.56,202.12a1,1,0,0,0-.76,1h0l.37,0,.32.06.5.11.36.09.38.09.19.06h0a1.07,1.07,0,0,0,0-.4,1.21,1.21,0,0,0-.45-.83,1.16,1.16,0,0,0-1-.2"/><path class="cls-35" d="M591.56,202.12a1,1,0,0,0-.76.94h0l.38,0,.31,0,.51.11.36.09.38.12a.75.75,0,0,1,.18.07h0a1.07,1.07,0,0,0,0-.4,1.25,1.25,0,0,0-.13-.44,1,1,0,0,0-.33-.39,1.16,1.16,0,0,0-1-.19"/><path class="cls-36" d="M591.56,202.12a1,1,0,0,0-.76.92h0a2.47,2.47,0,0,1,.37,0l.32,0,.51.11.35.09a3.3,3.3,0,0,1,.38.13l.18.08h0l0,0a1.33,1.33,0,0,0,0-.4,1.26,1.26,0,0,0-.14-.44,1.18,1.18,0,0,0-.32-.38,1.16,1.16,0,0,0-1-.19"/><path class="cls-37" d="M591.56,202.12a1,1,0,0,0-.75.9h0a2.17,2.17,0,0,1,.38,0l.32,0,.51.11.35.1.38.14.18.1h0l0,0a1.35,1.35,0,0,0,0-.4,1.26,1.26,0,0,0-.14-.44,1.21,1.21,0,0,0-.33-.38,1.14,1.14,0,0,0-1-.18"/><path class="cls-38" d="M591.56,202.12a1,1,0,0,0-.75.88h0a1.5,1.5,0,0,1,.39,0l.32,0a3.1,3.1,0,0,1,.51.11l.35.1a2.16,2.16,0,0,1,.37.16l.18.1h0l0,0a1.35,1.35,0,0,0,0-.4,1.1,1.1,0,0,0-.15-.44,1,1,0,0,0-.32-.37,1.14,1.14,0,0,0-1-.18"/><path class="cls-39" d="M591.56,202.12a1,1,0,0,0-.75.86h0a1.11,1.11,0,0,1,.39,0l.33,0a4.64,4.64,0,0,1,.51.11l.35.11a2.14,2.14,0,0,1,.37.17.83.83,0,0,1,.17.12h0l0,0a1.4,1.4,0,0,0,0-.41,1.3,1.3,0,0,0-.15-.43,1.31,1.31,0,0,0-.33-.37,1.15,1.15,0,0,0-1-.17"/><path class="cls-40" d="M591.56,202.12a1,1,0,0,0-.75.84h0a1.12,1.12,0,0,1,.4-.06l.33,0a4,4,0,0,1,.5.1l.35.12a2.57,2.57,0,0,1,.37.18.86.86,0,0,1,.18.14h0l0,0a1.4,1.4,0,0,0,0-.41,1.31,1.31,0,0,0-.16-.43,1,1,0,0,0-.33-.36,1.13,1.13,0,0,0-1-.17"/><path class="cls-41" d="M591.56,202.12a1,1,0,0,0-.74.82h0a1.28,1.28,0,0,1,.4-.08,1.77,1.77,0,0,1,.32,0,2.19,2.19,0,0,1,.51.1,3.59,3.59,0,0,1,.35.12,2.12,2.12,0,0,1,.37.19,1.29,1.29,0,0,1,.17.15h0l0,0a.9.9,0,0,0,0-.4,1.11,1.11,0,0,0-.15-.43,1.23,1.23,0,0,0-.33-.35,1.13,1.13,0,0,0-1-.17"/><path class="cls-42" d="M591.56,202.12a1,1,0,0,0-.74.8h0a1.06,1.06,0,0,1,.4-.1h.33a2.88,2.88,0,0,1,.51.1l.35.13a1.55,1.55,0,0,1,.36.21.93.93,0,0,1,.18.16h0l0,0a1.08,1.08,0,0,0,0-.4,1.12,1.12,0,0,0-.16-.43,1,1,0,0,0-.33-.35,1.14,1.14,0,0,0-.94-.16"/><path class="cls-43" d="M591.56,202.12a1,1,0,0,0-.74.78h0a.91.91,0,0,1,.41-.11h.33a2.19,2.19,0,0,1,.51.1,2.09,2.09,0,0,1,.35.13,1.57,1.57,0,0,1,.36.22.91.91,0,0,1,.17.17h0l0,0a1.08,1.08,0,0,0,0-.4,1.06,1.06,0,0,0-.16-.43,1.19,1.19,0,0,0-.33-.34,1.15,1.15,0,0,0-.94-.16"/><path class="cls-44" d="M591.56,202.12a1.05,1.05,0,0,0-.74.76h0a.9.9,0,0,1,.41-.13,1.82,1.82,0,0,1,.33,0,2.3,2.3,0,0,1,.51.1,2.13,2.13,0,0,1,.35.14,1.85,1.85,0,0,1,.36.23,1,1,0,0,1,.16.19h0l0,0a.9.9,0,0,0,0-.4,1.25,1.25,0,0,0-.17-.43,1.19,1.19,0,0,0-.33-.34,1.15,1.15,0,0,0-.93-.15"/><path class="cls-45" d="M591.56,202.12a1.06,1.06,0,0,0-.74.74h0a.9.9,0,0,1,.41-.15,1.29,1.29,0,0,1,.34,0,2.28,2.28,0,0,1,.51.09,1.75,1.75,0,0,1,.34.15,1.36,1.36,0,0,1,.36.25,1.54,1.54,0,0,1,.17.19h0l0,0a1.08,1.08,0,0,0,0-.4,1.25,1.25,0,0,0-.17-.43,1.15,1.15,0,0,0-1.26-.48"/><path class="cls-46" d="M591.56,202.12a1.06,1.06,0,0,0-.73.72h0a1,1,0,0,1,.42-.17,1.88,1.88,0,0,1,.34,0,1.84,1.84,0,0,1,.51.1,2.07,2.07,0,0,1,.34.15,1.38,1.38,0,0,1,.36.26,1.06,1.06,0,0,1,.16.21h0a.08.08,0,0,0,0,0,1.14,1.14,0,0,0,0-.41,1.12,1.12,0,0,0-.18-.42,1.29,1.29,0,0,0-.33-.33,1.13,1.13,0,0,0-.92-.14"/><path class="cls-47" d="M591.56,202.12a1.07,1.07,0,0,0-.73.7h0a1,1,0,0,1,.43-.19,1.22,1.22,0,0,1,.33,0,1.83,1.83,0,0,1,.52.09,1.5,1.5,0,0,1,.34.16,1.56,1.56,0,0,1,.35.27,1.53,1.53,0,0,1,.16.22v0a.05.05,0,0,1,0,0,1.14,1.14,0,0,0,0-.41,1.3,1.3,0,0,0-.18-.42,1,1,0,0,0-.34-.32,1.15,1.15,0,0,0-.91-.14"/><path class="cls-48" d="M591.56,202.12a1.08,1.08,0,0,0-.73.68h0a.88.88,0,0,1,.42-.21l.34,0a1.84,1.84,0,0,1,.52.1,1.5,1.5,0,0,1,.34.16,1.6,1.6,0,0,1,.35.28l.16.24h0l0,.05a1.41,1.41,0,0,0,0-.41,1.14,1.14,0,0,0-.19-.42,1.26,1.26,0,0,0-.33-.32,1.19,1.19,0,0,0-.91-.13"/><path class="cls-49" d="M591.56,202.12a1.1,1.1,0,0,0-.73.66h0a.93.93,0,0,1,.43-.22,1.32,1.32,0,0,1,.34,0,1.54,1.54,0,0,1,.52.09,2,2,0,0,1,.33.16,1.32,1.32,0,0,1,.35.31,1.07,1.07,0,0,1,.16.25h0l0,0a1.13,1.13,0,0,0,0-.41,1.23,1.23,0,0,0-.19-.42,1.26,1.26,0,0,0-.34-.31,1.17,1.17,0,0,0-.9-.13"/><path class="cls-50" d="M591.56,202.12a1.1,1.1,0,0,0-.72.64h0a.9.9,0,0,1,.44-.24,1.32,1.32,0,0,1,.34,0,1.44,1.44,0,0,1,.51.08,1.8,1.8,0,0,1,.34.17,1.78,1.78,0,0,1,.35.32,1.35,1.35,0,0,1,.15.26h0l0,.05a1.09,1.09,0,0,0,0-.4,1.25,1.25,0,0,0-.2-.42,1.18,1.18,0,0,0-.33-.3,1.17,1.17,0,0,0-.9-.13"/><path class="cls-51" d="M591.56,202.12a1.12,1.12,0,0,0-.72.62h0a.92.92,0,0,1,.44-.26,1.41,1.41,0,0,1,.35,0,1.44,1.44,0,0,1,.51.09,1.35,1.35,0,0,1,.34.17,1.52,1.52,0,0,1,.34.33,1.56,1.56,0,0,1,.16.28h0l0,.05a1.35,1.35,0,0,0,0-.4,1.17,1.17,0,0,0-.2-.42,1.22,1.22,0,0,0-.34-.3,1.19,1.19,0,0,0-.89-.12"/><path class="cls-52" d="M591.56,202.12a1.14,1.14,0,0,0-.72.6h0a1,1,0,0,1,.45-.28,1.41,1.41,0,0,1,.35-.05,1.27,1.27,0,0,1,.51.08,2.21,2.21,0,0,1,.34.18,1.62,1.62,0,0,1,.34.35,1.25,1.25,0,0,1,.15.28v0s0,0,0,0a1.35,1.35,0,0,0,0-.4,1,1,0,0,0-.21-.42,1.13,1.13,0,0,0-.33-.29,1.19,1.19,0,0,0-.89-.12"/><path class="cls-53" d="M593,203.28h0a2.11,2.11,0,0,0-.16-.3,1.36,1.36,0,0,0-.67-.54,1.27,1.27,0,0,0-.86,0,1,1,0,0,0-.45.3h0a1.16,1.16,0,0,1,1.6-.47,1.58,1.58,0,0,1,.34.29,1.19,1.19,0,0,1,.21.42,1.08,1.08,0,0,1,0,.4.14.14,0,0,0,0-.06"/><path class="cls-54" d="M591.4,203.37a.47.47,0,0,0,.58.33.48.48,0,0,0,.34-.59.48.48,0,0,0-.59-.33.46.46,0,0,0-.33.59"/><path class="cls-55" d="M591.4,203.36a.47.47,0,0,0,.58.34.48.48,0,0,0,.34-.59.48.48,0,0,0-.59-.33.47.47,0,0,0-.33.58"/><path class="cls-56" d="M591.4,203.36a.47.47,0,1,0,.33-.58.47.47,0,0,0-.33.58"/><path class="cls-57" d="M591.4,203.36a.47.47,0,0,0,.58.33.47.47,0,1,0-.58-.33"/><path class="cls-58" d="M591.4,203.36a.47.47,0,1,0,.33-.58.47.47,0,0,0-.33.58"/><path class="cls-59" d="M591.4,203.36a.47.47,0,1,0,.91-.25.48.48,0,0,0-.58-.33.47.47,0,0,0-.33.58"/><path class="cls-60" d="M591.4,203.36a.47.47,0,0,0,.58.33.48.48,0,0,0,.33-.58.47.47,0,0,0-.58-.32.46.46,0,0,0-.33.57"/><path class="cls-61" d="M591.41,203.36a.46.46,0,0,0,.57.33.47.47,0,0,0,.32-.58.46.46,0,1,0-.89.25"/><path class="cls-62" d="M591.41,203.36a.46.46,0,1,0,.32-.57.46.46,0,0,0-.32.57"/><path class="cls-63" d="M591.41,203.36a.46.46,0,0,0,.89-.25.46.46,0,1,0-.89.25"/><path class="cls-53" d="M591.41,203.36a.46.46,0,0,0,.57.32.46.46,0,0,0,.32-.57.47.47,0,0,0-.57-.32.46.46,0,0,0-.32.57"/><path class="cls-52" d="M591.41,203.36a.46.46,0,0,0,.89-.24.46.46,0,1,0-.89.24"/><path class="cls-64" d="M591.41,203.36a.46.46,0,0,0,.89-.24.46.46,0,0,0-.57-.32.46.46,0,0,0-.32.56"/><path class="cls-65" d="M591.41,203.36a.47.47,0,0,0,.57.32.45.45,0,0,0,.31-.56.44.44,0,0,0-.56-.32.46.46,0,0,0-.32.56"/><path class="cls-66" d="M591.42,203.36a.45.45,0,0,0,.87-.24.45.45,0,1,0-.87.24"/><path class="cls-67" d="M591.42,203.36a.45.45,0,0,0,.87-.24.46.46,0,0,0-.56-.32.45.45,0,0,0-.31.56"/><path class="cls-68" d="M591.42,203.36a.44.44,0,0,0,.55.31.45.45,0,0,0,.32-.55.47.47,0,0,0-.56-.32.45.45,0,0,0-.31.56"/><path class="cls-69" d="M591.42,203.36a.45.45,0,0,0,.55.31.46.46,0,0,0,.32-.55.46.46,0,0,0-.55-.32.47.47,0,0,0-.32.56"/><path class="cls-70" d="M591.42,203.36a.46.46,0,0,0,.55.31.44.44,0,0,0,.31-.55.43.43,0,0,0-.54-.31.45.45,0,0,0-.32.55"/><path class="cls-71" d="M591.42,203.35a.46.46,0,0,0,.55.32.44.44,0,0,0,.31-.55.43.43,0,0,0-.54-.31.45.45,0,0,0-.32.54"/><path class="cls-72" d="M591.43,203.35a.44.44,0,1,0,.85-.23.44.44,0,0,0-.54-.31.43.43,0,0,0-.31.54"/><path class="cls-73" d="M591.43,203.35a.43.43,0,0,0,.54.31.44.44,0,0,0,.31-.54.44.44,0,0,0-.54-.31.44.44,0,0,0-.31.54"/><path class="cls-74" d="M591.43,203.35a.43.43,0,0,0,.54.31.45.45,0,0,0,.31-.54.45.45,0,0,0-.54-.31.44.44,0,0,0-.31.54"/><path class="cls-75" d="M591.43,203.35a.44.44,0,0,0,.54.31.44.44,0,1,0-.23-.85.44.44,0,0,0-.31.54"/><path class="cls-76" d="M591.43,203.35a.45.45,0,0,0,.54.31.44.44,0,0,0,.3-.54.42.42,0,0,0-.53-.3.43.43,0,0,0-.31.53"/><path class="cls-77" d="M591.43,203.35a.45.45,0,0,0,.54.31.44.44,0,0,0,.3-.54.42.42,0,0,0-.53-.3.44.44,0,0,0-.31.53"/><path class="cls-78" d="M591.44,203.35a.42.42,0,0,0,.53.3.43.43,0,0,0,.3-.53.43.43,0,0,0-.83.23"/><path class="cls-79" d="M591.44,203.35a.43.43,0,1,0,.83-.23.44.44,0,0,0-.53-.3.42.42,0,0,0-.3.53"/><path class="cls-80" d="M591.44,203.35a.43.43,0,1,0,.83-.23.43.43,0,0,0-.83.23"/><path class="cls-81" d="M591.44,203.35a.43.43,0,0,0,.53.3.43.43,0,1,0-.53-.3"/><path class="cls-82" d="M591.44,203.35a.43.43,0,1,0,.82-.23.41.41,0,0,0-.52-.29.42.42,0,0,0-.3.52"/><path class="cls-83" d="M591.44,203.35a.42.42,0,0,0,.52.29.42.42,0,1,0-.52-.29"/><path class="cls-84" d="M591.45,203.35a.41.41,0,0,0,.51.29.42.42,0,0,0,.3-.52.43.43,0,0,0-.52-.29.41.41,0,0,0-.29.52"/><path class="cls-85" d="M591.45,203.35a.42.42,0,0,0,.81-.23.43.43,0,0,0-.52-.29.41.41,0,0,0-.29.52"/><path class="cls-86" d="M591.45,203.35a.42.42,0,0,0,.51.29.41.41,0,0,0,.29-.52.42.42,0,0,0-.51-.29.42.42,0,0,0-.29.52"/><path class="cls-87" d="M591.45,203.35a.41.41,0,1,0,.29-.52.42.42,0,0,0-.29.52"/><path class="cls-88" d="M591.45,203.35a.41.41,0,1,0,.29-.52.43.43,0,0,0-.29.52"/><path class="cls-89" d="M591.45,203.34a.41.41,0,0,0,.8-.21.42.42,0,0,0-.51-.29.41.41,0,0,0-.29.5"/><path class="cls-90" d="M591.45,203.34a.42.42,0,0,0,.51.29.41.41,0,0,0,.29-.5.42.42,0,0,0-.51-.29.41.41,0,0,0-.29.5"/><path class="cls-91" d="M591.46,203.34a.41.41,0,0,0,.5.29.41.41,0,0,0,.29-.5.42.42,0,0,0-.51-.29.4.4,0,0,0-.28.5"/><path class="cls-92" d="M591.46,203.34a.4.4,0,1,0,.28-.5.41.41,0,0,0-.28.5"/><path class="cls-93" d="M591.46,203.34a.41.41,0,0,0,.5.29.41.41,0,0,0,.28-.5.41.41,0,0,0-.5-.29.41.41,0,0,0-.28.5"/><path class="cls-94" d="M591.46,203.34a.4.4,0,1,0,.28-.5.41.41,0,0,0-.28.5"/><path class="cls-95" d="M591.46,203.34a.4.4,0,1,0,.28-.49.4.4,0,0,0-.28.49"/><path class="cls-96" d="M591.46,203.34a.4.4,0,0,0,.78-.21.41.41,0,0,0-.5-.28.4.4,0,0,0-.28.49"/><path class="cls-97" d="M591.46,203.34a.4.4,0,1,0,.28-.49.41.41,0,0,0-.28.49"/><path class="cls-98" d="M591.47,203.34a.39.39,0,1,0,.76-.21.39.39,0,1,0-.76.21"/><path class="cls-99" d="M591.47,203.34a.4.4,0,0,0,.48.28.39.39,0,0,0,.28-.49.41.41,0,0,0-.49-.28.4.4,0,0,0-.27.49"/><path class="cls-100" d="M591.47,203.34a.39.39,0,0,0,.76-.21.41.41,0,0,0-.49-.28.4.4,0,0,0-.27.49"/><path class="cls-101" d="M591.47,203.34a.39.39,0,0,0,.48.27.39.39,0,1,0-.21-.75.39.39,0,0,0-.27.48"/><path class="cls-102" d="M591.47,203.34a.39.39,0,0,0,.48.27.4.4,0,0,0,.28-.48.39.39,0,0,0-.48-.27.4.4,0,0,0-.28.48"/><path class="cls-103" d="M591.47,203.34a.4.4,0,0,0,.48.27.39.39,0,0,0,.27-.48.38.38,0,0,0-.47-.27.4.4,0,0,0-.28.48"/><path class="cls-104" d="M591.48,203.34a.39.39,0,0,0,.47.27.39.39,0,0,0,.27-.48.38.38,0,0,0-.47-.27.39.39,0,0,0-.27.48"/><path class="cls-105" d="M591.48,203.34a.39.39,0,0,0,.47.27.39.39,0,0,0,.27-.48.4.4,0,0,0-.47-.27.39.39,0,0,0-.27.48"/><path class="cls-106" d="M591.48,203.34a.38.38,0,0,0,.74-.21.4.4,0,0,0-.47-.27.39.39,0,0,0-.27.48"/><path class="cls-107" d="M591.48,203.33a.38.38,0,0,0,.47.27.39.39,0,0,0,.27-.47.38.38,0,0,0-.47-.26.36.36,0,0,0-.27.46"/><path class="cls-108" d="M591.48,203.33a.38.38,0,0,0,.47.27.39.39,0,0,0,.27-.47.38.38,0,0,0-.47-.26.37.37,0,0,0-.27.46"/><path class="cls-109" d="M591.48,203.33a.39.39,0,0,0,.47.27.38.38,0,0,0,.26-.47.37.37,0,0,0-.46-.26.38.38,0,0,0-.27.46"/><path class="cls-110" d="M591.49,203.33a.37.37,0,1,0,.72-.2.37.37,0,0,0-.72.2"/><path class="cls-111" d="M591.49,203.33a.37.37,0,0,0,.46.26.37.37,0,0,0,.26-.46.38.38,0,0,0-.46-.26.37.37,0,0,0-.26.46"/><path class="cls-112" d="M591.49,203.33a.37.37,0,0,0,.46.26.37.37,0,0,0,.26-.46.39.39,0,0,0-.46-.26.37.37,0,0,0-.26.46"/></g><path class="cls-113" d="M712.79,200.72l51.49,46.51a6.79,6.79,0,0,1,.49,9.57l-27.23,30.14a6.79,6.79,0,0,1-9.56.49l-51.5-46.52a6.79,6.79,0,0,1-.49-9.56l27.23-30.15a6.8,6.8,0,0,1,9.57-.48"/><rect class="cls-114" x="721.98" y="194.78" width="10.93" height="82.94" transform="translate(64.53 617.73) rotate(-47.91)"/><rect class="cls-115" x="703.45" y="210.13" width="6.88" height="52.79" transform="translate(57.54 602.56) rotate(-47.91)"/><rect class="cls-115" x="732.9" y="252.82" width="6.88" height="20.6" transform="translate(47.5 633.17) rotate(-47.91)"/><g class="cls-116"><g class="cls-117"><path class="cls-118" d="M690,253.11l38,34.32a6.79,6.79,0,0,0,9.56-.49l27.23-30.14a6.79,6.79,0,0,0-.49-9.57L748.9,233.34Z"/></g></g><path class="cls-119" d="M730.24,371.57H594.06c-3.63,1.75-14.18,8.31-12.95,24.67h158.2a7.56,7.56,0,0,1,0,15.11H574.63a7.55,7.55,0,0,1-7.38-5.92c-5.39-24.39,6.4-39,16.68-45.51L561.26,252.15l-49.68-20.37a7.55,7.55,0,1,1,5.73-14l53.39,21.88a7.59,7.59,0,0,1,3.81,3.47H777.29a7.57,7.57,0,1,1,0,15.1H768L737.51,366.07a7.56,7.56,0,0,1-7.27,5.5m-131.6-15.11h13.61l-2-13.88H595.72Zm-5.46-26h15.44l-2.18-15.58H589.9Zm-5.82-27.67h17.38l-2.17-15.58H584.08Zm-5.82-27.67h19.34l-2.36-16.9H578Zm29.18-16.9,2.36,16.9h25.19l-.66-16.9Zm39,0,.66,16.9h23.71l1.44-16.9Zm37.94,0-1.44,16.9h24l2.54-16.9Zm37.31,0-2.53,16.9h25.11l4.78-16.9ZM698,356.46l2.07-13.88H680.48l-1.18,13.88Zm3.89-26,2.33-15.58H682.83l-1.33,15.58Zm4.14-27.67,2.34-15.58H685.19l-1.33,15.58Zm14.56-15.58-2.34,15.58h21.43l4.41-15.58Zm-4.15,27.67-2.33,15.58h17.74l4.41-15.58Zm-4.15,27.67-2.07,13.88h14.29l3.92-13.88Zm-45.15,13.88,1.18-13.88H653l.54,13.88Zm2.21-26,1.32-15.58H651.92l.61,15.58Zm2.35-27.67,1.32-15.58H650.84l.61,15.58Zm-30.28,53.64-.54-13.88h-18.4l1.94,13.88Zm-1-26-.6-15.58H618.64l2.18,15.58Zm-1.08-27.67-.6-15.58h-24L617,302.82Z"/><path class="cls-120" d="M605.1,439a11.33,11.33,0,1,1-11.34-11.33A11.34,11.34,0,0,1,605.1,439"/><path class="cls-119" d="M616.18,439a22.42,22.42,0,1,1-22.42-22.42A22.42,22.42,0,0,1,616.18,439"/><path class="cls-118" d="M605.1,439a11.33,11.33,0,1,1-11.34-11.33A11.33,11.33,0,0,1,605.1,439"/><path class="cls-119" d="M735.74,439a22.42,22.42,0,1,1-22.41-22.42A22.42,22.42,0,0,1,735.74,439"/><path class="cls-118" d="M724.65,439a11.33,11.33,0,1,1-11.32-11.33A11.32,11.32,0,0,1,724.65,439"/><path class="cls-121" d="M528.61,397s-5.42.59-13.55,1.31l-6.55.55-7.33.58c-2.53.19-5.16.4-7.82.55l-8.09.51c-2.71.17-5.41.42-8.08.68s-5.29.5-7.83.53a66.33,66.33,0,0,1-7.32-.36c-2.33-.21-4.53-.5-6.56-.84a75.82,75.82,0,0,1-9.82-2.21c-1.18-.37-2.11-.68-2.75-.92l-1-.38v-1s.34-.15,1-.38,1.57-.56,2.75-.92a77.28,77.28,0,0,1,9.82-2.22c2-.33,4.23-.62,6.56-.84a66.39,66.39,0,0,1,7.32-.35c2.54,0,5.16.25,7.83.52s5.37.52,8.08.69l8.09.5c2.66.15,5.29.37,7.82.56l7.33.57,6.55.56c8.13.71,13.55,1.31,13.55,1.31Z"/><path class="cls-121" d="M537.5,426.45s-3.88,1.41-9.73,3.35L523,431.35c-1.68.56-3.46,1.1-5.29,1.68s-3.73,1.19-5.67,1.75l-5.86,1.73c-2,.58-3.91,1.24-5.83,1.9a51.44,51.44,0,0,1-5.67,1.72,37.39,37.39,0,0,1-5.48.77c-1.76.14-3.44.2-5,.18a46.26,46.26,0,0,1-7.7-.67c-.94-.17-1.69-.34-2.21-.48s-.8-.22-.8-.22l-.2-1s.22-.19.64-.52,1-.78,1.84-1.32a46.13,46.13,0,0,1,6.8-3.67c1.43-.64,3-1.26,4.67-1.83a38.21,38.21,0,0,1,5.34-1.47,52,52,0,0,1,5.88-.68c2-.15,4.07-.32,6.11-.57l6.06-.74c2-.26,4-.45,5.9-.65s3.76-.41,5.52-.56l4.95-.46c6.14-.55,10.26-.79,10.26-.79Z"/><path class="cls-121" d="M532.05,364.29c-5.5-.14-11-.48-16.44-.8l-8.19-.57-8.16-.71c-2.72-.25-5.47-.32-8.21-.45a36.1,36.1,0,0,1-8.06-1.33,59.36,59.36,0,0,1-7.8-2.83,38.06,38.06,0,0,1-7.53-4.37l.17-1a38.09,38.09,0,0,1,8.56-1.61,59,59,0,0,1,8.3-.06,36.08,36.08,0,0,1,8,1.43c2.62.8,5.24,1.65,7.88,2.32l7.94,2.05,7.91,2.2c5.26,1.52,10.53,3,15.76,4.73Z"/><path class="cls-115" d="M300.77,293.89a27.93,27.93,0,0,0,10.76-15.13c8.08-30.83-38.31-45.95-55.33-26C233.25,279.64,275.8,312.22,300.77,293.89Z"/><path class="cls-115" d="M326.24,261.68a21.61,21.61,0,0,0,20.26,12.05c8.09-.51,15.39-6.13,18.62-13.78s2.47-17-1.56-24.55C348.21,206.74,315.12,238.51,326.24,261.68Z"/><path d="M301.2,260.64a7,7,0,0,0-4.45-3.24c-9.81-2.53-16.83,10.88-7,16.73C298.63,279.41,305,267.06,301.2,260.64Z"/><path d="M329.76,247c-4.85,5.67,1.82,18.69,11.42,11.36,7.07-10-5.35-17-10.8-12"/><path class="cls-4" d="M246.05,285.92l71.76,0q1.1,9.89,2.2,19.76c.16,1.45.28,3.08-.61,4.17a4.76,4.76,0,0,1-2.64,1.35c-23.43,6.15-49.5,2.18-70.94-10.82-3.76-2.28-7.88-5.84-7.36-10.25"/><path class="cls-4" d="M330.59,275.82q19.29-15.76,38-32.27,1.81,4.2,3.62,8.4c2.14,5,4.33,10.32,3.44,15.57-1.3,7.53-8.58,12.45-14.47,15.67a61.5,61.5,0,0,1-16.74,6.26,18,18,0,0,1-8.29.22,8.64,8.64,0,0,1-6.26-5.76"/><path class="cls-4" d="M252.46,236.7c-3.73.52-15.93.63-13.39,6.81,2.38,5.81,12.22,5.59,16.72,6.05,9.55,1,19,2.52,28.55,4.07l28.12,4.58q-2.7-9.66-5.41-19.32a4.94,4.94,0,0,0-1.07-2.23,4.41,4.41,0,0,0-3-.88"/><path class="cls-4" d="M319,258.46l36.92-41.4a15.48,15.48,0,0,0-15.68-4.85c-5.11,1.52-8.94,5.75-12.22,10.06A115.86,115.86,0,0,0,315.93,242c-1.67,3.46-3.19,7.55-1.67,11.21"/><polyline class="cls-122" points="243.44 249.37 310.02 257.57 308.11 250.21"/><polyline class="cls-122" points="320.27 246.54 322.57 255.98 360.08 208.26"/><path class="cls-123" d="M302.43,336c-8.76-3-23.62-16.38-17.87-27,2.88-5.29,6.05-5.47,11.69-4.58,7.56,1.2,14.77,3,22.42,1,10.83-2.89,17.58-10.52,24.6-18.78,3.88-4.58,11.47-17.33,17.77-9.43,4,5.09,4.39,14,3,20a51.72,51.72,0,0,1-25,34C328,337.72,314.77,340.2,302.43,336Z"/><g class="cls-124"><path class="cls-125" d="M277.69,323.34c13.07-12.46,34.13-16.3,50.69-9,5.71,2.51,11.31,5,16.32,8.75,1,.77,4.47,2.73,4.76,4,1.37,6.22-14.81,12.95-18.71,14.65C314.49,348.85,283.8,348.11,277.69,323.34Z"/></g><g class="cls-126"><polygon class="cls-115" points="346.64 266.61 360.49 285 350.87 289.23 345.26 300.65 334.27 304.24 317.35 317.77 302.98 312.8 293.78 321.89 273.69 316.29 282.47 293.67 312.6 273.9 346.64 266.61"/></g></g></g></svg>