<svg xmlns="http://www.w3.org/2000/svg" xmlns:xlink="http://www.w3.org/1999/xlink" viewBox="0 0 701.41 459.84"><defs><style>.cls-1,.cls-9{fill:none;}.cls-2{fill:#ea4e57;}.cls-3{fill:#da8e3d;}.cls-4{fill:#9fecff;}.cls-5{fill:#def8ff;}.cls-6{fill:#f2707c;}.cls-7{fill:#e85931;}.cls-8{fill:#fff;}.cls-9{stroke:#201842;stroke-linecap:round;stroke-linejoin:round;stroke-width:16px;}.cls-10{opacity:0.07;}.cls-11{fill:#201842;}.cls-12{fill:#9e0242;}.cls-13{clip-path:url(#clip-path);}.cls-14{fill:#ce2764;}</style><clipPath id="clip-path"><path class="cls-1" d="M260.37,242.21c-9.49-3-18.45-4.35-24.5,5.36-13.54,21.79,12.5,40.79,32,41.74,11.07.54,22-2.31,32.51-6,21.84-7.59,51-22,45.9-50-.73-3.9-2.25-7.82-5.21-10.47-11.4-10.18-31.13,8.4-40.7,13.76C287.29,244.05,274.74,246.81,260.37,242.21Z"/></clipPath></defs><title>kredsupermarche2</title><g id="Calque_2" data-name="Calque 2"><g id="Calque_1-2" data-name="Calque 1"><g id="Calque_2-2" data-name="Calque 2"><g id="Calque_1-2-2" data-name="Calque 1-2"><rect class="cls-2" x="155.13" y="112.29" width="546.28" height="269.22"/><rect class="cls-3" x="341.89" y="190.96" width="332.63" height="125.04"/><rect class="cls-4" x="348.24" y="200.05" width="319.94" height="106.86"/><path class="cls-5" d="M444.91,284.42,499,200.05h-6.62l-47.48,74.06Zm0-20.63V243.16l27.64-43.11h13.24Zm0-30.9V222.53l14.42-22.48h6.61Zm-14.38,74L445,284.42V274.11l-21,32.8ZM445,222.53v10.32l-47.49,74.06h-6.65Zm0,20.63v20.63l-27.66,43.12H404.05Z"/><rect class="cls-3" x="244.71" y="190.96" width="73.47" height="190.55"/><rect class="cls-4" x="251.05" y="199.46" width="60.78" height="182.05"/><rect class="cls-3" x="311.84" y="369.3" width="389.57" height="12.22"/><rect class="cls-3" x="177.59" y="190.96" width="73.47" height="190.55"/><rect class="cls-4" x="183.93" y="199.46" width="60.78" height="182.05"/><polygon class="cls-5" points="183.93 318.32 244.71 223.54 244.71 213.76 183.93 308.55 183.93 318.32"/><polygon class="cls-5" points="183.93 347.66 244.71 252.88 244.71 233.32 183.93 328.1 183.93 347.66"/><polygon class="cls-5" points="183.93 367.21 244.71 272.43 244.71 262.66 183.93 357.44 183.93 367.21"/><rect class="cls-3" x="221.92" y="82.75" width="14.19" height="40.07"/><rect class="cls-3" x="340.04" y="82.75" width="14.19" height="40.07"/><rect class="cls-3" x="458.17" y="82.75" width="14.19" height="40.07"/><rect class="cls-3" x="564" y="82.75" width="12.3" height="40.07"/><rect class="cls-2" x="155.13" width="546.28" height="85.72"/><rect class="cls-6" x="155.13" y="112.29" width="546.28" height="34.83"/><path class="cls-5" d="M543.9,284.42l27.62-84.37h-6.61l-21,74.06Zm0-20.63V243.16l27.65-43.11H558.31Zm0-30.9V222.53l14.41-22.48h6.62ZM529.48,307l14.42-22.48V274.11l-21,32.8Zm14.42-84.38v10.32L496.4,307h-6.61Zm0,20.63v20.63l-27.65,43.08H503Z"/><polygon class="cls-5" points="251.05 318.32 311.84 223.54 311.84 213.76 251.05 308.55 251.05 318.32"/><polygon class="cls-5" points="251.05 347.66 311.84 252.88 311.84 233.32 251.05 328.1 251.05 347.66"/><polygon class="cls-5" points="251.05 367.21 311.84 272.43 311.84 262.66 251.05 357.44 251.05 367.21"/><rect class="cls-7" x="155.13" y="369.3" width="22.46" height="12.22"/><rect class="cls-6" x="163.97" y="15.07" width="528.6" height="55.58"/><path class="cls-8" d="M341,36.44h-4.67V35.31a5.5,5.5,0,0,0-.76-3A2.73,2.73,0,0,0,333,31.11a3,3,0,0,0-1.58.38,2.9,2.9,0,0,0-1,1,4.44,4.44,0,0,0-.48,1.41,10.61,10.61,0,0,0-.14,1.69,13.27,13.27,0,0,0,.07,1.76,3.06,3.06,0,0,0,.35,1.22,2.84,2.84,0,0,0,.8.89,7.12,7.12,0,0,0,1.44.77l3.53,1.52a8.55,8.55,0,0,1,2.56,1.49,6,6,0,0,1,1.49,2,8.69,8.69,0,0,1,.71,2.64,27.67,27.67,0,0,1,.18,3.4,18.05,18.05,0,0,1-.41,4.08,8.8,8.8,0,0,1-1.35,3.22,6.57,6.57,0,0,1-2.49,2.13,8.6,8.6,0,0,1-3.81.79,8,8,0,0,1-3.16-.64,7.5,7.5,0,0,1-2.51-1.74,7.92,7.92,0,0,1-1.68-2.65,8.92,8.92,0,0,1-.62-3.27V51.36h4.67V53a4.34,4.34,0,0,0,.76,2.47,2.83,2.83,0,0,0,2.54,1.06,4,4,0,0,0,1.86-.36,2.37,2.37,0,0,0,1-1,4.46,4.46,0,0,0,.45-1.63c.06-.66.08-1.37.08-2.16a19.43,19.43,0,0,0-.08-2.25,3.87,3.87,0,0,0-.4-1.41,2.39,2.39,0,0,0-.82-.88,12.48,12.48,0,0,0-1.4-.74l-3.34-1.46a7.55,7.55,0,0,1-4-3.53,12.61,12.61,0,0,1-1-5.45,13.74,13.74,0,0,1,.51-3.72,8.8,8.8,0,0,1,1.49-3,7,7,0,0,1,2.5-2,7.7,7.7,0,0,1,3.53-.76,7.12,7.12,0,0,1,3.18.69,7.63,7.63,0,0,1,2.47,1.81A8,8,0,0,1,341,33.93Z"/><path class="cls-8" d="M359.59,53.4a8.34,8.34,0,0,1-2.22,5.74,7.87,7.87,0,0,1-2.4,1.77,7.05,7.05,0,0,1-5.86,0,7.76,7.76,0,0,1-2.43-1.77,8.09,8.09,0,0,1-1.63-2.56,8.43,8.43,0,0,1-.59-3.18v-27h4.67V52.9a3.93,3.93,0,0,0,.82,2.74,2.85,2.85,0,0,0,4,.09.76.76,0,0,0,.09-.09,3.84,3.84,0,0,0,.83-2.74V26.42h4.67Z"/><path class="cls-8" d="M364,26.42h7a9.79,9.79,0,0,1,3.39.54,6.58,6.58,0,0,1,2.64,1.9,7.52,7.52,0,0,1,1.65,3.21,20.65,20.65,0,0,1,.46,5A26,26,0,0,1,378.9,41,9,9,0,0,1,377.82,44a7,7,0,0,1-2.57,2.65,8.24,8.24,0,0,1-4.21,1h-2.38V61.26H364Zm4.67,16.52h2.24a4.53,4.53,0,0,0,2.2-.44,2.6,2.6,0,0,0,1.14-1.2,4.78,4.78,0,0,0,.44-1.83c0-.71.07-1.51.07-2.4s0-1.58-.07-2.32a5.88,5.88,0,0,0-.41-1.9,2.8,2.8,0,0,0-1.11-1.27,3.89,3.89,0,0,0-2.11-.46h-2.39Z"/><path class="cls-8" d="M382.62,26.42h13.93v4.7h-9.27V41.33h8.07V46h-8.07V56.24h9.27v5H382.62Z"/><path class="cls-8" d="M399.57,26.42h7.51q8.25,0,8.25,10.22a13.79,13.79,0,0,1-.89,5.2,7.11,7.11,0,0,1-3.14,3.53l5,15.89H411.4l-4.35-14.87h-2.8V61.22h-4.67ZM404.24,42h2.65a4.48,4.48,0,0,0,2-.36A2.58,2.58,0,0,0,410,40.55a4.72,4.72,0,0,0,.53-1.68,19.38,19.38,0,0,0,0-4.65,4.34,4.34,0,0,0-.58-1.71,2.63,2.63,0,0,0-1.21-1,5.16,5.16,0,0,0-2.06-.34h-2.43Z"/><path class="cls-8" d="M419.06,26.42h4.49l6,18.43h.1l6-18.43h4.54v34.8h-4.66V40h-.1l-4.62,15h-2.34l-4.58-15h-.09V61.22h-4.69Z"/><path class="cls-8" d="M449.72,26.42h3.89l7.28,34.8h-4.67l-1.38-7.47h-6.36l-1.37,7.47h-4.68Zm2,10h-.09l-2.28,12.61H454Z"/><path class="cls-8" d="M463.19,26.42h7.51q8.25,0,8.24,10.22a13.56,13.56,0,0,1-.88,5.2,7.14,7.14,0,0,1-3.13,3.53l5,15.89h-5l-4.35-14.87h-2.79V61.22h-4.68ZM467.86,42h2.65a4.43,4.43,0,0,0,2-.36,2.64,2.64,0,0,0,1.12-1.05,4.78,4.78,0,0,0,.53-1.68,16.47,16.47,0,0,0,.13-2.33,16.41,16.41,0,0,0-.13-2.32,4.55,4.55,0,0,0-.57-1.71,2.65,2.65,0,0,0-1.22-1,5.19,5.19,0,0,0-2.06-.34h-2.42Z"/><path class="cls-8" d="M497.53,53.45a8.54,8.54,0,0,1-.57,3.08A7.88,7.88,0,0,1,493,60.91a6.52,6.52,0,0,1-2.91.66,10.24,10.24,0,0,1-2.7-.39,6.29,6.29,0,0,1-2.47-1.35,7.18,7.18,0,0,1-1.81-2.52,9.39,9.39,0,0,1-.71-4V34.14A8.78,8.78,0,0,1,483,31a7.5,7.5,0,0,1,1.55-2.55,7.23,7.23,0,0,1,2.41-1.68,7.48,7.48,0,0,1,3.09-.61,7.14,7.14,0,0,1,5.36,2.32A8,8,0,0,1,497,31.1a9.64,9.64,0,0,1,.57,3.33v2h-4.67V34.73a4.2,4.2,0,0,0-.78-2.54,2.45,2.45,0,0,0-2.1-1.07,2.32,2.32,0,0,0-2.32,1.14,6.52,6.52,0,0,0-.57,2.92V53a4.79,4.79,0,0,0,.62,2.54,2.39,2.39,0,0,0,2.22,1,3.19,3.19,0,0,0,1-.16,2.68,2.68,0,0,0,1.67-1.65,4.52,4.52,0,0,0,.28-1.71V51.3h4.67Z"/><path class="cls-8" d="M501.34,26.42H506V41.33h5.73V26.42h4.68v34.8h-4.68V45.72H506v15.5h-4.67Z"/><path class="cls-8" d="M520.84,26.42h13.92v4.7h-9.25V41.33h8.06V46h-8.06V56.24h9.25v5H520.84ZM528.72,18h4.94l-6,6.89h-3Z"/><rect class="cls-2" x="353.32" y="205.89" width="58" height="60.94"/><path class="cls-8" d="M361.58,216.32h1.76a2.47,2.47,0,0,1,.89.13,1.8,1.8,0,0,1,.68.48,2,2,0,0,1,.42.81,4.77,4.77,0,0,1,.11,1.25,5.49,5.49,0,0,1-.06,1,2.15,2.15,0,0,1-.27.77,2,2,0,0,1-.66.68,2.17,2.17,0,0,1-1.09.23h-.61v3.43h-1.2Zm1.2,4.16h.57a1.24,1.24,0,0,0,.57-.11.86.86,0,0,0,.3-.3,1.23,1.23,0,0,0,.1-.46v-1.19a1.34,1.34,0,0,0-.1-.49.72.72,0,0,0-.28-.32,1.09,1.09,0,0,0-.54-.11h-.62Z"/><path class="cls-8" d="M366.37,216.32h1.93c1.41,0,2.11.88,2.11,2.57a3.1,3.1,0,0,1-.23,1.31,1.72,1.72,0,0,1-.8.88l1.3,4h-1.27l-1.12-3.75h-.72v3.75h-1.2Zm1.2,3.91h.68a1.06,1.06,0,0,0,.5-.09.66.66,0,0,0,.3-.27,1,1,0,0,0,.13-.42,5.72,5.72,0,0,0,0-1.17,1.09,1.09,0,0,0-.14-.43.68.68,0,0,0-.32-.26,1.21,1.21,0,0,0-.53-.09h-.62Z"/><path class="cls-8" d="M371.31,218.38a2.44,2.44,0,0,1,.18-.93,2.1,2.1,0,0,1,.46-.68,2,2,0,0,1,.65-.39,1.95,1.95,0,0,1,1.45,0,1.89,1.89,0,0,1,1.11,1.07,2.44,2.44,0,0,1,.18.93V223a2.19,2.19,0,0,1-.18.94,1.74,1.74,0,0,1-.47.67,1.92,1.92,0,0,1-.64.4,2.23,2.23,0,0,1-.72.13,2,2,0,0,1-.73-.13,1.9,1.9,0,0,1-1.11-1.07,2.19,2.19,0,0,1-.18-.94Zm1.2,4.64a.87.87,0,0,0,.24.67.89.89,0,0,0,.58.22.81.81,0,0,0,.81-.89v-4.64a.92.92,0,0,0-.25-.67.78.78,0,0,0-.56-.21.88.88,0,0,0-.58.21.91.91,0,0,0-.24.67Z"/><path class="cls-8" d="M376.4,216.32h1.17l1.54,4.64h0l1.53-4.64h1.16v8.77h-1.2v-5.3h0l-1.19,3.78h-.6l-1.18-3.78h0v5.3h-1.21Z"/><path class="cls-8" d="M382.87,218.38a2.12,2.12,0,0,1,.18-.93,2,2,0,0,1,.46-.68,2,2,0,0,1,.65-.39,1.92,1.92,0,0,1,1.45,0,2,2,0,0,1,.65.39,2,2,0,0,1,.47.68,2.26,2.26,0,0,1,.17.93V223a2.34,2.34,0,0,1-.17.94,2,2,0,0,1-1.12,1.07,2.13,2.13,0,0,1-1.45,0,2.08,2.08,0,0,1-.65-.4,1.91,1.91,0,0,1-.46-.67,2.19,2.19,0,0,1-.18-.94Zm1.21,4.64a.84.84,0,0,0,.24.67.87.87,0,0,0,1.13,0,.84.84,0,0,0,.25-.67v-4.64a.84.84,0,0,0-.25-.67.81.81,0,0,0-1.37.67Z"/><path class="cls-8" d="M388.75,217.5h-1.39v-1.18h4v1.18h-1.4v7.59h-1.2Z"/><path class="cls-8" d="M391.9,216.32h1.2v8.77h-1.2Z"/><path class="cls-8" d="M394.19,218.38a2.44,2.44,0,0,1,.18-.93,2,2,0,0,1,.47-.68,1.9,1.9,0,0,1,.64-.39,1.94,1.94,0,0,1,1.46,0,1.9,1.9,0,0,1,.64.39,2,2,0,0,1,.47.68,2.44,2.44,0,0,1,.18.93V223a2.53,2.53,0,0,1-.18.94,2.08,2.08,0,0,1-.47.67,1.92,1.92,0,0,1-.64.4,2.15,2.15,0,0,1-1.46,0,1.92,1.92,0,0,1-.64-.4,2.08,2.08,0,0,1-.47-.67,2.53,2.53,0,0,1-.18-.94ZM395.4,223a.81.81,0,0,0,1.38.67A.84.84,0,0,0,397,223v-4.64a.92.92,0,0,0-.25-.67.81.81,0,0,0-1.38.67Z"/><path class="cls-8" d="M399.23,216.32h1.16l1.77,5.29h0v-5.29h1.2v8.77h-1.07l-1.84-5.3h0v5.3h-1.2Z"/><path class="cls-8" d="M361.41,238.69l2.17-4.27a1.91,1.91,0,0,0,.19-.57,5.8,5.8,0,0,0,0-.59v-.34a1.55,1.55,0,0,0-.06-.31.51.51,0,0,0-.52-.33.58.58,0,0,0-.43.16.7.7,0,0,0-.16.48v.71h-1.2v-.69a2,2,0,0,1,.14-.74,1.88,1.88,0,0,1,.39-.6,1.69,1.69,0,0,1,1.27-.57,1.63,1.63,0,0,1,.81.18,1.5,1.5,0,0,1,.55.48,2,2,0,0,1,.32.71,2.9,2.9,0,0,1,.1.88v.53a2.94,2.94,0,0,1,0,.42,1.9,1.9,0,0,1-.11.39c-.06.14-.13.29-.23.48l-1.76,3.53h2.17v1.25h-3.59Z"/><path class="cls-8" d="M370.64,233.64h.94v2.65h2.51v1h-2.51v2.65h-.94v-2.65h-2.5v-1h2.5Z"/><path class="cls-8" d="M378.66,232.43l-1.2.93V232l1.2-.93h1.2v8.77h-1.2Z"/><path class="cls-8" d="M361.51,248a2.39,2.39,0,0,1,.17-.95,2.08,2.08,0,0,1,.47-.67,1.88,1.88,0,0,1,.65-.39,2,2,0,0,1,.72-.14,2.19,2.19,0,0,1,.72.14,1.88,1.88,0,0,1,.65.39,2.08,2.08,0,0,1,.47.67,2.39,2.39,0,0,1,.17.95v.44h-1.2V248a.87.87,0,0,0-.24-.67.85.85,0,0,0-1.14,0,.87.87,0,0,0-.24.67v4.63a.81.81,0,1,0,1.62,0v-1.66h-.95v-1.13h2.15v2.76a2.26,2.26,0,0,1-.17.93,1.91,1.91,0,0,1-1.12,1.07,1.92,1.92,0,0,1-1.44,0,1.91,1.91,0,0,1-1.12-1.07,2.26,2.26,0,0,1-.17-.93Z"/><path class="cls-8" d="M366.59,245.89h1.93c1.42,0,2.12.89,2.12,2.58a3.5,3.5,0,0,1-.23,1.32,1.87,1.87,0,0,1-.81.88l1.3,4h-1.27l-1.12-3.74h-.72v3.74h-1.2Zm1.2,3.92h.68a1.24,1.24,0,0,0,.51-.08.69.69,0,0,0,.29-.27,1.28,1.28,0,0,0,.14-.43,5.72,5.72,0,0,0,0-1.17,1.11,1.11,0,0,0-.15-.43.61.61,0,0,0-.31-.26,1.21,1.21,0,0,0-.53-.09h-.63Z"/><path class="cls-8" d="M372.94,245.89h1l1.87,8.78h-1.2l-.36-1.89h-1.63l-.35,1.89h-1.2Zm.5,2.53h0l-.59,3.19H374Z"/><path class="cls-8" d="M376.85,247.08h-1.4v-1.19h4v1.19h-1.38v7.59h-1.2Z"/><path class="cls-8" d="M383.85,252.7a2,2,0,0,1-.58,1.45,1.88,1.88,0,0,1-.61.43,1.79,1.79,0,0,1-1.5,0,1.82,1.82,0,0,1-.62-.43,2.37,2.37,0,0,1-.43-.65,2.15,2.15,0,0,1-.15-.8v-6.81h1.2v6.69a1,1,0,0,0,.22.69.75.75,0,0,0,1.05,0h0a1,1,0,0,0,.21-.69v-6.69h1.2Z"/><path class="cls-8" d="M385,245.89h1.2v8.78H385Z"/><path class="cls-8" d="M388.16,247.08h-1.39v-1.19h4v1.19h-1.38v7.59h-1.21Z"/><path class="cls-3" d="M409.6,212.73c0,2-1.34,3.66-3,3.66s-3-1.64-3-3.66,1.33-3.66,3-3.66,3,1.64,3,3.66"/><path class="cls-3" d="M361,212.73c0,2-1.33,3.66-3,3.66s-3-1.64-3-3.66,1.34-3.66,3-3.66,3,1.64,3,3.66"/><path class="cls-9" d="M525.49,174.83C499.57,149.46,460,128.7,419.56,132.65c-27.72,2.71-50.07,15.23-68.18,29.78"/><path class="cls-9" d="M166.51,220.45c-34.95-9.71-79.61-8.83-113.15,14.12-23,15.71-36.53,37.5-45.36,59"/><g class="cls-10"><ellipse cx="301" cy="448.84" rx="119.96" ry="11"/></g><path class="cls-11" d="M332,102.14c50.74,27.28,59.46,92.14,35.31,140-17.79,35.29-51.67,63.29-90.76,69.11-48.5,7.23-100-23.39-116.79-69.46-17.91-49,1.52-102.61,45-130.15,23.71-15,52.18-21.73,80.2-20.85q2.21.08,4.41.21C304.16,92,318.92,95.15,332,102.14Z"/><polygon class="cls-11" points="170.8 208.97 115.94 105.65 223.12 129.92 170.8 208.97"/><polygon class="cls-11" points="351.18 128.86 350.02 38.27 268.34 107.31 351.18 128.86"/><polyline class="cls-9" points="220.41 445.84 254.24 443.75 272.21 265.06"/><path class="cls-9" d="M397.72,395.77c-16.24,7.29-33.85,16.07-33.85,16.07S326,303.64,289.15,266.61"/><path class="cls-11" d="M197.56,241.71c27.11,15.75,62.28,16.54,90,2,1.3-.68,2.72-1.57,3-3a4.46,4.46,0,0,0-.3-2.37c-2.51-7.29-9.25-12.46-16.63-14.8s-15.27-2.24-23-1.81c-16.93.93-34.55,3.59-48.32,13.5"/><path class="cls-12" d="M260.37,242.21c-9.49-3-18.45-4.35-24.5,5.36-13.54,21.79,12.5,40.79,32,41.74,11.07.54,22-2.31,32.51-6,21.84-7.59,51-22,45.9-50-.73-3.9-2.25-7.82-5.21-10.47-11.4-10.18-31.13,8.4-40.7,13.76C287.29,244.05,274.74,246.81,260.37,242.21Z"/><g class="cls-13"><path class="cls-8" d="M328.82,214.7c-5.37-1.06-16.52,7.67-21.72,9.58-16.6,6.06-34.33,8-51.67,10.87-4.86.79-10.49,2.26-12.36,6.82-1.53,3.77.43,8.31,3.64,10.83s7.38,3.46,11.43,4c21.59,2.93,43.73-3.14,62.74-13.79,3.81-2.14,7.68-4.6,10-8.31C333.6,230.31,335.79,216.09,328.82,214.7Z"/></g><g class="cls-13"><path class="cls-14" d="M247.71,263.21c-6.85.53-24.51-.66-28.92,5.45-5.67,7.77,7.18,17.52,12.75,20.76,23.65,13.74,53,15.48,79.45,8.72,5.41-1.4,11.52-3.8,13.35-9.1,1.35-3.91-.13-8.37-2.85-11.47s-6.48-5.07-10.26-6.7C291.27,262.28,269.12,261.53,247.71,263.21Z"/></g><path class="cls-8" d="M337.86,161.67c-9.87,2.72-32.27,8.19-66.36,13.31a28.56,28.56,0,0,0,.39,4.33c2.9,16.83,20.39,27.88,39.09,24.71s31.51-19.42,28.64-36.32a28.34,28.34,0,0,0-1.76-6"/><path class="cls-8" d="M267.89,175.55c-18.82,2.74-41,5.34-66.53,7.3a28.21,28.21,0,0,0,.07,9c2.89,16.83,20.39,27.91,39.08,24.71s31.52-19.46,28.63-36.33a26.79,26.79,0,0,0-1.25-4.75"/><path class="cls-8" d="M267.86,175.41v.1A25.32,25.32,0,0,1,269,179l.24.88a4.21,4.21,0,0,1,.12.48l.07.45.3,1.77a6,6,0,0,1,.13.88l0,.93.07,1.89a16.31,16.31,0,0,1-.1,1.86c-.06.62-.06,1.26-.17,1.88a29.75,29.75,0,0,1-2.05,7.2c-.25.57-.48,1.16-.76,1.72l-.88,1.64a27.55,27.55,0,0,1-2.05,3.16,16.5,16.5,0,0,1-1.18,1.47l-1.22,1.43c-.9.88-1.77,1.78-2.72,2.6a34.73,34.73,0,0,1-6.18,4.21l-1.67.88a18,18,0,0,1-1.76.72l-1.77.67-1.76.52c-.57.16-1.17.35-1.77.5l-1.83.34c-.63.11-1.19.24-1.87.32l-1.8.16c-.61.07-1.23.12-1.84.13h-1.86a35.13,35.13,0,0,1-3.7-.2l-.88-.07-.89-.15-1.82-.3a13.51,13.51,0,0,1-1.76-.39l-1.77-.45c-1.21-.37-2.37-.77-3.53-1.18l-1.67-.75a15.9,15.9,0,0,1-1.67-.78,35.17,35.17,0,0,1-3.2-1.87l-1.53-1c-.51-.35-1-.76-1.46-1.15s-1-.76-1.42-1.21l-1.3-1.26-.66-.66-.6-.71-1.18-1.45a13.37,13.37,0,0,1-1.07-1.55c-.34-.52-.72-1-1-1.58l-.88-1.67-.42-.88c-.14-.29-.23-.59-.35-.88a25.5,25.5,0,0,1-1.17-3.59l-.46-1.84-.27-1.84a15.24,15.24,0,0,1-.17-1.9l-.06-1v-1a34.13,34.13,0,0,1,.27-3.78l.11-.95,1-.1c5.54-.58,11.09-1.21,16.63-1.71,2.77-.27,5.54-.51,8.32-.74s5.56-.47,8.34-.67c1.39-.11,2.78-.2,4.16-.38l4.16-.44q4.15-.44,8.32-.82l4.16-.4c1.4-.12,2.78-.27,4.18-.38,2.78-.22,5.56-.48,8.35-.66Z"/><path d="M321,165.84a5.9,5.9,0,0,0,.16,2.29c.79,4.61,4.13,7.87,7.48,7.31s5.41-4.78,4.62-9.38a15.07,15.07,0,0,0-.88-2.94"/><path class="cls-8" d="M310.29,172.45c1.17-.2,1.94-1.52,1.9-3.08l-4.79.54c.43,1.66,1.66,2.75,2.89,2.54"/><path d="M257.14,176.31a11,11,0,0,1,1.26,3.53c.78,4.6-1.28,8.8-4.63,9.37s-6.69-2.7-7.48-7.31c-.19-1.12-.94-3.42-.82-4.46"/><path d="M293.12,116.92c34.19-4.37,42.76,20.3,42.76,20.3-19.52-12-43.62-6.4-43.62-6.4l.88-13.89"/><path d="M250.81,141.64c-45-6.75-49,9-49,9,21-4.76,50.51,4.41,50.51,4.41l-1.47-13.49"/></g></g></g></g></svg>