<svg id="Calque_1" data-name="Calque 1" xmlns="http://www.w3.org/2000/svg" xmlns:xlink="http://www.w3.org/1999/xlink" viewBox="0 0 1060.39 452.54"><defs><style>.cls-1,.cls-9{fill:none;}.cls-2{fill:#ea4e57;}.cls-3{fill:#da8e3d;}.cls-4{fill:#9fecff;}.cls-5{fill:#def8ff;}.cls-6{fill:#f2707c;}.cls-7{fill:#e85931;}.cls-8{fill:#fff;}.cls-9{stroke:#201842;stroke-linecap:round;stroke-linejoin:round;stroke-width:16px;}.cls-10{opacity:0.07;}.cls-11{fill:#201842;}.cls-12{fill:#9e0242;}.cls-13{clip-path:url(#clip-path);}.cls-14{fill:#ce2764;}</style><clipPath id="clip-path"><path class="cls-1" d="M438.17,243.6c-8.92-2.83-17.34-4.09-23,5-12.73,20.48,11.74,38.33,30.08,39.22,10.41.51,20.71-2.17,30.55-5.6,20.53-7.13,48-20.68,43.13-46.95-.68-3.66-2.11-7.34-4.89-9.83-10.71-9.57-29.25,7.88-38.25,12.93C463.46,245.33,451.68,247.92,438.17,243.6Z"/></clipPath></defs><title>kredimmo</title><g id="Calque_2" data-name="Calque 2"><g id="Calque_1-2" data-name="Calque 1-2"><rect class="cls-2" x="339.28" y="121.52" width="513.33" height="252.99"/><rect class="cls-3" x="514.78" y="195.45" width="312.57" height="117.49"/><rect class="cls-4" x="520.74" y="203.98" width="300.65" height="100.42"/><path class="cls-5" d="M611.57,283.27,662.42,204H656.2l-44.63,69.59Zm0-19.39V244.49l26-40.51H650Zm0-29v-9.74L625.13,204h6.21Zm-13.5,69.55,13.55-21.13v-9.7L591.86,304.4Zm13.55-79.29v9.7L567,304.4h-6.25Zm0,19.38v19.39l-26,40.52H573.19Z"/><rect class="cls-3" x="423.45" y="195.45" width="69.04" height="179.06"/><rect class="cls-4" x="429.42" y="203.43" width="57.12" height="171.07"/><rect class="cls-3" x="486.53" y="363.02" width="366.08" height="11.48"/><rect class="cls-3" x="360.38" y="195.45" width="69.04" height="179.06"/><rect class="cls-4" x="366.34" y="203.43" width="57.12" height="171.07"/><polygon class="cls-5" points="366.34 315.12 423.45 226.06 423.45 216.87 366.34 305.94 366.34 315.12"/><polygon class="cls-5" points="366.34 342.69 423.45 253.63 423.45 235.25 366.34 324.31 366.34 342.69"/><polygon class="cls-5" points="366.34 361.07 423.45 272 423.45 262.82 366.34 351.88 366.34 361.07"/><rect class="cls-3" x="402.03" y="93.76" width="13.34" height="37.65"/><rect class="cls-3" x="513.03" y="93.76" width="13.33" height="37.65"/><rect class="cls-3" x="624.04" y="93.76" width="13.33" height="37.65"/><rect class="cls-3" x="723.49" y="93.76" width="11.55" height="37.65"/><rect class="cls-2" x="339.28" y="16" width="513.33" height="80.55"/><rect class="cls-6" x="339.28" y="121.52" width="513.33" height="32.73"/><path class="cls-5" d="M704.6,283.27,730.55,204h-6.21L704.6,273.57Zm0-19.39V244.49l26-40.51H718.14Zm0-29v-9.74L718.14,204h6.22Zm-13.55,69.59,13.55-21.13v-9.74L684.83,304.4Zm13.55-79.29v9.7L660,304.44h-6.22Zm0,19.39v19.38l-26,40.48H666.17Z"/><polygon class="cls-5" points="429.42 315.12 486.53 226.06 486.53 216.87 429.42 305.94 429.42 315.12"/><polygon class="cls-5" points="429.42 342.69 486.53 253.63 486.53 235.25 429.42 324.31 429.42 342.69"/><polygon class="cls-5" points="429.42 361.07 486.53 272 486.53 262.82 429.42 351.88 429.42 361.07"/><rect class="cls-7" x="339.28" y="363.02" width="21.1" height="11.48"/><rect class="cls-6" x="347.58" y="30.16" width="496.72" height="52.23"/><path class="cls-8" d="M513.93,50.24h-4.39V49.18a5.2,5.2,0,0,0-.71-2.78,2.59,2.59,0,0,0-2.39-1.17,2.8,2.8,0,0,0-1.49.37,2.7,2.7,0,0,0-.9.94,4.36,4.36,0,0,0-.45,1.33,10.42,10.42,0,0,0-.13,1.58,11.81,11.81,0,0,0,.07,1.66,3.09,3.09,0,0,0,.32,1.15,2.83,2.83,0,0,0,.75.83,7.73,7.73,0,0,0,1.36.73l3.31,1.42a8.18,8.18,0,0,1,2.41,1.4,5.55,5.55,0,0,1,1.4,1.89,8.28,8.28,0,0,1,.67,2.49,26.12,26.12,0,0,1,.17,3.19,17.6,17.6,0,0,1-.39,3.83,8.43,8.43,0,0,1-1.27,3,6.2,6.2,0,0,1-2.34,2,8,8,0,0,1-3.57.74,7.58,7.58,0,0,1-3-.6A7.2,7.2,0,0,1,501,71.57a7.68,7.68,0,0,1-1.57-2.48,8.14,8.14,0,0,1-.58-3.08V64.27h4.38v1.5a4.08,4.08,0,0,0,.72,2.32,2.7,2.7,0,0,0,2.39,1,3.74,3.74,0,0,0,1.74-.34,2.37,2.37,0,0,0,.94-1,4.16,4.16,0,0,0,.42-1.54c.06-.61.08-1.28.08-2a17.25,17.25,0,0,0-.08-2.12,3.48,3.48,0,0,0-.37-1.33,2.27,2.27,0,0,0-.78-.82,10.2,10.2,0,0,0-1.31-.69l-3.14-1.38a7.09,7.09,0,0,1-3.81-3.32,12,12,0,0,1-1-5.12,12.89,12.89,0,0,1,.48-3.49,8.2,8.2,0,0,1,1.4-2.84,6.67,6.67,0,0,1,2.34-1.91,7.23,7.23,0,0,1,3.32-.71,6.75,6.75,0,0,1,3,.64,7.48,7.48,0,0,1,2.32,1.7,7.69,7.69,0,0,1,1.48,2.37,7.22,7.22,0,0,1,.52,2.68Z"/><path class="cls-8" d="M531.41,66.18a8,8,0,0,1-.57,3,7.64,7.64,0,0,1-1.52,2.4,7.23,7.23,0,0,1-2.26,1.66,6.63,6.63,0,0,1-5.51,0,7.31,7.31,0,0,1-2.28-1.66,7.64,7.64,0,0,1-1.52-2.4,7.86,7.86,0,0,1-.56-3V40.83h4.39V65.71a3.62,3.62,0,0,0,.77,2.57,2.68,2.68,0,0,0,3.79.09l.08-.09a3.62,3.62,0,0,0,.78-2.57V40.83h4.39Z"/><path class="cls-8" d="M535.54,40.83h6.58a9.34,9.34,0,0,1,3.19.5,6.27,6.27,0,0,1,2.49,1.79,7.22,7.22,0,0,1,1.55,3,19.82,19.82,0,0,1,.43,4.67,25.53,25.53,0,0,1-.23,3.7,8.41,8.41,0,0,1-1,2.87,6.69,6.69,0,0,1-2.42,2.48,7.6,7.6,0,0,1-4,.94h-2.23V73.57h-4.39Zm4.39,15.52H542a4.25,4.25,0,0,0,2.07-.41,2.51,2.51,0,0,0,1.08-1.13,4.6,4.6,0,0,0,.4-1.72c0-.67.07-1.42.07-2.25a21.26,21.26,0,0,0-.07-2.18,5.57,5.57,0,0,0-.38-1.8,2.65,2.65,0,0,0-1-1.18,3.73,3.73,0,0,0-2-.44h-2.24Z"/><path class="cls-8" d="M553.05,40.83h13.09v4.41h-8.71v9.6H565v4.41h-7.58v9.6h8.71v4.68H553.05Z"/><path class="cls-8" d="M569,40.83H576q7.76,0,7.75,9.6a12.94,12.94,0,0,1-.83,4.89,6.66,6.66,0,0,1-3,3.31l4.73,14.94h-4.64L576,59.6h-2.63V73.53H569Zm4.39,14.6h2.49a4.2,4.2,0,0,0,1.85-.34,2.43,2.43,0,0,0,1-1,4.23,4.23,0,0,0,.5-1.59,18.34,18.34,0,0,0,0-4.36,4,4,0,0,0-.54-1.61,2.5,2.5,0,0,0-1.14-1,4.72,4.72,0,0,0-1.94-.32h-2.28Z"/><path class="cls-8" d="M587.29,40.83h4.22l5.63,17.32h.1l5.59-17.32h4.27v32.7h-4.38V53.62h-.1l-4.34,14.06h-2.19l-4.31-14.06h-.09V73.53h-4.4Z"/><path class="cls-8" d="M616.1,40.83h3.65l6.85,32.7h-4.39l-1.3-7h-6l-1.28,7h-4.4ZM618,50.24h-.08l-2.15,11.85h4.38Z"/><path class="cls-8" d="M628.76,40.83h7q7.76,0,7.75,9.6a12.75,12.75,0,0,1-.83,4.89,6.7,6.7,0,0,1-3,3.31l4.74,14.94h-4.65l-4.09-14h-2.62V73.53h-4.4Zm4.39,14.6h2.49a4.23,4.23,0,0,0,1.85-.34,2.48,2.48,0,0,0,1-1,4.68,4.68,0,0,0,.5-1.59,19.86,19.86,0,0,0,0-4.36,4.15,4.15,0,0,0-.54-1.61,2.47,2.47,0,0,0-1.15-1,4.7,4.7,0,0,0-1.93-.32h-2.28Z"/><path class="cls-8" d="M661,66.22a8,8,0,0,1-.54,2.9A7.61,7.61,0,0,1,659,71.57a7.06,7.06,0,0,1-2.21,1.66,6.18,6.18,0,0,1-2.74.63,9.51,9.51,0,0,1-2.54-.37,6.13,6.13,0,0,1-2.32-1.27,6.85,6.85,0,0,1-1.7-2.36,9,9,0,0,1-.66-3.72V48.08a8.42,8.42,0,0,1,.51-3,7.16,7.16,0,0,1,1.46-2.39,6.81,6.81,0,0,1,2.27-1.59,7.18,7.18,0,0,1,2.9-.57,6.72,6.72,0,0,1,5,2.18,7.44,7.44,0,0,1,1.49,2.49,9.24,9.24,0,0,1,.54,3.13v1.84h-4.39V48.64a3.94,3.94,0,0,0-.74-2.39,2.3,2.3,0,0,0-2-1,2.17,2.17,0,0,0-2.18,1.08,6,6,0,0,0-.53,2.73V65.77a4.55,4.55,0,0,0,.58,2.39,2.26,2.26,0,0,0,2.09.93,3.23,3.23,0,0,0,.92-.16,2.47,2.47,0,0,0,1.56-1.54,4.07,4.07,0,0,0,.27-1.61V64.21H661Z"/><path class="cls-8" d="M664.6,40.83H669v14h5.39v-14h4.4v32.7h-4.4V59H669V73.53H664.6Z"/><path class="cls-8" d="M682.93,40.83H696v4.41h-8.69v9.6h7.57v4.41h-7.57v9.6H696v4.68H682.93Zm7.4-7.94H695l-5.67,6.47h-2.84Z"/><rect class="cls-2" x="525.52" y="209.47" width="54.5" height="57.27"/><path class="cls-8" d="M533.27,219.27h1.66a2.61,2.61,0,0,1,.83.12,1.64,1.64,0,0,1,.64.46,1.82,1.82,0,0,1,.4.75,5.24,5.24,0,0,1,.11,1.18,7.26,7.26,0,0,1-.06.93,2,2,0,0,1-.26.72,1.66,1.66,0,0,1-.62.64,2.15,2.15,0,0,1-1,.23h-.57v3.21h-1.13Zm1.13,3.91h.54a1,1,0,0,0,.53-.1.71.71,0,0,0,.28-.29.91.91,0,0,0,.1-.43v-1.12a1.18,1.18,0,0,0-.1-.45.62.62,0,0,0-.25-.3,1,1,0,0,0-.51-.11h-.59Z"/><path class="cls-8" d="M537.78,219.27h1.81c1.32,0,2,.83,2,2.42a3,3,0,0,1-.22,1.23,1.68,1.68,0,0,1-.75.83l1.21,3.76h-1.19l-1-3.52h-.67v3.52h-1.13Zm1.13,3.68h.63a1,1,0,0,0,.48-.09.59.59,0,0,0,.27-.25.93.93,0,0,0,.12-.4,4,4,0,0,0,0-1.09.9.9,0,0,0-.13-.41.62.62,0,0,0-.3-.25,1.15,1.15,0,0,0-.49-.08h-.58Z"/><path class="cls-8" d="M542.42,221.21a2.06,2.06,0,0,1,.17-.88,1.81,1.81,0,0,1,.43-.63,1.92,1.92,0,0,1,.61-.37,2,2,0,0,1,.68-.14,1.92,1.92,0,0,1,.68.14,1.81,1.81,0,0,1,1,1,2.22,2.22,0,0,1,.16.88v4.36a2.22,2.22,0,0,1-.16.88,1.75,1.75,0,0,1-.44.63,1.84,1.84,0,0,1-.61.38,1.91,1.91,0,0,1-.68.12,2,2,0,0,1-.68-.12,2,2,0,0,1-.61-.38,1.73,1.73,0,0,1-.43-.63,2.06,2.06,0,0,1-.17-.88Zm1.13,4.36a.82.82,0,0,0,.22.63.84.84,0,0,0,.54.2.69.69,0,0,0,.53-.2.83.83,0,0,0,.24-.63v-4.36a.83.83,0,0,0-.24-.63.78.78,0,0,0-.53-.2.84.84,0,0,0-.54.2.82.82,0,0,0-.22.63Z"/><path class="cls-8" d="M547.2,219.27h1.1l1.45,4.36h0l1.43-4.36h1.1v8.24h-1.13v-5h0L550,226.09h-.57l-1.11-3.55h0v5h-1.13Z"/><path class="cls-8" d="M553.28,221.21a2.22,2.22,0,0,1,.17-.88,1.84,1.84,0,0,1,.44-.63,1.77,1.77,0,0,1,.6-.37,1.81,1.81,0,0,1,1.37,0,1.77,1.77,0,0,1,.6.37,1.84,1.84,0,0,1,.44.63,2.22,2.22,0,0,1,.17.88v4.36a2.06,2.06,0,0,1-.17.88,1.75,1.75,0,0,1-.44.63,1.8,1.8,0,0,1-.6.38,2,2,0,0,1-1.37,0,1.8,1.8,0,0,1-.6-.38,1.75,1.75,0,0,1-.44-.63,2.06,2.06,0,0,1-.17-.88Zm1.14,4.36a.82.82,0,0,0,.22.63.83.83,0,0,0,1.07,0,.79.79,0,0,0,.23-.63v-4.36a.77.77,0,1,0-1.52,0Z"/><path class="cls-8" d="M558.8,220.38h-1.3v-1.11h3.73v1.11h-1.31v7.13h-1.13Z"/><path class="cls-8" d="M561.77,219.27h1.12v8.24h-1.12Z"/><path class="cls-8" d="M563.92,221.21a2.22,2.22,0,0,1,.17-.88,1.84,1.84,0,0,1,.44-.63,1.77,1.77,0,0,1,.6-.37,1.94,1.94,0,0,1,2,.37,2.16,2.16,0,0,1,.44.63,2.22,2.22,0,0,1,.16.88v4.36a2.22,2.22,0,0,1-.16.88,1.75,1.75,0,0,1-.44.63,1.84,1.84,0,0,1-.61.38,2,2,0,0,1-1.37,0,1.8,1.8,0,0,1-.6-.38,1.75,1.75,0,0,1-.44-.63,2.22,2.22,0,0,1-.17-.88Zm1.14,4.36a.82.82,0,0,0,.22.63.83.83,0,0,0,1.07,0,.79.79,0,0,0,.23-.63v-4.36a.77.77,0,1,0-1.52,0Z"/><path class="cls-8" d="M568.66,219.27h1.08l1.66,5h0v-5h1.13v8.24h-1l-1.73-5h0v5h-1.13Z"/><path class="cls-8" d="M533.12,240.3l2-4a1.83,1.83,0,0,0,.17-.53,5,5,0,0,0,0-.55v-.33a.72.72,0,0,0-.06-.29.47.47,0,0,0-.48-.31.61.61,0,0,0-.41.15.62.62,0,0,0-.14.45v.67h-1.13v-.65a1.85,1.85,0,0,1,.13-.7,1.92,1.92,0,0,1,.36-.56,1.5,1.5,0,0,1,.54-.39,1.63,1.63,0,0,1,.66-.14,1.68,1.68,0,0,1,.76.16,1.53,1.53,0,0,1,.52.46,2,2,0,0,1,.3.66,2.9,2.9,0,0,1,.09.83v.5a2.54,2.54,0,0,1,0,.39,2.24,2.24,0,0,1-.1.37c-.06.13-.13.28-.22.45l-1.66,3.32h2v1.18h-3.36Z"/><path class="cls-8" d="M541.79,235.55h.88V238H545V239h-2.36v2.49h-.88V239h-2.35V238h2.35Z"/><path class="cls-8" d="M549.32,234.42l-1.12.87V234l1.12-.87h1.13v8.25h-1.13Z"/><path class="cls-8" d="M533.21,249a2.22,2.22,0,0,1,.16-.88,1.75,1.75,0,0,1,.44-.63,1.69,1.69,0,0,1,.61-.38,2,2,0,0,1,1.36,0,1.65,1.65,0,0,1,.6.38,1.75,1.75,0,0,1,.44.63,2.22,2.22,0,0,1,.17.88v.42h-1.13V249a.82.82,0,0,0-.22-.63.77.77,0,0,0-.54-.2.76.76,0,0,0-.54.2.87.87,0,0,0-.23.63v4.36a.87.87,0,0,0,.23.63.77.77,0,0,0,1.3-.63v-1.56H535v-1.07h2v2.6a2.22,2.22,0,0,1-.17.88,1.83,1.83,0,0,1-1,1,2,2,0,0,1-.68.13,1.91,1.91,0,0,1-.68-.13,1.87,1.87,0,0,1-1-1,2.22,2.22,0,0,1-.16-.88Z"/><path class="cls-8" d="M538,247.07h1.82c1.33,0,2,.82,2,2.42a3.22,3.22,0,0,1-.21,1.23,1.73,1.73,0,0,1-.77.83l1.22,3.77h-1.19l-1.06-3.52h-.67v3.52H538Zm1.13,3.68h.64a1,1,0,0,0,.48-.09.63.63,0,0,0,.27-.24,1.23,1.23,0,0,0,.13-.41,5.06,5.06,0,0,0,0-1.1,1,1,0,0,0-.14-.4.59.59,0,0,0-.29-.25,1.22,1.22,0,0,0-.5-.08h-.59Z"/><path class="cls-8" d="M544,247.07h.94l1.75,8.24h-1.12l-.34-1.78h-1.53l-.33,1.78h-1.13Zm.47,2.37h0l-.55,3H545Z"/><path class="cls-8" d="M547.62,248.18h-1.31v-1.11h3.74v1.11h-1.3v7.13h-1.13Z"/><path class="cls-8" d="M554.2,253.46a2.22,2.22,0,0,1-.14.76,2,2,0,0,1-1,1,1.66,1.66,0,0,1-1.41,0,1.85,1.85,0,0,1-.58-.41,2.17,2.17,0,0,1-.4-.6,2.22,2.22,0,0,1-.14-.76v-6.39h1.13v6.27a.89.89,0,0,0,.2.65.69.69,0,0,0,1,0h0a.89.89,0,0,0,.2-.65v-6.27h1.13Z"/><path class="cls-8" d="M555.3,247.07h1.12v8.24H555.3Z"/><path class="cls-8" d="M558.26,248.18H557v-1.11h3.74v1.11h-1.31v7.13h-1.12Z"/><path class="cls-3" d="M578.4,215.9c0,1.9-1.26,3.44-2.8,3.44s-2.79-1.54-2.79-3.44,1.25-3.44,2.79-3.44,2.8,1.54,2.8,3.44"/><path class="cls-3" d="M532.74,215.9c0,1.9-1.25,3.44-2.79,3.44s-2.8-1.54-2.8-3.44,1.25-3.44,2.8-3.44,2.79,1.54,2.79,3.44"/><path class="cls-9" d="M687.3,180.29c-24.36-23.84-61.54-43.35-99.54-39.64-26,2.54-47,14.31-64.07,28"/><path class="cls-9" d="M350,223.15c-32.84-9.12-74.8-8.29-106.32,13.28-21.59,14.76-34.34,35.23-42.63,55.4"/><g class="cls-10"><ellipse cx="476.34" cy="437.77" rx="112.72" ry="10.34"/></g><path class="cls-11" d="M505.44,112c47.68,25.63,55.88,86.58,33.18,131.6-16.71,33.16-48.56,59.47-85.28,64.93-45.58,6.8-94-22-109.75-65.27-16.83-46,1.43-96.41,42.3-122.29,22.28-14.1,49-20.42,75.37-19.59,1.38,0,2.76.1,4.14.19C479.31,102.42,493.19,105.41,505.44,112Z"/><polygon class="cls-11" points="354 212.36 302.45 115.28 403.17 138.08 354 212.36"/><polygon class="cls-11" points="523.5 137.09 522.41 51.96 445.65 116.84 523.5 137.09"/><polyline class="cls-9" points="400.62 434.95 432.41 432.99 449.3 265.08"/><path class="cls-9" d="M567.24,387.9C552,394.75,535.43,403,535.43,403s-35.6-101.68-70.22-136.46"/><path class="cls-11" d="M379.15,243.14c25.47,14.79,58.53,15.53,84.6,1.89,1.23-.64,2.57-1.47,2.85-2.83a4.32,4.32,0,0,0-.29-2.22c-2.36-6.86-8.69-11.72-15.63-13.91s-14.34-2.1-21.57-1.7c-15.91.87-32.47,3.37-45.41,12.69"/><path class="cls-12" d="M438.17,243.6c-8.92-2.83-17.34-4.09-23,5-12.73,20.48,11.74,38.33,30.08,39.22,10.41.51,20.71-2.17,30.55-5.6,20.53-7.13,48-20.68,43.13-46.95-.68-3.66-2.11-7.34-4.89-9.83-10.71-9.57-29.25,7.88-38.25,12.93C463.46,245.33,451.68,247.92,438.17,243.6Z"/><g class="cls-13"><path class="cls-8" d="M502.49,217.75c-5-1-15.52,7.21-20.41,9-15.6,5.7-32.26,7.55-48.55,10.21-4.57.75-9.86,2.13-11.61,6.42-1.45,3.54.39,7.8,3.41,10.17s6.94,3.26,10.74,3.77c20.29,2.75,41.1-2.95,59-13,3.58-2,7.22-4.32,9.38-7.81C507,232.42,509,219.06,502.49,217.75Z"/></g><g class="cls-13"><path class="cls-14" d="M426.27,263.33c-6.44.5-23-.62-27.17,5.13-5.33,7.3,6.75,16.46,12,19.51,22.22,12.91,49.77,14.54,74.65,8.19,5.09-1.31,10.83-3.57,12.55-8.55,1.27-3.68-.12-7.87-2.67-10.78s-6.09-4.76-9.65-6.3C467.2,262.46,446.39,261.76,426.27,263.33Z"/></g><path class="cls-8" d="M511,167.92c-9.27,2.55-30.31,7.7-62.36,12.51a27.61,27.61,0,0,0,.38,4.06c2.72,15.82,19.16,26.21,36.73,23.23s29.61-18.25,26.91-34.13A26.32,26.32,0,0,0,511,167.9"/><path class="cls-8" d="M445.24,181c-17.69,2.58-38.57,5-62.53,6.86a26.51,26.51,0,0,0,.07,8.48c2.72,15.82,19.16,26.23,36.73,23.23s29.61-18.29,26.9-34.14a26.37,26.37,0,0,0-1.17-4.46"/><path class="cls-8" d="M445.21,180.83v.1a24.05,24.05,0,0,1,1.11,3.26l.22.83a2.18,2.18,0,0,1,.11.44l.07.43.28,1.66a5.22,5.22,0,0,1,.12.82l0,.88.07,1.78a14.55,14.55,0,0,1-.1,1.75c-.05.58-.06,1.18-.16,1.76a28,28,0,0,1-1.92,6.77c-.23.54-.45,1.08-.71,1.61l-.83,1.55a27.43,27.43,0,0,1-1.93,3,13.28,13.28,0,0,1-1.11,1.37l-1.14,1.35c-.85.83-1.67,1.67-2.56,2.44a32.38,32.38,0,0,1-5.81,4l-1.56.83a16.93,16.93,0,0,1-1.66.67l-1.66.63-1.66.49c-.53.15-1.09.32-1.66.47L421,220c-.59.1-1.12.22-1.75.3l-1.7.15a16.76,16.76,0,0,1-1.73.12h-1.75a33.8,33.8,0,0,1-3.48-.18l-.83-.07-.82-.14-1.71-.28a13.28,13.28,0,0,1-1.66-.37l-1.66-.43c-1.14-.34-2.23-.72-3.32-1.1l-1.57-.71a14,14,0,0,1-1.57-.73,31.13,31.13,0,0,1-3-1.76l-1.44-1c-.47-.34-.93-.72-1.37-1.09s-.92-.71-1.33-1.13l-1.22-1.18-.62-.63-.57-.67-1.11-1.36a12.89,12.89,0,0,1-1-1.45c-.32-.49-.68-1-1-1.49l-.83-1.56-.39-.83c-.13-.28-.22-.56-.33-.83a23.81,23.81,0,0,1-1.1-3.38l-.43-1.72-.26-1.74a15.09,15.09,0,0,1-.16-1.78l-.05-.91v-.89a30.27,30.27,0,0,1,.25-3.56l.1-.89,1-.1c5.21-.53,10.42-1.12,15.63-1.6q3.9-.37,7.82-.69c2.62-.22,5.22-.44,7.83-.63,1.31-.1,2.62-.19,3.92-.36l3.9-.42c2.61-.27,5.21-.52,7.82-.77l3.91-.37c1.31-.12,2.62-.26,3.93-.36,2.61-.2,5.22-.44,7.84-.62Z"/><path d="M495.1,171.84a5.21,5.21,0,0,0,.15,2.15c.74,4.33,3.88,7.39,7,6.87s5.09-4.49,4.35-8.82a14.14,14.14,0,0,0-.83-2.76"/><path class="cls-8" d="M485.08,178.05c1.09-.19,1.82-1.43,1.78-2.9l-4.49.52c.39,1.55,1.55,2.58,2.71,2.38"/><path d="M435.14,181.67a10.61,10.61,0,0,1,1.17,3.32c.74,4.33-1.2,8.27-4.34,8.81s-6.29-2.54-7-6.87c-.17-1.05-.87-3.22-.76-4.19"/><path d="M469,125.87c32.12-4.11,40.18,19.07,40.18,19.07-18.34-11.29-41-6-41-6l.83-13.05"/><path d="M429.18,149.1c-42.32-6.35-46.08,8.49-46.08,8.49,19.77-4.47,47.47,4.15,47.47,4.15l-1.39-12.68"/></g></g></svg>